<svg width="41" height="25" viewBox="0 0 41 25" fill="none" xmlns="http://www.w3.org/2000/svg">
<rect width="40.1767" height="24.8232" rx="2.88641" fill="#2D42FF"/>
<path fill-rule="evenodd" clip-rule="evenodd" d="M19.1987 5.63457L11.7711 5.58008L11.7197 12.5865L15.5123 12.6143C15.583 13.6266 14.9362 15.6679 11.7539 16.7917L13.6014 19.7766C15.3614 19.0453 18.9315 16.6056 19.1319 12.6969C19.1329 12.6781 19.1338 12.6594 19.1346 12.6409L19.1473 12.6409L19.1987 5.63457Z" fill="white"/>
<path fill-rule="evenodd" clip-rule="evenodd" d="M28.395 5.63457L20.9674 5.58008L20.916 12.5865L24.7085 12.6143C24.7802 13.6259 24.1348 15.6693 20.9502 16.7939L22.7977 19.7788C24.5577 19.0475 28.1278 16.6078 28.3282 12.6991C28.3292 12.6795 28.3301 12.6601 28.331 12.6409L28.3436 12.6409L28.395 5.63457Z" fill="white"/>
<path d="M33.0191 2.23047C33.022 2.29155 33.0235 2.3562 33.0231 2.42379C33.1145 4.61572 34.7568 5.3709 35.7139 5.3709C33.642 5.3709 33.0412 6.88579 33.0023 7.93716C33.0134 8.07367 33.0191 8.21736 33.0191 8.36858C33.0031 8.23933 32.9965 8.09336 33.0023 7.93716C32.8166 5.65112 31.1405 5.37595 30.1338 5.3709C32.5431 5.3709 33.0174 3.51449 33.0231 2.42379C33.0205 2.36055 33.0191 2.29612 33.0191 2.23047Z" fill="white"/>
</svg>
