<svg width="213" height="43" viewBox="0 0 213 43" fill="none" xmlns="http://www.w3.org/2000/svg">
<path d="M93.9238 18.6875H96.7383C96.2549 15.2285 93.6016 13.2305 90.1641 13.2305C86.0928 13.2305 83.042 16.1953 83.0527 21.2227C83.042 26.2393 86.0605 29.2148 90.1641 29.2148C93.8486 29.2148 96.3086 26.8301 96.7383 23.8438H93.9238C93.5479 25.6699 92.0547 26.7012 90.207 26.7012C87.6719 26.7012 85.8564 24.7998 85.8672 21.2227C85.8564 17.6992 87.6611 15.7441 90.207 15.7441C92.0977 15.7441 93.5908 16.8184 93.9238 18.6875ZM104.107 29.2363C107.523 29.2363 109.704 26.8193 109.693 23.2207C109.704 19.5898 107.523 17.1836 104.107 17.1836C100.702 17.1836 98.5215 19.5898 98.5215 23.2207C98.5215 26.8193 100.702 29.2363 104.107 29.2363ZM101.293 23.1992C101.293 21.0615 102.228 19.3428 104.129 19.3535C105.998 19.3428 106.933 21.0615 106.922 23.1992C106.933 25.3369 105.998 27.0449 104.129 27.0449C102.228 27.0449 101.293 25.3369 101.293 23.1992ZM111.82 29H114.57V21.9102C114.57 20.46 115.537 19.4824 116.719 19.4824C117.89 19.4824 118.685 20.2666 118.695 21.4805V29H121.359V21.7168C121.359 20.3955 122.144 19.4824 123.486 19.4824C124.604 19.4824 125.484 20.1377 125.484 21.5879V29H128.213V21.1582C128.224 18.5586 126.72 17.1836 124.582 17.1836C122.885 17.1836 121.585 18.0215 121.08 19.3105H120.951C120.511 17.9893 119.372 17.1836 117.793 17.1836C116.246 17.1836 115.075 17.9785 114.592 19.3105H114.441V17.334H111.82V29ZM130.834 29H133.584V21.9102C133.584 20.46 134.551 19.4824 135.732 19.4824C136.903 19.4824 137.698 20.2666 137.709 21.4805V29H140.373V21.7168C140.373 20.3955 141.157 19.4824 142.5 19.4824C143.617 19.4824 144.498 20.1377 144.498 21.5879V29H147.227V21.1582C147.237 18.5586 145.733 17.1836 143.596 17.1836C141.898 17.1836 140.599 18.0215 140.094 19.3105H139.965C139.524 17.9893 138.386 17.1836 136.807 17.1836C135.26 17.1836 134.089 17.9785 133.605 19.3105H133.455V17.334H130.834V29ZM155.025 29.2363C157.732 29.2363 159.602 27.9043 160.096 25.8848H157.41C157.056 26.583 156.25 27.0986 155.047 27.0879C153.274 27.0986 152.104 25.917 152.061 23.9297H160.203V23.0703C160.203 18.9775 157.732 17.1836 154.875 17.1836C151.545 17.1836 149.354 19.6328 149.354 23.2422C149.354 26.8945 151.513 29.2363 155.025 29.2363ZM152.071 22.0605C152.168 20.5781 153.274 19.3105 154.918 19.3105C156.497 19.3105 157.571 20.4707 157.582 22.0605H152.071ZM165.08 22.168C165.08 20.4707 166.101 19.4932 167.551 19.5039C168.979 19.4932 169.828 20.4277 169.828 21.9961V29H172.557V21.5664C172.567 18.7734 170.978 17.1836 168.561 17.1836C166.82 17.1836 165.628 18.0107 165.102 19.3105H164.951V17.334H162.33V29H165.08V22.168ZM181 17.334H178.701V14.541H175.973V17.334H174.297V19.4395H175.973V25.9492C175.951 28.1406 177.541 29.1611 179.604 29.1504C180.302 29.1611 180.828 29.0967 181.15 29.043V26.8086C180.807 26.8301 180.27 26.8623 179.947 26.8516C179.26 26.8408 178.701 26.6152 178.701 25.498V19.4395H181V17.334ZM183.105 29H185.855V17.334H183.105V29ZM182.912 14.1758C182.912 15.0029 183.632 15.6689 184.502 15.6797C185.372 15.6689 186.092 15.0029 186.092 14.1758C186.092 13.3594 185.372 12.6934 184.502 12.6934C183.632 12.6934 182.912 13.3594 182.912 14.1758ZM193.568 29.2363C196.984 29.2363 199.165 26.8193 199.154 23.2207C199.165 19.5898 196.984 17.1836 193.568 17.1836C190.163 17.1836 187.982 19.5898 187.982 23.2207C187.982 26.8193 190.163 29.2363 193.568 29.2363ZM190.754 23.1992C190.754 21.0615 191.688 19.3428 193.59 19.3535C195.459 19.3428 196.394 21.0615 196.383 23.1992C196.394 25.3369 195.459 27.0449 193.59 27.0449C191.688 27.0449 190.754 25.3369 190.754 23.1992ZM204.031 22.168C204.031 20.4707 205.052 19.4932 206.502 19.5039C207.931 19.4932 208.779 20.4277 208.779 21.9961V29H211.508V21.5664C211.519 18.7734 209.929 17.1836 207.512 17.1836C205.771 17.1836 204.579 18.0107 204.053 19.3105H203.902V17.334H201.281V29H204.031V22.168Z" fill="#2D42FF"/>
<rect width="69.5963" height="43" rx="5" fill="#2D42FF"/>
<path fill-rule="evenodd" clip-rule="evenodd" d="M33.2534 9.76041L20.3869 9.66602L20.2979 21.8028L26.8704 21.8511C26.9953 23.6029 25.8782 27.1439 20.3603 29.0924L23.5605 34.2632C26.6093 32.9964 32.7937 28.7701 33.1408 21.9992C33.1425 21.9649 33.1442 21.9309 33.1457 21.8971L33.1643 21.8972L33.2534 9.76041Z" fill="white"/>
<path fill-rule="evenodd" clip-rule="evenodd" d="M49.1841 9.76041L36.3176 9.66602L36.2285 21.8028L42.8011 21.8511C42.926 23.6029 41.8089 27.1439 36.291 29.0924L39.4912 34.2632C42.54 32.9964 48.7243 28.7701 49.0714 21.9992C49.0732 21.9649 49.0749 21.9309 49.0764 21.8971L49.095 21.8972L49.1841 9.76041Z" fill="white"/>
<path d="M57.1974 3.86719C57.2024 3.973 57.2049 4.08499 57.2043 4.20207C57.3625 7.99905 60.2074 9.30721 61.8654 9.30721C58.2763 9.30721 57.2356 11.9314 57.1682 13.7526C57.1874 13.9891 57.1974 14.238 57.1974 14.5C57.1696 14.2761 57.1581 14.0232 57.1682 13.7526C56.8465 9.79261 53.943 9.31596 52.1992 9.30721C56.3727 9.30721 57.1943 6.09143 57.2043 4.20207C57.1997 4.09252 57.1974 3.9809 57.1974 3.86719Z" fill="white"/>
</svg>
