<svg width="278" height="149" viewBox="0 0 278 149" fill="none" xmlns="http://www.w3.org/2000/svg">
<g filter="url(#filter0_d_494_709)">
<rect x="3" y="2" width="272" height="143" rx="5" fill="black"/>
</g>
<path d="M35.5938 30.0469H33.4219V37.3125H31.9375V23.3281H33.4219V28.8281H35.5938V30.0469ZM23.0469 24.6875H24.5156V32.5625C26.6562 32.5521 28.7292 32.3438 30.7344 31.9375L30.9062 33.1875C29.7708 33.4115 28.6536 33.5703 27.5547 33.6641C26.4557 33.7578 25.3385 33.8021 24.2031 33.7969H23.0469V24.6875ZM47.1119 28.6094H37.4712V23.8281H38.94V27.4219H47.1119V28.6094ZM35.7681 30.375H48.5806V31.5625H35.7681V30.375ZM37.3619 32.8906H38.8462V35.7812H47.2056V37H37.3619V32.8906ZM56.195 24.375C56.8252 24.375 57.3929 24.5469 57.8981 24.8906C58.4033 25.2344 58.8122 25.7214 59.1247 26.3516C59.4424 26.9818 59.6377 27.724 59.7106 28.5781H62.6012V23.3281H64.07V37.3594H62.6012V29.7812H59.7262C59.6742 30.6823 59.4919 31.4661 59.1794 32.1328C58.8669 32.7995 58.4528 33.3125 57.9372 33.6719C57.4216 34.026 56.8408 34.2031 56.195 34.2031C55.5023 34.2031 54.8851 34.0026 54.3434 33.6016C53.807 33.2005 53.3877 32.6276 53.0856 31.8828C52.7887 31.138 52.6429 30.2708 52.6481 29.2812C52.6429 28.3021 52.7887 27.4427 53.0856 26.7031C53.3877 25.9583 53.807 25.3854 54.3434 24.9844C54.8851 24.5781 55.5023 24.375 56.195 24.375ZM54.0544 29.2812C54.0544 30.0104 54.1429 30.6458 54.32 31.1875C54.5023 31.7292 54.7549 32.1458 55.0778 32.4375C55.4007 32.7292 55.7731 32.875 56.195 32.875C56.6169 32.875 56.9893 32.7292 57.3122 32.4375C57.6351 32.1458 57.8851 31.7292 58.0622 31.1875C58.2445 30.6458 58.3356 30.0104 58.3356 29.2812C58.3356 28.5625 58.2445 27.9349 58.0622 27.3984C57.8799 26.8568 57.6273 26.4401 57.3044 26.1484C56.9867 25.8516 56.6169 25.7031 56.195 25.7031C55.7731 25.7031 55.4007 25.8516 55.0778 26.1484C54.7601 26.4401 54.5101 26.8568 54.3278 27.3984C54.1455 27.9349 54.0544 28.5625 54.0544 29.2812ZM77.8381 37.0312H67.9631V32.6406H69.4475V35.8281H77.8381V37.0312ZM66.01 24.4531H69.5881V25.6562H67.4475V30.125C68.2496 30.099 69.01 30.0052 69.7287 29.8438L69.8537 31.0625C69.3069 31.1823 68.7991 31.2578 68.3303 31.2891C67.8668 31.3151 67.3017 31.3281 66.635 31.3281H66.01V24.4531ZM70.3381 24.4531H74.2444V25.6562H71.8069V30.1328C72.4006 30.1224 72.9189 30.0964 73.3616 30.0547C73.8043 30.0078 74.2496 29.9323 74.6975 29.8281L74.8537 31.0312C74.2912 31.1562 73.7418 31.237 73.2053 31.2734C72.6689 31.3099 71.9527 31.3281 71.0569 31.3281H70.3381V24.4531ZM73.635 27.1406H76.01V23.3438H77.4631V33.5H76.01V28.3438H73.635V27.1406ZM93.9525 33.6562H92.4681V30.0156H88.9916C88.6582 30.4167 88.2468 30.7292 87.7572 30.9531C87.2676 31.1719 86.7337 31.2812 86.1556 31.2812C85.4577 31.2812 84.8301 31.1302 84.2728 30.8281C83.7155 30.526 83.278 30.1068 82.9603 29.5703C82.6426 29.0286 82.4837 28.4219 82.4837 27.75C82.4837 27.0729 82.64 26.4635 82.9525 25.9219C83.2702 25.3802 83.7077 24.9583 84.265 24.6562C84.8275 24.349 85.4577 24.1927 86.1556 24.1875C86.7285 24.1927 87.2572 24.3073 87.7416 24.5312C88.2311 24.75 88.6426 25.0573 88.9759 25.4531H92.4681V23.3438H93.9525V33.6562ZM83.9056 27.75C83.9056 28.1823 83.9994 28.5677 84.1869 28.9062C84.3796 29.2448 84.6478 29.5078 84.9916 29.6953C85.3353 29.8776 85.7233 29.9688 86.1556 29.9688C86.5723 29.9688 86.9499 29.8776 87.2884 29.6953C87.627 29.5078 87.8926 29.2448 88.0853 28.9062C88.278 28.5677 88.3744 28.1823 88.3744 27.75C88.3744 27.3177 88.278 26.9323 88.0853 26.5938C87.8926 26.2552 87.627 25.9922 87.2884 25.8047C86.9499 25.612 86.5723 25.5156 86.1556 25.5156C85.7233 25.5156 85.3353 25.612 84.9916 25.8047C84.6478 25.9922 84.3796 26.2552 84.1869 26.5938C83.9994 26.9323 83.9056 27.3177 83.9056 27.75ZM84.8587 32.5781H86.3431V35.8281H94.3275V37.0312H84.8587V32.5781ZM89.6322 26.6562C89.7416 27 89.7962 27.3646 89.7962 27.75C89.7962 28.1198 89.7442 28.474 89.64 28.8125H92.4681V26.6562H89.6322ZM107.158 33.5156H105.674V23.3438H107.158V33.5156ZM95.83 27.75C95.83 27.0885 95.9941 26.4948 96.3222 25.9688C96.6503 25.4427 97.0982 25.0312 97.6659 24.7344C98.2336 24.4323 98.8665 24.2812 99.5644 24.2812C100.262 24.2812 100.893 24.4323 101.455 24.7344C102.023 25.0312 102.468 25.4427 102.791 25.9688C103.119 26.4948 103.283 27.0885 103.283 27.75C103.283 28.4219 103.119 29.0234 102.791 29.5547C102.468 30.0807 102.023 30.4922 101.455 30.7891C100.893 31.0859 100.262 31.2344 99.5644 31.2344C98.8665 31.2344 98.2336 31.0859 97.6659 30.7891C97.0982 30.4922 96.6503 30.0807 96.3222 29.5547C95.9941 29.0234 95.83 28.4219 95.83 27.75ZM97.2831 27.75C97.2831 28.1823 97.3795 28.5651 97.5722 28.8984C97.7701 29.2266 98.0435 29.4818 98.3925 29.6641C98.7415 29.8464 99.1321 29.9375 99.5644 29.9375C99.9915 29.9375 100.377 29.8464 100.721 29.6641C101.064 29.4818 101.335 29.2266 101.533 28.8984C101.731 28.5651 101.83 28.1823 101.83 27.75C101.83 27.3281 101.731 26.9531 101.533 26.625C101.335 26.2917 101.064 26.0339 100.721 25.8516C100.377 25.6693 99.9915 25.5781 99.5644 25.5781C99.1321 25.5781 98.7415 25.6693 98.3925 25.8516C98.0435 26.0339 97.7701 26.2917 97.5722 26.625C97.3795 26.9531 97.2831 27.3281 97.2831 27.75ZM98.0019 32.4844H99.5019V35.8281H107.58V37.0312H98.0019V32.4844ZM120.426 33.5156H118.942V23.3438H120.426V33.5156ZM109.098 27.75C109.098 27.0885 109.262 26.4948 109.59 25.9688C109.918 25.4427 110.366 25.0312 110.934 24.7344C111.502 24.4323 112.135 24.2812 112.832 24.2812C113.53 24.2812 114.161 24.4323 114.723 24.7344C115.291 25.0312 115.736 25.4427 116.059 25.9688C116.387 26.4948 116.551 27.0885 116.551 27.75C116.551 28.4219 116.387 29.0234 116.059 29.5547C115.736 30.0807 115.291 30.4922 114.723 30.7891C114.161 31.0859 113.53 31.2344 112.832 31.2344C112.135 31.2344 111.502 31.0859 110.934 30.7891C110.366 30.4922 109.918 30.0807 109.59 29.5547C109.262 29.0234 109.098 28.4219 109.098 27.75ZM110.551 27.75C110.551 28.1823 110.648 28.5651 110.84 28.8984C111.038 29.2266 111.312 29.4818 111.661 29.6641C112.01 29.8464 112.4 29.9375 112.832 29.9375C113.26 29.9375 113.645 29.8464 113.989 29.6641C114.332 29.4818 114.603 29.2266 114.801 28.8984C114.999 28.5651 115.098 28.1823 115.098 27.75C115.098 27.3281 114.999 26.9531 114.801 26.625C114.603 26.2917 114.332 26.0339 113.989 25.8516C113.645 25.6693 113.26 25.5781 112.832 25.5781C112.4 25.5781 112.01 25.6693 111.661 25.8516C111.312 26.0339 111.038 26.2917 110.84 26.625C110.648 26.9531 110.551 27.3281 110.551 27.75ZM111.27 32.4844H112.77V35.8281H120.848V37.0312H111.27V32.4844ZM132.991 28.9062H135.163V30.1406H132.991V37.3125H131.507V23.3281H132.991V28.9062ZM122.101 33.5781C123.851 32.7031 125.202 31.6354 126.155 30.375C127.114 29.1146 127.668 27.6667 127.819 26.0312H122.804V24.7969H129.335C129.325 26.9323 128.806 28.8516 127.78 30.5547C126.754 32.2526 125.137 33.6458 122.929 34.7344L122.101 33.5781ZM148.166 35.5781H135.353V34.3438H138.416V30.6875C137.827 30.3646 137.371 29.9557 137.048 29.4609C136.726 28.9661 136.567 28.4115 136.572 27.7969C136.572 27.0729 136.791 26.4349 137.228 25.8828C137.666 25.3307 138.275 24.9036 139.056 24.6016C139.843 24.2943 140.733 24.1406 141.728 24.1406C142.723 24.1406 143.614 24.2943 144.4 24.6016C145.186 24.9036 145.798 25.3307 146.236 25.8828C146.679 26.4349 146.9 27.0729 146.9 27.7969C146.9 28.4062 146.744 28.9557 146.431 29.4453C146.119 29.9297 145.676 30.3333 145.103 30.6562V34.3438H148.166V35.5781ZM138.009 27.7969C138.009 28.2917 138.166 28.7266 138.478 29.1016C138.791 29.4766 139.228 29.7682 139.791 29.9766C140.353 30.1797 140.999 30.2812 141.728 30.2812C142.452 30.2812 143.095 30.1771 143.658 29.9688C144.226 29.7604 144.668 29.4714 144.986 29.1016C145.304 28.7266 145.463 28.2917 145.463 27.7969C145.463 27.3021 145.304 26.8698 144.986 26.5C144.668 26.125 144.226 25.8359 143.658 25.6328C143.095 25.4297 142.452 25.3281 141.728 25.3281C140.999 25.3281 140.353 25.4297 139.791 25.6328C139.228 25.8359 138.791 26.125 138.478 26.5C138.166 26.8698 138.009 27.3021 138.009 27.7969ZM143.603 34.3438V31.2344C143.02 31.3698 142.395 31.4375 141.728 31.4375C141.072 31.4375 140.457 31.3698 139.884 31.2344V34.3438H143.603ZM150.918 32.6406C150.923 31.9844 150.988 31.4531 151.113 31.0469C151.244 30.6354 151.423 30.3073 151.652 30.0625C151.882 29.8125 152.189 29.5677 152.574 29.3281C153.345 28.8594 153.731 28.2604 153.731 27.5312C153.731 27.2135 153.655 26.9349 153.504 26.6953C153.358 26.4505 153.155 26.263 152.895 26.1328C152.639 26.0026 152.356 25.9375 152.043 25.9375C151.751 25.9375 151.478 26 151.223 26.125C150.968 26.2448 150.757 26.4297 150.59 26.6797C150.423 26.9297 150.33 27.2396 150.309 27.6094H148.621C148.642 26.9635 148.804 26.4089 149.106 25.9453C149.413 25.4818 149.822 25.1302 150.332 24.8906C150.843 24.651 151.413 24.5312 152.043 24.5312C152.71 24.5312 153.298 24.6589 153.809 24.9141C154.324 25.1641 154.723 25.5156 155.004 25.9688C155.291 26.4219 155.434 26.9427 155.434 27.5312C155.434 28.1354 155.298 28.6589 155.027 29.1016C154.757 29.5391 154.361 29.9167 153.84 30.2344C153.517 30.4323 153.262 30.6354 153.074 30.8438C152.887 31.0469 152.746 31.2917 152.652 31.5781C152.564 31.8646 152.517 32.2188 152.512 32.6406V32.7344H150.918V32.6406ZM150.668 35.0156C150.668 34.8125 150.718 34.625 150.817 34.4531C150.916 34.2812 151.048 34.1458 151.215 34.0469C151.387 33.9427 151.574 33.8906 151.777 33.8906C151.975 33.8906 152.158 33.9401 152.324 34.0391C152.496 34.138 152.632 34.2734 152.731 34.4453C152.835 34.6172 152.887 34.8021 152.887 35C152.887 35.1979 152.835 35.3828 152.731 35.5547C152.632 35.7214 152.496 35.8568 152.324 35.9609C152.158 36.0599 151.975 36.1094 151.777 36.1094C151.58 36.1094 151.395 36.0599 151.223 35.9609C151.056 35.862 150.921 35.7292 150.817 35.5625C150.718 35.3958 150.668 35.2135 150.668 35.0156ZM34.1875 55.6562H32.7031V52.0156H29.2266C28.8932 52.4167 28.4818 52.7292 27.9922 52.9531C27.5026 53.1719 26.9688 53.2812 26.3906 53.2812C25.6927 53.2812 25.0651 53.1302 24.5078 52.8281C23.9505 52.526 23.513 52.1068 23.1953 51.5703C22.8776 51.0286 22.7188 50.4219 22.7188 49.75C22.7188 49.0729 22.875 48.4635 23.1875 47.9219C23.5052 47.3802 23.9427 46.9583 24.5 46.6562C25.0625 46.349 25.6927 46.1927 26.3906 46.1875C26.9635 46.1927 27.4922 46.3073 27.9766 46.5312C28.4661 46.75 28.8776 47.0573 29.2109 47.4531H32.7031V45.3438H34.1875V55.6562ZM24.1406 49.75C24.1406 50.1823 24.2344 50.5677 24.4219 50.9062C24.6146 51.2448 24.8828 51.5078 25.2266 51.6953C25.5703 51.8776 25.9583 51.9688 26.3906 51.9688C26.8073 51.9688 27.1849 51.8776 27.5234 51.6953C27.862 51.5078 28.1276 51.2448 28.3203 50.9062C28.513 50.5677 28.6094 50.1823 28.6094 49.75C28.6094 49.3177 28.513 48.9323 28.3203 48.5938C28.1276 48.2552 27.862 47.9922 27.5234 47.8047C27.1849 47.612 26.8073 47.5156 26.3906 47.5156C25.9583 47.5156 25.5703 47.612 25.2266 47.8047C24.8828 47.9922 24.6146 48.2552 24.4219 48.5938C24.2344 48.9323 24.1406 49.3177 24.1406 49.75ZM25.0938 54.5781H26.5781V57.8281H34.5625V59.0312H25.0938V54.5781ZM29.8672 48.6562C29.9766 49 30.0312 49.3646 30.0312 49.75C30.0312 50.1198 29.9792 50.474 29.875 50.8125H32.7031V48.6562H29.8672ZM47.3931 55.5156H45.9087V45.3438H47.3931V55.5156ZM36.065 49.75C36.065 49.0885 36.2291 48.4948 36.5572 47.9688C36.8853 47.4427 37.3332 47.0312 37.9009 46.7344C38.4686 46.4323 39.1015 46.2812 39.7994 46.2812C40.4973 46.2812 41.1275 46.4323 41.69 46.7344C42.2577 47.0312 42.703 47.4427 43.0259 47.9688C43.3541 48.4948 43.5181 49.0885 43.5181 49.75C43.5181 50.4219 43.3541 51.0234 43.0259 51.5547C42.703 52.0807 42.2577 52.4922 41.69 52.7891C41.1275 53.0859 40.4973 53.2344 39.7994 53.2344C39.1015 53.2344 38.4686 53.0859 37.9009 52.7891C37.3332 52.4922 36.8853 52.0807 36.5572 51.5547C36.2291 51.0234 36.065 50.4219 36.065 49.75ZM37.5181 49.75C37.5181 50.1823 37.6145 50.5651 37.8072 50.8984C38.0051 51.2266 38.2785 51.4818 38.6275 51.6641C38.9765 51.8464 39.3671 51.9375 39.7994 51.9375C40.2265 51.9375 40.6119 51.8464 40.9556 51.6641C41.2994 51.4818 41.5702 51.2266 41.7681 50.8984C41.966 50.5651 42.065 50.1823 42.065 49.75C42.065 49.3281 41.966 48.9531 41.7681 48.625C41.5702 48.2917 41.2994 48.0339 40.9556 47.8516C40.6119 47.6693 40.2265 47.5781 39.7994 47.5781C39.3671 47.5781 38.9765 47.6693 38.6275 47.8516C38.2785 48.0339 38.0051 48.2917 37.8072 48.625C37.6145 48.9531 37.5181 49.3281 37.5181 49.75ZM38.2369 54.4844H39.7369V57.8281H47.815V59.0312H38.2369V54.4844ZM55.4269 46.1719C56.4008 46.1719 57.281 46.3359 58.0675 46.6641C58.854 46.987 59.4711 47.4453 59.9191 48.0391C60.3722 48.6276 60.5987 49.3073 60.5987 50.0781C60.5987 50.849 60.3722 51.5312 59.9191 52.125C59.4711 52.7188 58.854 53.1771 58.0675 53.5C57.281 53.8229 56.4008 53.9844 55.4269 53.9844C54.4529 53.9844 53.5727 53.8229 52.7862 53.5C52.005 53.1771 51.3904 52.7188 50.9425 52.125C50.4946 51.5312 50.2706 50.849 50.2706 50.0781C50.2706 49.3125 50.4946 48.6328 50.9425 48.0391C51.3904 47.4453 52.005 46.987 52.7862 46.6641C53.5727 46.3359 54.4529 46.1719 55.4269 46.1719ZM49.0519 56.2812H61.8644V57.5156H49.0519V56.2812ZM51.6925 50.0781C51.6925 50.6146 51.8514 51.0859 52.1691 51.4922C52.492 51.8984 52.9373 52.2135 53.505 52.4375C54.0727 52.6562 54.7133 52.7656 55.4269 52.7656C56.1404 52.7656 56.7784 52.6562 57.3409 52.4375C57.9086 52.2135 58.354 51.8984 58.6769 51.4922C58.9998 51.0859 59.1612 50.6146 59.1612 50.0781C59.1612 49.5469 58.9998 49.0755 58.6769 48.6641C58.354 48.2526 57.9086 47.9349 57.3409 47.7109C56.7732 47.487 56.1352 47.375 55.4269 47.375C54.7133 47.375 54.0727 47.487 53.505 47.7109C52.9373 47.9349 52.492 48.2526 52.1691 48.6641C51.8514 49.0755 51.6925 49.5469 51.6925 50.0781ZM75.1325 57.6562H62.32V56.4062H67.9606V53.9531H63.8825V49.5H72.1012V47.5312H63.8512V46.3125H73.57V50.6875H65.3512V52.7344H73.8981V53.9531H69.4294V56.4062H75.1325V57.6562ZM80.635 48.8906C80.635 49.7396 80.7834 50.5729 81.0803 51.3906C81.3824 52.2031 81.8043 52.9245 82.3459 53.5547C82.8876 54.1849 83.51 54.6562 84.2131 54.9688L83.3069 56.1562C82.5256 55.7604 81.8407 55.1901 81.2522 54.4453C80.6636 53.6953 80.2131 52.8359 79.9006 51.8672C79.5881 52.8932 79.1324 53.8073 78.5334 54.6094C77.9397 55.4062 77.2444 56.0104 76.4475 56.4219L75.51 55.2188C76.2183 54.8802 76.8459 54.3802 77.3928 53.7188C77.9449 53.0521 78.372 52.2969 78.6741 51.4531C78.9814 50.6042 79.135 49.75 79.135 48.8906V46.5H80.635V48.8906ZM82.6662 49.9844H85.7912V45.3281H87.26V59.3594H85.7912V51.1875H82.6662V49.9844ZM105.015 57.5938H92.2025V56.3594H97.8431V53.4844H93.6712V46.2812H95.1556V48.6875H102.031V46.2812H103.499V53.4844H99.3119V56.3594H105.015V57.5938ZM102.031 52.2812V49.8906H95.1556V52.2812H102.031ZM116.799 50.6094H107.158V45.8281H108.627V49.4219H116.799V50.6094ZM105.455 52.375H118.268V53.5625H105.455V52.375ZM107.049 54.8906H108.533V57.7812H116.893V59H107.049V54.8906ZM35.5938 74.0469H33.4219V81.3125H31.9375V67.3281H33.4219V72.8281H35.5938V74.0469ZM23.0469 68.6875H24.5156V76.5625C26.6562 76.5521 28.7292 76.3438 30.7344 75.9375L30.9062 77.1875C29.7708 77.4115 28.6536 77.5703 27.5547 77.6641C26.4557 77.7578 25.3385 77.8021 24.2031 77.7969H23.0469V68.6875ZM40.3462 68.3281C41.0754 68.3281 41.7291 68.4688 42.3072 68.75C42.8853 69.026 43.3384 69.4193 43.6666 69.9297C43.9947 70.4349 44.1587 71.0104 44.1587 71.6562C44.1587 72.3021 43.9947 72.8802 43.6666 73.3906C43.3384 73.8958 42.8853 74.2917 42.3072 74.5781C41.7291 74.8594 41.0754 75 40.3462 75C39.6171 75 38.9608 74.8594 38.3775 74.5781C37.7994 74.2917 37.3462 73.8958 37.0181 73.3906C36.6952 72.8802 36.5337 72.3021 36.5337 71.6562C36.5337 71.0104 36.6952 70.4349 37.0181 69.9297C37.3462 69.4245 37.7994 69.0312 38.3775 68.75C38.9608 68.4688 39.6171 68.3281 40.3462 68.3281ZM35.8619 77.1094C37.6223 77.1094 39.2473 77.0807 40.7369 77.0234C42.2265 76.9661 43.6483 76.8385 45.0025 76.6406L45.1119 77.7188C43.716 77.9896 42.2968 78.1615 40.8541 78.2344C39.4166 78.3073 37.815 78.3438 36.0494 78.3438L35.8619 77.1094ZM38.0025 71.6562C37.9973 72.0625 38.0936 72.4219 38.2916 72.7344C38.4947 73.0417 38.7733 73.2812 39.1275 73.4531C39.4869 73.6198 39.8931 73.7031 40.3462 73.7031C40.7994 73.7031 41.203 73.6198 41.5572 73.4531C41.9166 73.2812 42.1978 73.0417 42.4009 72.7344C42.6041 72.4219 42.7056 72.0625 42.7056 71.6562C42.7056 71.2552 42.6041 70.901 42.4009 70.5938C42.1978 70.2812 41.9166 70.0391 41.5572 69.8672C41.1978 69.6953 40.7942 69.6094 40.3462 69.6094C39.8931 69.6094 39.4869 69.6953 39.1275 69.8672C38.7733 70.0391 38.4947 70.2812 38.2916 70.5938C38.0936 70.901 37.9973 71.2552 38.0025 71.6562ZM45.8775 67.3281H47.3619V81.3594H45.8775V67.3281ZM65.2106 79.5781H52.3981V78.3438H58.0387V75.1094H53.8669V68.4531H63.6794V75.1094H59.5075V78.3438H65.2106V79.5781ZM62.2262 73.9375V69.6406H55.3044V73.9375H62.2262ZM68.7131 77.2031H75.2912V75.7188H76.7756V81.1562H67.2444V75.7188H68.7131V77.2031ZM65.6662 73.6094H78.4319V74.8438H65.6662V73.6094ZM66.3537 71.5781C67.2496 71.4635 68.0751 71.2344 68.8303 70.8906C69.5855 70.5417 70.1845 70.1224 70.6272 69.6328C71.0699 69.138 71.2912 68.6198 71.2912 68.0781V67.4844H72.8069V68.0781C72.8069 68.6042 73.0308 69.1172 73.4787 69.6172C73.9267 70.112 74.5256 70.5365 75.2756 70.8906C76.0308 71.2396 76.8485 71.4688 77.7287 71.5781L77.1975 72.75C76.4423 72.6458 75.7287 72.4609 75.0569 72.1953C74.385 71.9297 73.7912 71.599 73.2756 71.2031C72.76 70.8021 72.3537 70.3568 72.0569 69.8672C71.76 70.362 71.3511 70.8073 70.8303 71.2031C70.3147 71.599 69.7209 71.9297 69.0491 72.1953C68.3772 72.4609 67.6662 72.6458 66.9162 72.75L66.3537 71.5781ZM75.2912 79.9688V78.3594H68.7131V79.9688H75.2912ZM85.3094 67.5625C86.3615 67.5625 87.2599 67.6536 88.0047 67.8359C88.7495 68.0182 89.3198 68.2917 89.7156 68.6562C90.1115 69.0156 90.3094 69.4531 90.3094 69.9688C90.3094 70.4896 90.1115 70.9323 89.7156 71.2969C89.3198 71.6562 88.7495 71.9297 88.0047 72.1172C87.2599 72.2995 86.3615 72.3906 85.3094 72.3906C84.2573 72.3906 83.3563 72.2995 82.6063 72.1172C81.8615 71.9297 81.2911 71.6562 80.8953 71.2969C80.5047 70.9323 80.3094 70.4896 80.3094 69.9688C80.3094 69.4531 80.5047 69.0156 80.8953 68.6562C81.2911 68.2917 81.8615 68.0182 82.6063 67.8359C83.3563 67.6536 84.2573 67.5625 85.3094 67.5625ZM78.9344 73.25H91.7V74.4375H78.9344V73.25ZM80.4656 75.5156H90.0906V78.7969H81.9344V80.0469H90.4813V81.1875H80.4813V77.7188H88.6219V76.625H80.4656V75.5156ZM81.8563 69.9688C81.851 70.401 82.1453 70.7292 82.7391 70.9531C83.3328 71.1719 84.1896 71.2812 85.3094 71.2812C86.4396 71.2812 87.3016 71.1719 87.8953 70.9531C88.4891 70.7292 88.7833 70.401 88.7781 69.9688C88.7833 69.5521 88.4839 69.2292 87.8797 69C87.2807 68.7708 86.424 68.6562 85.3094 68.6562C84.2 68.6562 83.3458 68.7708 82.7469 69C82.1479 69.2292 81.851 69.5521 81.8563 69.9688ZM108.361 79.5469H95.5488V78.3281H101.158V75H102.627V78.3281H108.361V79.5469ZM95.9863 74.0312C96.8769 73.8802 97.7128 73.5677 98.4941 73.0938C99.2805 72.6198 99.9107 72.0469 100.385 71.375C100.859 70.6979 101.096 70 101.096 69.2812V68.2188H102.658V69.2812C102.658 70 102.895 70.6979 103.369 71.375C103.848 72.0469 104.481 72.6198 105.268 73.0938C106.059 73.5677 106.903 73.8802 107.799 74.0312L107.158 75.25C106.398 75.099 105.671 74.849 104.978 74.5C104.291 74.151 103.679 73.7188 103.143 73.2031C102.606 72.6823 102.187 72.1094 101.885 71.4844C101.583 72.1094 101.163 72.6797 100.627 73.1953C100.096 73.7109 99.4863 74.1458 98.7988 74.5C98.1165 74.849 97.3977 75.099 96.6425 75.25L95.9863 74.0312ZM120.801 81.3281H119.379V74.0625H117.645V80.6562H116.254V67.7031H117.645V72.8594H119.379V67.3281H120.801V81.3281ZM108.77 77.3281C110.27 76.474 111.39 75.4661 112.129 74.3047C112.869 73.1432 113.299 71.8177 113.418 70.3281H109.364V69.1094H114.864C114.859 71.1042 114.457 72.8776 113.661 74.4297C112.864 75.9818 111.52 77.2917 109.629 78.3594L108.77 77.3281ZM129.007 70.8438H122.054V69.6406H124.804V67.7344H126.272V69.6406H129.007V70.8438ZM122.507 74.9062C122.507 74.2865 122.634 73.7318 122.89 73.2422C123.15 72.7526 123.512 72.3724 123.976 72.1016C124.439 71.8255 124.96 71.6875 125.538 71.6875C126.121 71.6875 126.642 71.8255 127.101 72.1016C127.564 72.3724 127.926 72.7526 128.187 73.2422C128.452 73.7318 128.585 74.2865 128.585 74.9062C128.585 75.5365 128.452 76.099 128.187 76.5938C127.926 77.0885 127.564 77.474 127.101 77.75C126.642 78.0208 126.121 78.1562 125.538 78.1562C124.96 78.1562 124.439 78.0208 123.976 77.75C123.512 77.474 123.15 77.0885 122.89 76.5938C122.634 76.099 122.507 75.5365 122.507 74.9062ZM123.819 74.9062C123.819 75.2969 123.892 75.6432 124.038 75.9453C124.184 76.2422 124.387 76.474 124.647 76.6406C124.908 76.8073 125.205 76.8906 125.538 76.8906C125.871 76.8906 126.168 76.8073 126.429 76.6406C126.694 76.474 126.9 76.2422 127.046 75.9453C127.197 75.6432 127.272 75.2969 127.272 74.9062C127.272 74.526 127.197 74.1849 127.046 73.8828C126.9 73.5807 126.694 73.3464 126.429 73.1797C126.168 73.0078 125.871 72.9219 125.538 72.9219C125.205 72.9219 124.908 73.0078 124.647 73.1797C124.387 73.3464 124.184 73.5807 124.038 73.8828C123.892 74.1849 123.819 74.526 123.819 74.9062ZM129.647 67.6406H131.054V73.1562H132.663V67.3281H134.069V81.3281H132.663V74.375H131.054V80.6719H129.647V67.6406ZM148.119 76.4219H142.431V81.3125H140.978V76.4219H135.353V75.2188H148.119V76.4219ZM136.072 72.9844C136.936 72.8646 137.733 72.6276 138.463 72.2734C139.197 71.9141 139.783 71.4766 140.22 70.9609C140.658 70.4453 140.884 69.9062 140.9 69.3438H136.541V68.1562H146.916V69.3438H142.588C142.593 69.9062 142.811 70.4453 143.244 70.9609C143.681 71.4766 144.267 71.9141 145.002 72.2734C145.736 72.6276 146.541 72.8646 147.416 72.9844L146.869 74.1562C146.103 74.0365 145.382 73.8359 144.705 73.5547C144.028 73.2682 143.434 72.9141 142.923 72.4922C142.413 72.0651 142.017 71.5911 141.736 71.0703C141.455 71.5911 141.059 72.0651 140.548 72.4922C140.038 72.9141 139.447 73.2682 138.775 73.5547C138.103 73.8359 137.39 74.0365 136.634 74.1562L136.072 72.9844ZM152.887 71.1562C152.887 71.9167 152.994 72.6693 153.207 73.4141C153.421 74.1536 153.738 74.8307 154.16 75.4453C154.582 76.0599 155.095 76.5521 155.699 76.9219L154.871 78.0625C154.236 77.6823 153.692 77.1641 153.238 76.5078C152.791 75.8464 152.442 75.0964 152.192 74.2578C151.931 75.1693 151.559 75.9818 151.074 76.6953C150.595 77.4089 150.022 77.9688 149.356 78.375L148.434 77.2656C149.074 76.8802 149.621 76.3672 150.074 75.7266C150.533 75.0859 150.876 74.3776 151.106 73.6016C151.34 72.8203 151.455 72.026 151.449 71.2188V68.6094H152.887V71.1562ZM154.184 72.25H156.356V67.5938H157.762V80.6406H156.356V73.4844H154.184V72.25ZM159.246 67.3281H160.668V81.3281H159.246V67.3281ZM174.702 79.5781H161.889V78.3438H164.952V74.6875C164.363 74.3646 163.908 73.9557 163.585 73.4609C163.262 72.9661 163.103 72.4115 163.108 71.7969C163.108 71.0729 163.327 70.4349 163.764 69.8828C164.202 69.3307 164.811 68.9036 165.592 68.6016C166.379 68.2943 167.27 68.1406 168.264 68.1406C169.259 68.1406 170.15 68.2943 170.936 68.6016C171.723 68.9036 172.335 69.3307 172.772 69.8828C173.215 70.4349 173.436 71.0729 173.436 71.7969C173.436 72.4062 173.28 72.9557 172.967 73.4453C172.655 73.9297 172.212 74.3333 171.639 74.6562V78.3438H174.702V79.5781ZM164.546 71.7969C164.546 72.2917 164.702 72.7266 165.014 73.1016C165.327 73.4766 165.764 73.7682 166.327 73.9766C166.889 74.1797 167.535 74.2812 168.264 74.2812C168.988 74.2812 169.632 74.1771 170.194 73.9688C170.762 73.7604 171.204 73.4714 171.522 73.1016C171.84 72.7266 171.999 72.2917 171.999 71.7969C171.999 71.3021 171.84 70.8698 171.522 70.5C171.204 70.125 170.762 69.8359 170.194 69.6328C169.632 69.4297 168.988 69.3281 168.264 69.3281C167.535 69.3281 166.889 69.4297 166.327 69.6328C165.764 69.8359 165.327 70.125 165.014 70.5C164.702 70.8698 164.546 71.3021 164.546 71.7969ZM170.139 78.3438V75.2344C169.556 75.3698 168.931 75.4375 168.264 75.4375C167.608 75.4375 166.994 75.3698 166.421 75.2344V78.3438H170.139ZM177.595 76.7344H176.048L175.908 68.6875H177.736L177.595 76.7344ZM175.72 79.0156C175.72 78.8125 175.769 78.625 175.868 78.4531C175.967 78.2812 176.1 78.1458 176.267 78.0469C176.439 77.9427 176.626 77.8906 176.829 77.8906C177.027 77.8906 177.21 77.9401 177.376 78.0391C177.548 78.138 177.684 78.2734 177.783 78.4453C177.887 78.6172 177.939 78.8021 177.939 79C177.939 79.1979 177.887 79.3828 177.783 79.5547C177.684 79.7214 177.548 79.8568 177.376 79.9609C177.21 80.0599 177.027 80.1094 176.829 80.1094C176.631 80.1094 176.447 80.0599 176.275 79.9609C176.108 79.862 175.973 79.7292 175.868 79.5625C175.769 79.3958 175.72 79.2135 175.72 79.0156Z" fill="white"/>
<path fill-rule="evenodd" clip-rule="evenodd" d="M244.632 110.443L235.066 110.373L235 119.396L239.884 119.432C239.975 120.736 239.142 123.365 235.043 124.812L237.423 128.657C239.689 127.715 244.287 124.573 244.545 119.539C244.546 119.514 244.548 119.49 244.549 119.466L244.566 119.467L244.632 110.443Z" fill="white"/>
<path fill-rule="evenodd" clip-rule="evenodd" d="M256.477 110.443L246.911 110.373L246.845 119.396L251.728 119.432C251.821 120.734 250.991 123.368 246.888 124.817L249.267 128.661C251.534 127.719 256.132 124.577 256.39 119.543C256.391 119.518 256.393 119.492 256.394 119.467L256.411 119.467L256.477 110.443Z" fill="white"/>
<path d="M261.323 105C261.327 105.088 261.329 105.181 261.328 105.279C261.445 108.54 263.614 109.273 264.828 109.273C262.181 109.273 261.36 111.369 261.305 112.801C261.317 112.976 261.323 113.159 261.323 113.352C261.304 113.186 261.297 113 261.305 112.801C261.083 109.657 258.949 109.28 257.669 109.273C260.709 109.273 261.317 106.765 261.328 105.279C261.325 105.188 261.323 105.095 261.323 105Z" fill="white"/>
<path d="M202.731 34.9072C202.352 34.5057 201.719 34.4876 201.317 34.8668C200.916 35.246 200.898 35.8789 201.277 36.2804L202.731 34.9072ZM208.473 31.5207L207.641 30.966L208.473 31.5207ZM232.157 36.0092C232.518 36.4266 233.15 36.4717 233.567 36.11C233.985 35.7483 234.03 35.1167 233.668 34.6994L232.157 36.0092ZM209.177 30.6901L209.834 31.4448L209.177 30.6901ZM201.277 36.2804C202.077 37.1279 203.155 38.0571 204.373 38.797C205.583 39.5318 206.997 40.1202 208.453 40.1939L208.554 38.1965C207.55 38.1456 206.462 37.726 205.412 37.0877C204.369 36.4543 203.428 35.6451 202.731 34.9072L201.277 36.2804ZM208.521 29.9355C208.206 30.2098 207.914 30.5563 207.641 30.966L209.305 32.0754C209.505 31.7752 209.684 31.5749 209.834 31.4448L208.521 29.9355ZM207.641 30.966C207.192 31.6394 206.951 32.3505 206.945 33.0724C206.94 33.7951 207.171 34.4559 207.551 35.0255C208.292 36.1374 209.607 36.9278 211.045 37.3854C213.916 38.299 217.912 38.0765 220.643 35.6184L219.305 34.1318C217.244 35.9865 214.051 36.2432 211.651 35.4796C210.454 35.0987 209.612 34.5113 209.215 33.9161C209.026 33.6321 208.943 33.357 208.945 33.0875C208.947 32.8173 209.035 32.4802 209.305 32.0754L207.641 30.966ZM220.643 35.6184C222.867 33.6169 225.055 32.9658 226.979 33.1453C228.921 33.3266 230.734 34.3676 232.157 36.0092L233.668 34.6994C231.976 32.7471 229.715 31.392 227.165 31.154C224.596 30.9142 221.873 31.8205 219.305 34.1318L220.643 35.6184ZM208.453 40.1939C210.149 40.2797 211.307 39.244 211.983 38.011C212.649 36.797 212.941 35.2603 212.954 33.8768C212.966 32.5281 212.715 31.0906 212.061 30.1649C211.716 29.6766 211.182 29.2323 210.444 29.1763C209.728 29.1219 209.074 29.4545 208.521 29.9355L209.834 31.4448C210.174 31.1491 210.317 31.1724 210.293 31.1705C210.246 31.167 210.299 31.1371 210.428 31.3191C210.721 31.7343 210.965 32.6621 210.954 33.8579C210.943 35.0189 210.692 36.206 210.23 37.0497C209.777 37.8744 209.223 38.2303 208.554 38.1965L208.453 40.1939Z" fill="#3656FF"/>
<path d="M182.769 116L180.339 121.109" stroke="#4557FF" stroke-width="2" stroke-linecap="round"/>
<path d="M117 105.446L122.176 107.73" stroke="#4557FF" stroke-width="2" stroke-linecap="round"/>
<path d="M23.0004 125.446L28.1758 127.73" stroke="#F638B6" stroke-width="2" stroke-linecap="round"/>
<path d="M182.858 55.9992C182.582 57.7666 181.647 59.8837 181.215 60.7213" stroke="#F638B6" stroke-width="2" stroke-linecap="round"/>
<path d="M189.102 60.7214C188.035 62.1577 186.224 63.5977 185.451 64.1382" stroke="#F638B6" stroke-width="2" stroke-linecap="round"/>
<path d="M192.129 69.7176C190.353 69.9345 188.061 69.6137 187.137 69.4262" stroke="#F638B6" stroke-width="2" stroke-linecap="round"/>
<path d="M88.4998 122.502C92.3341 121.821 96.9189 120.178 96.8086 116.203C96.7163 112.878 91.7321 110.058 90.607 113.189C90.5189 113.434 90.4791 113.704 90.5005 114.001C90.7062 116.859 101.112 116.968 103.169 112.935" stroke="#F638B6" stroke-width="1.4" stroke-linecap="round"/>
<path d="M253.028 24.9368L256.079 20.1729" stroke="#4557FF" stroke-width="2" stroke-linecap="round"/>
<path d="M46.0746 107.138C45.3505 111.205 50.0655 113.998 52.9871 115C57.2533 113.801 61.9074 108.212 59.1925 105.416C56.0907 102.221 53.8921 105.417 52.9871 107.413C52.305 105.131 51.0448 104.233 49.812 104.041C48.0089 103.761 46.3944 105.341 46.0746 107.138Z" fill="#F638B6"/>
<path d="M235.003 54.0394C235.117 56.5866 238.087 58.335 239.991 59C243.038 58.1278 246.362 54.0636 244.423 52.0298C242.208 49.7061 240.637 52.0303 239.991 53.482C239.641 52.2914 239.079 51.6187 238.464 51.2821C236.863 50.4057 234.922 52.216 235.003 54.0394Z" fill="#F638B6"/>
<path d="M139.706 125.73C141.537 127.505 144.897 126.739 146.738 125.916C148.356 123.191 147.986 117.953 145.179 117.804C141.973 117.634 142.426 120.403 142.952 121.902C141.88 121.276 141.01 121.172 140.332 121.35C138.566 121.811 138.396 124.46 139.706 125.73Z" fill="#3656FF"/>
<defs>
<filter id="filter0_d_494_709" x="0" y="0" width="278" height="149" filterUnits="userSpaceOnUse" color-interpolation-filters="sRGB">
<feFlood flood-opacity="0" result="BackgroundImageFix"/>
<feColorMatrix in="SourceAlpha" type="matrix" values="0 0 0 0 0 0 0 0 0 0 0 0 0 0 0 0 0 0 127 0" result="hardAlpha"/>
<feOffset dy="1"/>
<feGaussianBlur stdDeviation="1.5"/>
<feComposite in2="hardAlpha" operator="out"/>
<feColorMatrix type="matrix" values="0 0 0 0 0 0 0 0 0 0 0 0 0 0 0 0 0 0 0.18 0"/>
<feBlend mode="normal" in2="BackgroundImageFix" result="effect1_dropShadow_494_709"/>
<feBlend mode="normal" in="SourceGraphic" in2="effect1_dropShadow_494_709" result="shape"/>
</filter>
</defs>
</svg>
