<svg width="24" height="24" viewBox="0 0 24 24" fill="none" xmlns="http://www.w3.org/2000/svg">
<circle cx="12" cy="12" r="12" fill="white"/>
<path d="M8.79999 15.1956C7.64839 14.3779 6.7371 13.3143 6.22216 12.6427C6.07816 12.4573 6 12.2293 6 11.9945C6 11.7598 6.07816 11.5317 6.22216 11.3463C7.15405 10.1298 9.38983 7.625 12.0001 7.625C13.1711 7.625 14.2659 8.12871 15.2021 8.7947" stroke="#2D42FF" stroke-width="1.24834" stroke-linecap="round" stroke-linejoin="round"/>
<path d="M13.3297 10.6745C13.1564 10.4983 12.9498 10.3581 12.7221 10.2621C12.4943 10.1661 12.2498 10.1161 12.0026 10.1151C11.7554 10.1141 11.5105 10.162 11.2819 10.2561C11.0533 10.3502 10.8456 10.4886 10.6708 10.6634C10.496 10.8381 10.3575 11.0458 10.2634 11.2743C10.1692 11.5029 10.1213 11.7478 10.1222 11.995C10.1232 12.2422 10.1731 12.4867 10.2691 12.7145C10.365 12.9423 10.5052 13.1489 10.6813 13.3222M7.00684 16.9867L16.9936 7M10.7519 16.1778C11.1571 16.2984 11.5774 16.3607 12.0002 16.3626C14.6105 16.3626 16.8463 13.8578 17.7782 12.6413C17.9221 12.4557 18.0002 12.2275 18.0001 11.9926C18 11.7578 17.9217 11.5297 17.7775 11.3442C17.45 10.917 17.0987 10.5085 16.7252 10.1209" stroke="#2D42FF" stroke-width="1.24834" stroke-linecap="round" stroke-linejoin="round"/>
</svg>
