<svg width="31" height="31" viewBox="0 0 31 31" fill="none" xmlns="http://www.w3.org/2000/svg">
<circle cx="15.5" cy="15.5" r="15.5" fill="#2D42FF"/>
<path d="M11.3667 19.6283C9.87917 18.5721 8.70209 17.1983 8.03696 16.3308C7.85096 16.0914 7.75 15.7968 7.75 15.4936C7.75 15.1904 7.85096 14.8958 8.03696 14.6563C9.24064 13.085 12.1285 9.84961 15.5002 9.84961C17.0126 9.84961 18.4267 10.5002 19.6361 11.3605" stroke="white" stroke-width="1.61244" stroke-linecap="round" stroke-linejoin="round"/>
<path d="M17.2178 13.7892C16.9939 13.5616 16.7272 13.3805 16.433 13.2565C16.1387 13.1325 15.8229 13.068 15.5036 13.0666C15.1843 13.0653 14.868 13.1272 14.5727 13.2487C14.2775 13.3703 14.0092 13.5491 13.7834 13.7748C13.5576 14.0005 13.3788 14.2688 13.2572 14.564C13.1355 14.8592 13.0736 15.1756 13.0748 15.4948C13.0761 15.8141 13.1406 16.13 13.2645 16.4242C13.3885 16.7185 13.5694 16.9852 13.797 17.2092M9.05078 21.9425L21.9503 9.04297M13.8881 20.8977C14.4115 21.0535 14.9545 21.1338 15.5006 21.1363C18.8722 21.1363 21.7601 17.9009 22.9638 16.3296C23.1497 16.0899 23.2505 15.7952 23.2504 15.4918C23.2503 15.1884 23.1491 14.8938 22.9629 14.6543C22.5399 14.1024 22.0861 13.5748 21.6037 13.0741" stroke="white" stroke-width="1.61244" stroke-linecap="round" stroke-linejoin="round"/>
</svg>
