<svg width="183" height="27" viewBox="0 0 183 27" fill="none" xmlns="http://www.w3.org/2000/svg">
<ellipse cx="10.5" cy="12.9742" rx="10.5" ry="8.4" fill="#291900"/>
<path d="M1.36116 21.474C2.52414 19.9853 3.39021 18.1739 3.67539 17.1758L6.82539 19.8008C6.48053 20.8354 3.8703 21.9408 1.78486 22.3031C1.32404 22.3832 1.07321 21.8425 1.36116 21.474Z" fill="#291900"/>
<path d="M62.7715 7.34375C62.7656 9.02539 62.5518 10.5576 62.1299 11.9404C61.7139 13.3174 60.9785 14.6035 59.9238 15.7988C58.8691 16.9941 57.4219 18.043 55.582 18.9453L54.668 17.6973C56.0566 17.0176 57.1963 16.2559 58.0869 15.4121C58.9775 14.5684 59.6631 13.6338 60.1436 12.6084L55.002 13.0918L54.7559 11.6504L60.6621 11.2549C60.8848 10.499 61.0283 9.64648 61.0928 8.69727H55.582V7.34375H62.7715ZM65.1797 5.74414H66.8496V12.0371H69.293V13.4082H66.8496V21.4766H65.1797V5.74414ZM78.3281 7.34375C78.3223 9.02539 78.1084 10.5576 77.6865 11.9404C77.2705 13.3174 76.5352 14.6035 75.4805 15.7988C74.4258 16.9941 72.9785 18.043 71.1387 18.9453L70.2246 17.6973C71.6133 17.0176 72.7529 16.2559 73.6436 15.4121C74.5342 14.5684 75.2197 13.6338 75.7002 12.6084L70.5586 13.0918L70.3125 11.6504L76.2188 11.2549C76.4414 10.499 76.585 9.64648 76.6494 8.69727H71.1387V7.34375H78.3281ZM80.7363 5.74414H82.4062V12.0371H84.8496V13.4082H82.4062V21.4766H80.7363V5.74414ZM92.8652 6.69336C93.9785 6.69336 94.9775 6.86914 95.8623 7.2207C96.7471 7.57227 97.4385 8.06445 97.9365 8.69727C98.4346 9.32422 98.6836 10.0508 98.6836 10.877C98.6836 11.6504 98.4727 12.3389 98.0508 12.9424C97.6289 13.54 97.04 14.0205 96.2842 14.3838C95.5342 14.7412 94.6699 14.9609 93.6914 15.043V18.1367H100.107V19.5254H85.6934V18.1367H92.0391V15.043C91.0664 14.9609 90.2021 14.7412 89.4463 14.3838C88.6963 14.0205 88.1104 13.5371 87.6885 12.9336C87.2725 12.3301 87.0645 11.6445 87.0645 10.877C87.0645 10.0566 87.3135 9.33008 87.8115 8.69727C88.3096 8.06445 88.998 7.57227 89.877 7.2207C90.7559 6.86914 91.752 6.69336 92.8652 6.69336ZM88.6816 10.877C88.6816 11.457 88.8604 11.9639 89.2178 12.3975C89.5752 12.8311 90.0703 13.165 90.7031 13.3994C91.3359 13.6338 92.0566 13.7539 92.8652 13.7598C93.6797 13.7539 94.4033 13.6338 95.0361 13.3994C95.6689 13.165 96.1641 12.8311 96.5215 12.3975C96.8848 11.9639 97.0664 11.457 97.0664 10.877C97.0664 10.3145 96.8848 9.81934 96.5215 9.3916C96.1641 8.96387 95.666 8.63574 95.0273 8.40723C94.3945 8.17285 93.6738 8.05859 92.8652 8.06445C92.0625 8.05859 91.3418 8.17285 90.7031 8.40723C90.0703 8.63574 89.5752 8.9668 89.2178 9.40039C88.8604 9.82812 88.6816 10.3203 88.6816 10.877ZM115.611 15.5176H101.215V14.1816H107.578V12.6875H103.096V6.14844H113.854V7.4668H104.783V8.75H113.449V10.0156H104.783V11.4043H113.959V12.6875H109.248V14.1816H115.611V15.5176ZM102.85 16.7832H113.783V21.4941H112.078V18.1191H102.85V16.7832ZM123.979 6.69336C125.074 6.69336 126.064 6.87793 126.949 7.24707C127.834 7.61035 128.528 8.12598 129.032 8.79395C129.542 9.45605 129.797 10.2207 129.797 11.0879C129.797 11.9551 129.542 12.7227 129.032 13.3906C128.528 14.0586 127.834 14.5742 126.949 14.9375C126.064 15.3008 125.074 15.4824 123.979 15.4824C122.883 15.4824 121.893 15.3008 121.008 14.9375C120.129 14.5742 119.438 14.0586 118.934 13.3906C118.43 12.7227 118.178 11.9551 118.178 11.0879C118.178 10.2266 118.43 9.46191 118.934 8.79395C119.438 8.12598 120.129 7.61035 121.008 7.24707C121.893 6.87793 122.883 6.69336 123.979 6.69336ZM116.807 18.0664H131.221V19.4551H116.807V18.0664ZM119.777 11.0879C119.777 11.6914 119.956 12.2217 120.313 12.6787C120.677 13.1357 121.178 13.4902 121.816 13.7422C122.455 13.9883 123.176 14.1113 123.979 14.1113C124.781 14.1113 125.499 13.9883 126.132 13.7422C126.771 13.4902 127.271 13.1357 127.635 12.6787C127.998 12.2217 128.18 11.6914 128.18 11.0879C128.18 10.4902 127.998 9.95996 127.635 9.49707C127.271 9.03418 126.771 8.67676 126.132 8.4248C125.493 8.17285 124.775 8.04688 123.979 8.04688C123.176 8.04688 122.455 8.17285 121.816 8.4248C121.178 8.67676 120.677 9.03418 120.313 9.49707C119.956 9.95996 119.777 10.4902 119.777 11.0879ZM146.777 19.6133H132.363V18.207H138.709V15.4473H134.121V10.4375H143.367V8.22266H134.086V6.85156H145.02V11.7734H135.773V14.0762H145.389V15.4473H140.361V18.207H146.777V19.6133ZM159.416 15.6406C160.547 15.6406 161.531 15.7578 162.369 15.9922C163.207 16.2207 163.852 16.5547 164.303 16.9941C164.76 17.4336 164.988 17.9551 164.988 18.5586C164.988 19.1621 164.76 19.6807 164.303 20.1143C163.852 20.5537 163.207 20.8877 162.369 21.1162C161.531 21.3447 160.547 21.459 159.416 21.459C158.297 21.459 157.318 21.3447 156.48 21.1162C155.648 20.8877 155.007 20.5537 154.556 20.1143C154.104 19.6807 153.879 19.1621 153.879 18.5586C153.879 17.9551 154.104 17.4336 154.556 16.9941C155.007 16.5547 155.648 16.2207 156.48 15.9922C157.312 15.7578 158.291 15.6406 159.416 15.6406ZM152.332 12.9863H158.08V10.0332H159.715V12.9863H166.658V14.3398H152.332V12.9863ZM154.002 6.51758H164.865V7.83594V8.30176C164.865 8.98145 164.836 9.61133 164.777 10.1914C164.725 10.7656 164.607 11.375 164.426 12.0195L162.791 11.8438C162.979 11.1289 163.096 10.4873 163.143 9.91895C163.189 9.34473 163.213 8.65625 163.213 7.85352H154.002V6.51758ZM155.549 18.5586C155.543 18.8926 155.695 19.1826 156.006 19.4287C156.322 19.6689 156.771 19.8535 157.351 19.9824C157.937 20.1113 158.625 20.1758 159.416 20.1758C160.219 20.1758 160.913 20.1113 161.499 19.9824C162.085 19.8535 162.536 19.6689 162.853 19.4287C163.169 19.1826 163.33 18.8926 163.336 18.5586C163.33 18.2188 163.169 17.9258 162.853 17.6797C162.536 17.4277 162.085 17.2373 161.499 17.1084C160.913 16.9736 160.219 16.9062 159.416 16.9062C158.625 16.9062 157.937 16.9736 157.351 17.1084C156.771 17.2373 156.322 17.4277 156.006 17.6797C155.695 17.9258 155.543 18.2188 155.549 18.5586ZM182.268 16.0098H178.611V21.4941H176.924V16.0098H173.162V21.4941H171.439V16.0098H167.854V14.6387H182.268V16.0098ZM169.418 9.82227C169.418 9.125 169.652 8.5127 170.121 7.98535C170.596 7.45801 171.255 7.05371 172.099 6.77246C172.948 6.48535 173.924 6.3418 175.025 6.3418C176.127 6.3418 177.103 6.48535 177.952 6.77246C178.802 7.05371 179.461 7.45801 179.93 7.98535C180.398 8.5127 180.633 9.125 180.633 9.82227C180.633 10.5137 180.398 11.1172 179.93 11.6328C179.461 12.1484 178.802 12.5469 177.952 12.8281C177.103 13.1035 176.127 13.2383 175.025 13.2324C173.924 13.2383 172.948 13.1035 172.099 12.8281C171.255 12.5469 170.596 12.1484 170.121 11.6328C169.652 11.1172 169.418 10.5137 169.418 9.82227ZM171.141 9.82227C171.141 10.25 171.299 10.6221 171.615 10.9385C171.938 11.249 172.392 11.4893 172.978 11.6592C173.569 11.8291 174.252 11.9141 175.025 11.9141C175.805 11.9141 176.487 11.8291 177.073 11.6592C177.659 11.4893 178.113 11.249 178.436 10.9385C178.764 10.6221 178.928 10.25 178.928 9.82227C178.928 9.38281 178.764 9.00488 178.436 8.68848C178.113 8.36621 177.659 8.11719 177.073 7.94141C176.487 7.76562 175.805 7.67773 175.025 7.67773C174.246 7.67773 173.563 7.76562 172.978 7.94141C172.392 8.11719 171.938 8.36621 171.615 8.68848C171.299 9.01074 171.141 9.38867 171.141 9.82227Z" fill="black"/>
</svg>
