<svg width="277" height="59" viewBox="0 0 277 59" fill="none" xmlns="http://www.w3.org/2000/svg">
<rect width="277" height="59" rx="7" fill="#FFD600"/>
<ellipse cx="57.5" cy="28.9742" rx="10.5" ry="8.4" fill="#291900"/>
<path d="M48.3612 37.474C49.5241 35.9853 50.3902 34.1739 50.6754 33.1758L53.8254 35.8008C53.4805 36.8354 50.8703 37.9408 48.7849 38.3031C48.324 38.3832 48.0732 37.8425 48.3612 37.474Z" fill="#291900"/>
<path d="M109.771 23.3438C109.766 25.0254 109.552 26.5576 109.13 27.9404C108.714 29.3174 107.979 30.6035 106.924 31.7988C105.869 32.9941 104.422 34.043 102.582 34.9453L101.668 33.6973C103.057 33.0176 104.196 32.2559 105.087 31.4121C105.978 30.5684 106.663 29.6338 107.144 28.6084L102.002 29.0918L101.756 27.6504L107.662 27.2549C107.885 26.499 108.028 25.6465 108.093 24.6973H102.582V23.3438H109.771ZM112.18 21.7441H113.85V28.0371H116.293V29.4082H113.85V37.4766H112.18V21.7441ZM125.328 23.3438C125.322 25.0254 125.108 26.5576 124.687 27.9404C124.271 29.3174 123.535 30.6035 122.48 31.7988C121.426 32.9941 119.979 34.043 118.139 34.9453L117.225 33.6973C118.613 33.0176 119.753 32.2559 120.644 31.4121C121.534 30.5684 122.22 29.6338 122.7 28.6084L117.559 29.0918L117.312 27.6504L123.219 27.2549C123.441 26.499 123.585 25.6465 123.649 24.6973H118.139V23.3438H125.328ZM127.736 21.7441H129.406V28.0371H131.85V29.4082H129.406V37.4766H127.736V21.7441ZM139.865 22.6934C140.979 22.6934 141.978 22.8691 142.862 23.2207C143.747 23.5723 144.438 24.0645 144.937 24.6973C145.435 25.3242 145.684 26.0508 145.684 26.877C145.684 27.6504 145.473 28.3389 145.051 28.9424C144.629 29.54 144.04 30.0205 143.284 30.3838C142.534 30.7412 141.67 30.9609 140.691 31.043V34.1367H147.107V35.5254H132.693V34.1367H139.039V31.043C138.066 30.9609 137.202 30.7412 136.446 30.3838C135.696 30.0205 135.11 29.5371 134.688 28.9336C134.272 28.3301 134.064 27.6445 134.064 26.877C134.064 26.0566 134.313 25.3301 134.812 24.6973C135.31 24.0645 135.998 23.5723 136.877 23.2207C137.756 22.8691 138.752 22.6934 139.865 22.6934ZM135.682 26.877C135.682 27.457 135.86 27.9639 136.218 28.3975C136.575 28.8311 137.07 29.165 137.703 29.3994C138.336 29.6338 139.057 29.7539 139.865 29.7598C140.68 29.7539 141.403 29.6338 142.036 29.3994C142.669 29.165 143.164 28.8311 143.521 28.3975C143.885 27.9639 144.066 27.457 144.066 26.877C144.066 26.3145 143.885 25.8193 143.521 25.3916C143.164 24.9639 142.666 24.6357 142.027 24.4072C141.395 24.1729 140.674 24.0586 139.865 24.0645C139.062 24.0586 138.342 24.1729 137.703 24.4072C137.07 24.6357 136.575 24.9668 136.218 25.4004C135.86 25.8281 135.682 26.3203 135.682 26.877ZM162.611 31.5176H148.215V30.1816H154.578V28.6875H150.096V22.1484H160.854V23.4668H151.783V24.75H160.449V26.0156H151.783V27.4043H160.959V28.6875H156.248V30.1816H162.611V31.5176ZM149.85 32.7832H160.783V37.4941H159.078V34.1191H149.85V32.7832ZM170.979 22.6934C172.074 22.6934 173.064 22.8779 173.949 23.2471C174.834 23.6104 175.528 24.126 176.032 24.7939C176.542 25.4561 176.797 26.2207 176.797 27.0879C176.797 27.9551 176.542 28.7227 176.032 29.3906C175.528 30.0586 174.834 30.5742 173.949 30.9375C173.064 31.3008 172.074 31.4824 170.979 31.4824C169.883 31.4824 168.893 31.3008 168.008 30.9375C167.129 30.5742 166.438 30.0586 165.934 29.3906C165.43 28.7227 165.178 27.9551 165.178 27.0879C165.178 26.2266 165.43 25.4619 165.934 24.7939C166.438 24.126 167.129 23.6104 168.008 23.2471C168.893 22.8779 169.883 22.6934 170.979 22.6934ZM163.807 34.0664H178.221V35.4551H163.807V34.0664ZM166.777 27.0879C166.777 27.6914 166.956 28.2217 167.313 28.6787C167.677 29.1357 168.178 29.4902 168.816 29.7422C169.455 29.9883 170.176 30.1113 170.979 30.1113C171.781 30.1113 172.499 29.9883 173.132 29.7422C173.771 29.4902 174.271 29.1357 174.635 28.6787C174.998 28.2217 175.18 27.6914 175.18 27.0879C175.18 26.4902 174.998 25.96 174.635 25.4971C174.271 25.0342 173.771 24.6768 173.132 24.4248C172.493 24.1729 171.775 24.0469 170.979 24.0469C170.176 24.0469 169.455 24.1729 168.816 24.4248C168.178 24.6768 167.677 25.0342 167.313 25.4971C166.956 25.96 166.777 26.4902 166.777 27.0879ZM193.777 35.6133H179.363V34.207H185.709V31.4473H181.121V26.4375H190.367V24.2227H181.086V22.8516H192.02V27.7734H182.773V30.0762H192.389V31.4473H187.361V34.207H193.777V35.6133ZM206.416 31.6406C207.547 31.6406 208.531 31.7578 209.369 31.9922C210.207 32.2207 210.852 32.5547 211.303 32.9941C211.76 33.4336 211.988 33.9551 211.988 34.5586C211.988 35.1621 211.76 35.6807 211.303 36.1143C210.852 36.5537 210.207 36.8877 209.369 37.1162C208.531 37.3447 207.547 37.459 206.416 37.459C205.297 37.459 204.318 37.3447 203.48 37.1162C202.648 36.8877 202.007 36.5537 201.556 36.1143C201.104 35.6807 200.879 35.1621 200.879 34.5586C200.879 33.9551 201.104 33.4336 201.556 32.9941C202.007 32.5547 202.648 32.2207 203.48 31.9922C204.312 31.7578 205.291 31.6406 206.416 31.6406ZM199.332 28.9863H205.08V26.0332H206.715V28.9863H213.658V30.3398H199.332V28.9863ZM201.002 22.5176H211.865V23.8359V24.3018C211.865 24.9814 211.836 25.6113 211.777 26.1914C211.725 26.7656 211.607 27.375 211.426 28.0195L209.791 27.8438C209.979 27.1289 210.096 26.4873 210.143 25.9189C210.189 25.3447 210.213 24.6562 210.213 23.8535H201.002V22.5176ZM202.549 34.5586C202.543 34.8926 202.695 35.1826 203.006 35.4287C203.322 35.6689 203.771 35.8535 204.351 35.9824C204.937 36.1113 205.625 36.1758 206.416 36.1758C207.219 36.1758 207.913 36.1113 208.499 35.9824C209.085 35.8535 209.536 35.6689 209.853 35.4287C210.169 35.1826 210.33 34.8926 210.336 34.5586C210.33 34.2188 210.169 33.9258 209.853 33.6797C209.536 33.4277 209.085 33.2373 208.499 33.1084C207.913 32.9736 207.219 32.9062 206.416 32.9062C205.625 32.9062 204.937 32.9736 204.351 33.1084C203.771 33.2373 203.322 33.4277 203.006 33.6797C202.695 33.9258 202.543 34.2188 202.549 34.5586ZM229.268 32.0098H225.611V37.4941H223.924V32.0098H220.162V37.4941H218.439V32.0098H214.854V30.6387H229.268V32.0098ZM216.418 25.8223C216.418 25.125 216.652 24.5127 217.121 23.9854C217.596 23.458 218.255 23.0537 219.099 22.7725C219.948 22.4854 220.924 22.3418 222.025 22.3418C223.127 22.3418 224.103 22.4854 224.952 22.7725C225.802 23.0537 226.461 23.458 226.93 23.9854C227.398 24.5127 227.633 25.125 227.633 25.8223C227.633 26.5137 227.398 27.1172 226.93 27.6328C226.461 28.1484 225.802 28.5469 224.952 28.8281C224.103 29.1035 223.127 29.2383 222.025 29.2324C220.924 29.2383 219.948 29.1035 219.099 28.8281C218.255 28.5469 217.596 28.1484 217.121 27.6328C216.652 27.1172 216.418 26.5137 216.418 25.8223ZM218.141 25.8223C218.141 26.25 218.299 26.6221 218.615 26.9385C218.938 27.249 219.392 27.4893 219.978 27.6592C220.569 27.8291 221.252 27.9141 222.025 27.9141C222.805 27.9141 223.487 27.8291 224.073 27.6592C224.659 27.4893 225.113 27.249 225.436 26.9385C225.764 26.6221 225.928 26.25 225.928 25.8223C225.928 25.3828 225.764 25.0049 225.436 24.6885C225.113 24.3662 224.659 24.1172 224.073 23.9414C223.487 23.7656 222.805 23.6777 222.025 23.6777C221.246 23.6777 220.563 23.7656 219.978 23.9414C219.392 24.1172 218.938 24.3662 218.615 24.6885C218.299 25.0107 218.141 25.3887 218.141 25.8223Z" fill="black"/>
</svg>
