<svg width="193" height="29" viewBox="0 0 193 29" fill="none" xmlns="http://www.w3.org/2000/svg">
<path d="M71.0369 12.2304H74.9661C74.6404 8.60653 71.9835 6.55029 68.3088 6.55029C64.349 6.55029 61.2341 9.21729 61.2239 14.1238C61.2341 19.0099 64.2676 21.6972 68.3088 21.6972C72.5536 21.6972 74.7523 18.7656 74.9661 16.2411L71.0369 16.2004C70.8231 17.5135 69.8866 18.3075 68.3902 18.3177C66.3951 18.3075 65.2142 16.8926 65.2142 14.1238C65.2142 11.4873 66.3645 9.92985 68.4106 9.92985C69.9782 9.92985 70.9045 10.846 71.0369 12.2304ZM82.1528 21.6972C85.7156 21.6972 87.8431 19.3967 87.8329 15.9968C87.8431 12.5969 85.7156 10.2963 82.1528 10.2963C78.59 10.2963 76.4625 12.5969 76.4523 15.9968C76.4625 19.3967 78.59 21.6972 82.1528 21.6972ZM80.3816 15.9764C80.3917 14.2052 81.0432 13.0956 82.1731 13.1058C83.2521 13.0956 83.9138 14.2052 83.9036 15.9764C83.9138 17.7273 83.2521 18.8368 82.1731 18.847C81.0432 18.8368 80.3917 17.7273 80.3816 15.9764ZM89.5023 21.4937H93.3501V15.0196C93.3399 14.022 93.8794 13.401 94.7345 13.3908C95.5794 13.401 96.1291 14.0016 96.1393 14.9788V21.4937H99.8242V14.9992C99.814 14.0118 100.343 13.401 101.209 13.3908C102.043 13.401 102.603 13.9914 102.613 14.9992V21.4937H106.461V14.0423C106.451 11.752 105.006 10.2963 102.898 10.2963C101.26 10.2963 99.9464 11.1717 99.5596 12.5154H99.4374C99.1931 11.1717 97.9716 10.2963 96.4243 10.2963C94.8974 10.2963 93.7268 11.1514 93.2687 12.5154H93.1465V10.4388H89.5023V21.4937ZM108.477 21.4937H112.325V15.0196C112.314 14.022 112.854 13.401 113.709 13.3908C114.554 13.401 115.104 14.0016 115.114 14.9788V21.4937H118.799V14.9992C118.788 14.0118 119.318 13.401 120.183 13.3908C121.018 13.401 121.578 13.9914 121.588 14.9992V21.4937H125.436V14.0423C125.425 11.752 123.98 10.2963 121.873 10.2963C120.234 10.2963 118.921 11.1717 118.534 12.5154H118.412C118.168 11.1717 116.946 10.2963 115.399 10.2963C113.872 10.2963 112.701 11.1514 112.243 12.5154H112.121V10.4388H108.477V21.4937ZM132.704 21.6972C135.727 21.6972 137.681 20.2518 138.058 17.9716H134.536C134.292 18.6129 133.63 18.9692 132.785 18.9692C131.553 18.9692 130.831 18.165 130.831 17.0147V16.8722H138.078V15.9561C138.068 12.4034 135.9 10.2963 132.622 10.2963C129.212 10.2963 127.034 12.5765 127.024 15.9968C127.034 19.5697 129.182 21.6972 132.704 21.6972ZM130.831 14.7142C130.861 13.7166 131.676 13.0142 132.704 13.0244C133.732 13.0142 134.505 13.7166 134.516 14.7142H130.831ZM143.575 15.2435C143.575 14.1136 144.227 13.4214 145.245 13.4316C146.283 13.4214 146.894 14.1034 146.873 15.2435V21.4937H150.721V14.4495C150.742 12.0166 149.215 10.2963 146.873 10.2963C145.245 10.2963 143.972 11.1412 143.494 12.5154H143.372V10.4388H139.727V21.4937H143.575V15.2435ZM159.231 10.4388H157.297V7.79217H153.449V10.4388H152.024V13.228H153.449V18.338C153.419 20.6386 154.864 21.6463 157.541 21.6565C158.407 21.6463 159.017 21.5853 159.374 21.514V18.6434C158.936 18.6841 158.366 18.7147 158.091 18.7045C157.552 18.674 157.297 18.4704 157.297 17.9512V13.228H159.231V10.4388ZM160.88 21.4937H164.728V10.4388H160.88V21.4937ZM160.88 7.46643C160.87 8.45383 161.735 9.24783 162.794 9.23765C163.842 9.24783 164.708 8.45383 164.708 7.46643C164.708 6.48921 163.842 5.69522 162.794 5.69522C161.735 5.69522 160.87 6.48921 160.88 7.46643ZM172.057 21.6972C175.62 21.6972 177.748 19.3967 177.737 15.9968C177.748 12.5969 175.62 10.2963 172.057 10.2963C168.494 10.2963 166.367 12.5969 166.357 15.9968C166.367 19.3967 168.494 21.6972 172.057 21.6972ZM170.286 15.9764C170.296 14.2052 170.948 13.0956 172.078 13.1058C173.157 13.0956 173.818 14.2052 173.808 15.9764C173.818 17.7273 173.157 18.8368 172.078 18.847C170.948 18.8368 170.296 17.7273 170.286 15.9764ZM183.255 15.2435C183.255 14.1136 183.906 13.4214 184.924 13.4316C185.962 13.4214 186.573 14.1034 186.553 15.2435V21.4937H190.401V14.4495C190.421 12.0166 188.894 10.2963 186.553 10.2963C184.924 10.2963 183.652 11.1412 183.173 12.5154H183.051V10.4388H179.407V21.4937H183.255V15.2435Z" fill="#2D42FF"/>
<rect width="46.3276" height="28.6235" rx="2.12026" fill="#2D42FF"/>
<path fill-rule="evenodd" clip-rule="evenodd" d="M22.1396 6.49692L13.5749 6.43408L13.5156 14.5131L17.8902 14.5452C17.9733 15.7114 17.2297 18.0684 13.5567 19.3655L15.6869 22.8074C17.7164 21.9642 21.8331 19.1509 22.0642 14.6438C22.0653 14.621 22.0664 14.5983 22.0675 14.5758L22.0804 14.5759L22.1396 6.49692Z" fill="white"/>
<path fill-rule="evenodd" clip-rule="evenodd" d="M32.7432 6.49692L24.1784 6.43408L24.1191 14.5131L28.4937 14.5452C28.5768 15.7114 27.8332 18.0684 24.1602 19.3655L26.2905 22.8074C28.3199 21.9642 32.4366 19.1509 32.6677 14.6438C32.6688 14.621 32.6699 14.5983 32.671 14.5758L32.6839 14.5759L32.7432 6.49692Z" fill="white"/>
<path d="M38.0732 2.57373C38.0765 2.64417 38.0782 2.71871 38.0778 2.79665C38.1831 5.32415 40.0768 6.19495 41.1805 6.19495C38.7914 6.19495 38.0986 7.94176 38.0537 9.15409C38.0665 9.3115 38.0732 9.47718 38.0732 9.65156C38.0547 9.50252 38.0471 9.3342 38.0537 9.15409C37.8396 6.51806 35.9069 6.20077 34.7461 6.19495C37.5242 6.19495 38.0711 4.05432 38.0778 2.79665C38.0747 2.72373 38.0732 2.64943 38.0732 2.57373Z" fill="white"/>
</svg>
