<svg width="16" height="17" viewBox="0 0 16 17" fill="none" xmlns="http://www.w3.org/2000/svg">
<path d="M7.83706 3.97291L12.0577 8.31567C12.0577 8.3157 12.0578 8.31573 12.0578 8.31576C12.1771 8.43867 12.1771 8.64211 12.0582 8.76496L12.0577 8.76552C12.0029 8.82238 11.9303 8.85255 11.8553 8.85255H11.4074H11.0391V9.22078V12.3141H8.70073V10.5616C8.70073 10.2147 8.41949 9.93343 8.07258 9.93343H7.43639C7.08947 9.93343 6.80824 10.2147 6.80824 10.5616V12.3141H4.63499V9.22078V8.85255H4.26676H3.8188C3.66788 8.85255 3.52643 8.72261 3.52643 8.54058C3.52643 8.45475 3.55994 8.37381 3.61641 8.31567L7.83706 3.97291ZM7.71078 3.61086C7.67076 3.62795 7.6344 3.65301 7.60378 3.68459H8.07033C8.03972 3.65301 8.00336 3.62795 7.96333 3.61086C7.9233 3.59376 7.88039 3.58496 7.83706 3.58496C7.79372 3.58496 7.75081 3.59376 7.71078 3.61086Z" stroke="#B8B8B8" stroke-width="0.736456"/>
<rect x="0.559186" y="1.41661" width="14.8146" height="14.8146" rx="4.04709" stroke="#B8B8B8" stroke-width="0.866418"/>
</svg>
