<svg width="193" height="21" viewBox="0 0 193 21" fill="none" xmlns="http://www.w3.org/2000/svg">
<path d="M27.9766 4.83105C28.8271 4.83105 29.555 4.90723 30.1602 5.05957C30.7695 5.20768 31.235 5.42985 31.5566 5.72607C31.8783 6.01807 32.0391 6.37142 32.0391 6.78613C32.0348 7.37435 31.7301 7.83561 31.125 8.16992C30.5241 8.50423 29.665 8.69466 28.5479 8.74121V9.54102H33.1689V10.5059H22.7969V9.54102H27.3672V8.74121C26.2627 8.69043 25.41 8.49788 24.8091 8.16357C24.2082 7.82926 23.9098 7.37012 23.9141 6.78613C23.9141 6.37142 24.0728 6.01807 24.3901 5.72607C24.7118 5.42985 25.1772 5.20768 25.7866 5.05957C26.396 4.90723 27.126 4.83105 27.9766 4.83105ZM24.041 11.3564H31.8613V14.0225H25.2344V15.0381H32.1787V15.9648H24.0537V13.1592H30.668V12.2705H24.041V11.3564ZM25.1709 6.78613C25.1667 7.13737 25.4036 7.40186 25.8818 7.57959C26.3643 7.75732 27.0625 7.84831 27.9766 7.85254C28.8949 7.84831 29.5952 7.75732 30.0776 7.57959C30.5601 7.40186 30.7992 7.13737 30.7949 6.78613C30.7992 6.45182 30.5579 6.19368 30.0713 6.01172C29.5846 5.82975 28.8864 5.73665 27.9766 5.73242C27.0752 5.73665 26.3812 5.82975 25.8945 6.01172C25.4079 6.19368 25.1667 6.45182 25.1709 6.78613ZM42.8936 9.10938H44.7217V10.125H42.8936V16.0791H41.6875V4.7041H42.8936V9.10938ZM34.4639 5.65625H35.6572V8.57617H38.666V5.65625H39.8594V13.375H34.4639V5.65625ZM38.666 12.3848V9.52832H35.6572V12.3848H38.666ZM55.665 11.9277H45.2549V10.9502H55.665V11.9277ZM46.5625 5.04688H54.3574V7.9668H47.7812V9.08398H54.5859V10.0107H46.5879V7.09082H53.1514V5.99902H46.5625V5.04688ZM46.6133 12.7402H47.8193V14.8604H54.5986V15.8379H46.6133V12.7402ZM68.9062 10.7725H65.4658V13.667H70.0869V14.6572H59.6768V13.667H64.2598V10.7725H60.9209V5.64355H62.1396V9.78223H68.9062V10.7725ZM74.9238 6.76074C74.9281 7.30664 75.0381 7.83561 75.2539 8.34766C75.474 8.85547 75.7871 9.30827 76.1934 9.70605C76.6038 10.1038 77.0863 10.4085 77.6406 10.6201L76.9805 11.5596C76.3711 11.3141 75.84 10.9544 75.3872 10.4805C74.9344 10.0065 74.5853 9.45638 74.3398 8.83008C74.0902 9.50293 73.7284 10.0911 73.2544 10.5947C72.7804 11.0983 72.2155 11.4792 71.5596 11.7373L70.9121 10.7725C71.4876 10.5609 71.987 10.252 72.4102 9.8457C72.8333 9.43522 73.1592 8.96338 73.3877 8.43018C73.6162 7.89697 73.7305 7.34049 73.7305 6.76074V5.35156H74.9238V6.76074ZM72.9688 12.334H74.1875V14.8604H80.6494V15.8379H72.9688V12.334ZM76.9805 8.62695H79.1895V7.30664H76.9805V6.3291H79.1895V4.7168H80.3955V13.1846H79.1895V9.60449H76.9805V8.62695ZM95.6934 12.0928H91.0723V16.0664H89.8916V12.0928H85.3213V11.1152H95.6934V12.0928ZM85.9053 9.2998C86.6077 9.20247 87.2552 9.00993 87.8477 8.72217C88.4443 8.43018 88.9204 8.07471 89.2759 7.65576C89.6313 7.23682 89.8154 6.79883 89.8281 6.3418H86.2861V5.37695H94.7158V6.3418H91.1992C91.2035 6.79883 91.3812 7.23682 91.7324 7.65576C92.0879 8.07471 92.564 8.43018 93.1606 8.72217C93.7573 9.00993 94.4111 9.20247 95.1221 9.2998L94.6777 10.252C94.0557 10.1546 93.4696 9.9917 92.9194 9.76318C92.3693 9.53044 91.8869 9.24268 91.4722 8.8999C91.0575 8.5529 90.7358 8.16781 90.5073 7.74463C90.2788 8.16781 89.9572 8.5529 89.5425 8.8999C89.1278 9.24268 88.6475 9.53044 88.1016 9.76318C87.5557 9.9917 86.9759 10.1546 86.3623 10.252L85.9053 9.2998ZM106.967 14.6318H96.5566V13.6416H101.114V10.9375H102.308V13.6416H106.967V14.6318ZM96.9121 10.1504C97.6357 10.0277 98.3149 9.77376 98.9497 9.38867C99.5887 9.00358 100.101 8.53809 100.486 7.99219C100.871 7.44206 101.063 6.875 101.063 6.29102V5.42773H102.333V6.29102C102.333 6.875 102.526 7.44206 102.911 7.99219C103.3 8.53809 103.814 9.00358 104.453 9.38867C105.096 9.77376 105.782 10.0277 106.51 10.1504L105.989 11.1406C105.371 11.0179 104.781 10.8148 104.218 10.5312C103.66 10.2477 103.162 9.89648 102.727 9.47754C102.291 9.05436 101.95 8.58887 101.705 8.08105C101.459 8.58887 101.118 9.05225 100.683 9.47119C100.251 9.89014 99.7559 10.2435 99.1973 10.5312C98.6429 10.8148 98.0589 11.0179 97.4453 11.1406L96.9121 10.1504ZM118.189 10.8486H107.779V9.92188H118.189V10.8486ZM109.011 11.6484H116.907V14.1494H110.229V15.0889H117.263V15.9395H109.023V13.3496H115.714V12.5117H109.011V11.6484ZM109.087 4.99609H116.882V7.45898H110.306V8.32227H117.072V9.17285H109.112V6.65918H115.676V5.84668H109.087V4.99609ZM131.634 10.8105H130.428V4.7041H131.634V10.8105ZM122.43 7.86523C122.43 7.35319 122.561 6.89616 122.823 6.49414C123.086 6.09212 123.447 5.78109 123.909 5.56104C124.37 5.33675 124.888 5.22461 125.464 5.22461C126.039 5.22461 126.556 5.33675 127.013 5.56104C127.474 5.78109 127.834 6.09212 128.092 6.49414C128.354 6.89616 128.485 7.35319 128.485 7.86523C128.485 8.37728 128.354 8.83431 128.092 9.23633C127.834 9.63411 127.474 9.94515 127.013 10.1694C126.556 10.3895 126.039 10.4974 125.464 10.4932C124.888 10.4974 124.37 10.3895 123.909 10.1694C123.447 9.94515 123.086 9.63411 122.823 9.23633C122.561 8.83431 122.43 8.37728 122.43 7.86523ZM123.61 7.86523C123.61 8.18685 123.689 8.47249 123.845 8.72217C124.002 8.96761 124.222 9.16016 124.505 9.2998C124.789 9.43522 125.108 9.50293 125.464 9.50293C125.815 9.50293 126.13 9.43522 126.41 9.2998C126.689 9.16016 126.907 8.96761 127.063 8.72217C127.224 8.47249 127.305 8.18685 127.305 7.86523C127.305 7.54785 127.224 7.26644 127.063 7.021C126.907 6.77132 126.689 6.57878 126.41 6.44336C126.13 6.30794 125.815 6.24023 125.464 6.24023C125.108 6.24023 124.789 6.30794 124.505 6.44336C124.222 6.57878 124.002 6.77132 123.845 7.021C123.689 7.26644 123.61 7.54785 123.61 7.86523ZM124.194 11.3564H125.375V12.6387H130.44V11.3564H131.634V15.9395H124.194V11.3564ZM130.44 14.9492V13.5908H125.375V14.9492H130.44ZM138.857 8.70312H135.1V10.2773C136.145 10.2773 136.976 10.2604 137.594 10.2266C138.212 10.1885 138.828 10.1123 139.441 9.99805L139.556 10.9756C138.896 11.0856 138.229 11.1597 137.556 11.1978C136.883 11.2316 135.942 11.2507 134.731 11.2549H133.906V7.78906H137.651V6.35449H133.894V5.38965H138.857V8.70312ZM135.201 12.2832H142.92V16.0918H141.714V13.2607H135.201V12.2832ZM139.581 8.74121H141.714V7.33203H139.581V6.36719H141.714V4.7168H142.92V11.7119H141.714V9.70605H139.581V8.74121ZM150.296 7.56055H144.646V6.58301H146.881V5.03418H148.074V6.58301H150.296V7.56055ZM145.015 10.8613C145.015 10.3577 145.118 9.90706 145.326 9.50928C145.537 9.11149 145.831 8.80257 146.208 8.58252C146.585 8.35824 147.008 8.24609 147.478 8.24609C147.951 8.24609 148.375 8.35824 148.747 8.58252C149.124 8.80257 149.418 9.11149 149.629 9.50928C149.845 9.90706 149.953 10.3577 149.953 10.8613C149.953 11.3734 149.845 11.8304 149.629 12.2324C149.418 12.6344 149.124 12.9476 148.747 13.1719C148.375 13.3919 147.951 13.502 147.478 13.502C147.008 13.502 146.585 13.3919 146.208 13.1719C145.831 12.9476 145.537 12.6344 145.326 12.2324C145.118 11.8304 145.015 11.3734 145.015 10.8613ZM146.081 10.8613C146.081 11.1787 146.14 11.4601 146.259 11.7056C146.377 11.9468 146.542 12.1351 146.754 12.2705C146.965 12.4059 147.207 12.4736 147.478 12.4736C147.748 12.4736 147.99 12.4059 148.201 12.2705C148.417 12.1351 148.584 11.9468 148.703 11.7056C148.825 11.4601 148.887 11.1787 148.887 10.8613C148.887 10.5524 148.825 10.2752 148.703 10.0298C148.584 9.78434 148.417 9.59391 148.201 9.4585C147.99 9.31885 147.748 9.24902 147.478 9.24902C147.207 9.24902 146.965 9.31885 146.754 9.4585C146.542 9.59391 146.377 9.78434 146.259 10.0298C146.14 10.2752 146.081 10.5524 146.081 10.8613ZM150.816 4.95801H151.959V9.43945H153.267V4.7041H154.409V16.0791H153.267V10.4297H151.959V15.5459H150.816V4.95801ZM166.279 12.0928H161.658V16.0664H160.478V12.0928H155.907V11.1152H166.279V12.0928ZM156.491 9.2998C157.194 9.20247 157.841 9.00993 158.434 8.72217C159.03 8.43018 159.506 8.07471 159.862 7.65576C160.217 7.23682 160.401 6.79883 160.414 6.3418H156.872V5.37695H165.302V6.3418H161.785C161.789 6.79883 161.967 7.23682 162.318 7.65576C162.674 8.07471 163.15 8.43018 163.747 8.72217C164.343 9.00993 164.997 9.20247 165.708 9.2998L165.264 10.252C164.642 10.1546 164.056 9.9917 163.505 9.76318C162.955 9.53044 162.473 9.24268 162.058 8.8999C161.643 8.5529 161.322 8.16781 161.093 7.74463C160.865 8.16781 160.543 8.5529 160.128 8.8999C159.714 9.24268 159.233 9.53044 158.688 9.76318C158.142 9.9917 157.562 10.1546 156.948 10.252L156.491 9.2998ZM170.608 7.81445C170.608 8.43229 170.695 9.04378 170.869 9.64893C171.042 10.2498 171.3 10.8 171.643 11.2993C171.986 11.7987 172.403 12.1986 172.894 12.499L172.221 13.4258C171.704 13.1169 171.262 12.6958 170.894 12.1626C170.53 11.6252 170.247 11.0158 170.043 10.3345C169.832 11.075 169.529 11.7352 169.136 12.3149C168.746 12.8947 168.281 13.3496 167.739 13.6797L166.99 12.7783C167.511 12.4652 167.955 12.0483 168.323 11.5278C168.696 11.0073 168.975 10.4318 169.161 9.80127C169.352 9.1665 169.445 8.52116 169.44 7.86523V5.74512H170.608V7.81445ZM171.662 8.70312H173.427V4.91992H174.569V15.5205H173.427V9.70605H171.662V8.70312ZM175.775 4.7041H176.931V16.0791H175.775V4.7041ZM188.788 14.6572H178.378V13.6543H180.866V10.6836C180.388 10.4212 180.018 10.089 179.755 9.68701C179.493 9.28499 179.364 8.83431 179.368 8.33496C179.368 7.74674 179.546 7.22835 179.901 6.77979C180.257 6.33122 180.752 5.98421 181.387 5.73877C182.026 5.4891 182.749 5.36426 183.558 5.36426C184.366 5.36426 185.09 5.4891 185.729 5.73877C186.368 5.98421 186.865 6.33122 187.22 6.77979C187.58 7.22835 187.76 7.74674 187.76 8.33496C187.76 8.83008 187.633 9.27653 187.379 9.67432C187.125 10.0679 186.765 10.3958 186.3 10.6582V13.6543H188.788V14.6572ZM180.536 8.33496C180.536 8.73698 180.663 9.09033 180.917 9.39502C181.171 9.69971 181.526 9.93669 181.983 10.106C182.44 10.271 182.965 10.3535 183.558 10.3535C184.146 10.3535 184.668 10.2689 185.125 10.0996C185.587 9.93034 185.946 9.69548 186.205 9.39502C186.463 9.09033 186.592 8.73698 186.592 8.33496C186.592 7.93294 186.463 7.58171 186.205 7.28125C185.946 6.97656 185.587 6.7417 185.125 6.57666C184.668 6.41162 184.146 6.3291 183.558 6.3291C182.965 6.3291 182.44 6.41162 181.983 6.57666C181.526 6.7417 181.171 6.97656 180.917 7.28125C180.663 7.58171 180.536 7.93294 180.536 8.33496ZM185.081 13.6543V11.1279C184.607 11.238 184.099 11.293 183.558 11.293C183.024 11.293 182.525 11.238 182.06 11.1279V13.6543H185.081ZM190.908 15.0889C190.747 15.0889 190.597 15.0487 190.458 14.9683C190.322 14.8879 190.212 14.7799 190.127 14.6445C190.047 14.5091 190.007 14.361 190.007 14.2002C190.007 14.0352 190.047 13.8828 190.127 13.7432C190.208 13.6035 190.316 13.4935 190.451 13.4131C190.591 13.3285 190.743 13.2861 190.908 13.2861C191.069 13.2861 191.217 13.3263 191.353 13.4067C191.492 13.4871 191.602 13.5972 191.683 13.7368C191.767 13.8765 191.81 14.0267 191.81 14.1875C191.81 14.3483 191.767 14.4985 191.683 14.6382C191.602 14.7736 191.492 14.8836 191.353 14.9683C191.217 15.0487 191.069 15.0889 190.908 15.0889Z" fill="#FF6B6B"/>
<path d="M8 3C10.1217 3 12.1566 3.84285 13.6569 5.34315C15.1571 6.84344 16 8.87827 16 11C16 13.1217 15.1571 15.1566 13.6569 16.6569C12.1566 18.1571 10.1217 19 8 19C5.87827 19 3.84344 18.1571 2.34315 16.6569C0.842855 15.1566 0 13.1217 0 11C0 8.87827 0.842855 6.84344 2.34315 5.34315C3.84344 3.84285 5.87827 3 8 3ZM8 6.42857C7.8549 6.42845 7.71138 6.45859 7.57858 6.51706C7.44579 6.57554 7.32666 6.66107 7.22879 6.76819C7.13092 6.87531 7.05646 7.00166 7.01018 7.13918C6.9639 7.2767 6.94681 7.42236 6.96 7.56686L7.37714 12.1451C7.39332 12.2991 7.46591 12.4416 7.58093 12.5451C7.69594 12.6487 7.84523 12.706 8 12.706C8.15477 12.706 8.30406 12.6487 8.41908 12.5451C8.53409 12.4416 8.60669 12.2991 8.62286 12.1451L9.03886 7.56686C9.05204 7.42246 9.03498 7.27689 8.98877 7.13945C8.94256 7.00201 8.8682 6.87572 8.77046 6.76861C8.67271 6.66151 8.55371 6.57596 8.42106 6.51741C8.2884 6.45886 8.145 6.42861 8 6.42857ZM8 15.5714C8.24248 15.5714 8.47504 15.4751 8.6465 15.3036C8.81796 15.1322 8.91429 14.8996 8.91429 14.6571C8.91429 14.4147 8.81796 14.1821 8.6465 14.0106C8.47504 13.8392 8.24248 13.7429 8 13.7429C7.75752 13.7429 7.52496 13.8392 7.3535 14.0106C7.18204 14.1821 7.08571 14.4147 7.08571 14.6571C7.08571 14.8996 7.18204 15.1322 7.3535 15.3036C7.52496 15.4751 7.75752 15.5714 8 15.5714Z" fill="#FF6B6B"/>
</svg>
