<svg width="31" height="31" viewBox="0 0 31 31" fill="none" xmlns="http://www.w3.org/2000/svg">
<circle cx="15.5" cy="15.5" r="15.5" fill="#2D42FF"/>
<path d="M14.8056 8.47474C15.0456 7.84175 15.9538 7.84175 16.1946 8.47474L17.747 12.7752C17.8011 12.9153 17.8965 13.0356 18.0205 13.1204C18.1445 13.2052 18.2913 13.2503 18.4415 13.2499H22.2565C22.9615 13.2499 23.269 14.1274 22.7148 14.5572L19.9999 16.9999C19.8783 17.0934 19.7894 17.223 19.746 17.3701C19.7026 17.5172 19.707 17.6743 19.7584 17.8189L20.7499 22.021C20.9913 22.696 20.2099 23.2758 19.6189 22.8603L15.9313 20.5203C15.805 20.4316 15.6544 20.3839 15.5001 20.3839C15.3457 20.3839 15.1951 20.4316 15.0689 20.5203L11.3813 22.8603C10.791 23.2758 10.0088 22.6953 10.2503 22.021L11.2418 17.8189C11.2932 17.6743 11.2975 17.5172 11.2542 17.3701C11.2108 17.223 11.1219 17.0934 11.0003 16.9999L8.28541 14.5572C7.73044 14.1274 8.03942 13.2499 8.74289 13.2499H12.558C12.7082 13.2504 12.855 13.2053 12.979 13.1205C13.103 13.0358 13.1984 12.9153 13.2524 12.7752L14.8049 8.47474H14.8056Z" stroke="white" stroke-width="1.5" stroke-linecap="round" stroke-linejoin="round"/>
</svg>
