<svg width="278" height="149" viewBox="0 0 278 149" fill="none" xmlns="http://www.w3.org/2000/svg">
<g filter="url(#filter0_d_494_614)">
<rect x="3" y="2" width="272" height="143" rx="5" fill="black"/>
</g>
<path d="M26.4844 23.7969C27.1823 23.8021 27.8099 23.9401 28.3672 24.2109C28.9245 24.4766 29.362 24.8464 29.6797 25.3203C29.9974 25.7943 30.1562 26.3333 30.1562 26.9375C30.1562 27.5417 29.9974 28.0807 29.6797 28.5547C29.362 29.0286 28.9245 29.3984 28.3672 29.6641C27.8099 29.9297 27.1823 30.0625 26.4844 30.0625C25.7812 30.0625 25.1484 29.9297 24.5859 29.6641C24.0286 29.3984 23.5911 29.0286 23.2734 28.5547C22.9557 28.0807 22.7969 27.5417 22.7969 26.9375C22.7969 26.3333 22.9557 25.7943 23.2734 25.3203C23.5911 24.8464 24.0286 24.4766 24.5859 24.2109C25.1484 23.9401 25.7812 23.8021 26.4844 23.7969ZM24.25 26.9375C24.25 27.3177 24.3438 27.6536 24.5312 27.9453C24.724 28.2318 24.9896 28.4557 25.3281 28.6172C25.6719 28.7786 26.0573 28.8594 26.4844 28.8594C26.9115 28.8594 27.2943 28.7786 27.6328 28.6172C27.9714 28.4557 28.237 28.2318 28.4297 27.9453C28.6224 27.6536 28.7188 27.3177 28.7188 26.9375C28.7188 26.5625 28.6224 26.2318 28.4297 25.9453C28.237 25.6536 27.9688 25.4297 27.625 25.2734C27.2865 25.1172 26.9062 25.0417 26.4844 25.0469C26.0573 25.0417 25.6719 25.1172 25.3281 25.2734C24.9896 25.4297 24.724 25.6536 24.5312 25.9453C24.3438 26.2318 24.25 26.5625 24.25 26.9375ZM24.9219 31.0938H34.125V34.625H26.4062V35.9688H34.5938V37.1562H24.9688V33.5156H32.6562V32.2812H24.9219V31.0938ZM32.6406 23.3281H34.125V30.4531H32.6406V23.3281ZM42.1587 23.5625C43.2108 23.5625 44.1093 23.6536 44.8541 23.8359C45.5989 24.0182 46.1692 24.2917 46.565 24.6562C46.9608 25.0156 47.1587 25.4531 47.1587 25.9688C47.1587 26.4896 46.9608 26.9323 46.565 27.2969C46.1692 27.6562 45.5989 27.9297 44.8541 28.1172C44.1093 28.2995 43.2108 28.3906 42.1587 28.3906C41.1067 28.3906 40.2056 28.2995 39.4556 28.1172C38.7108 27.9297 38.1405 27.6562 37.7447 27.2969C37.3541 26.9323 37.1587 26.4896 37.1587 25.9688C37.1587 25.4531 37.3541 25.0156 37.7447 24.6562C38.1405 24.2917 38.7108 24.0182 39.4556 23.8359C40.2056 23.6536 41.1067 23.5625 42.1587 23.5625ZM35.7837 29.25H48.5494V30.4375H35.7837V29.25ZM37.315 31.5156H46.94V34.7969H38.7837V36.0469H47.3306V37.1875H37.3306V33.7188H45.4712V32.625H37.315V31.5156ZM38.7056 25.9688C38.7004 26.401 38.9947 26.7292 39.5884 26.9531C40.1822 27.1719 41.039 27.2812 42.1587 27.2812C43.289 27.2812 44.1509 27.1719 44.7447 26.9531C45.3384 26.7292 45.6327 26.401 45.6275 25.9688C45.6327 25.5521 45.3332 25.2292 44.7291 25C44.1301 24.7708 43.2733 24.6562 42.1587 24.6562C41.0494 24.6562 40.1952 24.7708 39.5962 25C38.9973 25.2292 38.7004 25.5521 38.7056 25.9688ZM63.3044 29H65.5544V30.2344H63.3044V37.3281H61.8356V23.3281H63.3044V29ZM52.32 25.5156H55.7731V23.5156H57.2575V25.5156H60.6169V26.7344H52.32V25.5156ZM53.0387 31.0156C53.0387 30.3906 53.1872 29.8307 53.4841 29.3359C53.7861 28.8411 54.2002 28.4557 54.7262 28.1797C55.2575 27.9036 55.8565 27.7656 56.5231 27.7656C57.1846 27.7656 57.7783 27.9036 58.3044 28.1797C58.8356 28.4557 59.2523 28.8411 59.5544 29.3359C59.8565 29.8307 60.0075 30.3906 60.0075 31.0156C60.0075 31.6458 59.8565 32.2083 59.5544 32.7031C59.2523 33.1979 58.8356 33.5859 58.3044 33.8672C57.7783 34.1432 57.1846 34.2812 56.5231 34.2812C55.8565 34.2812 55.2575 34.1432 54.7262 33.8672C54.2002 33.5859 53.7861 33.1979 53.4841 32.7031C53.1872 32.2083 53.0387 31.6458 53.0387 31.0156ZM54.4606 31.0156C54.4606 31.4167 54.5466 31.7708 54.7184 32.0781C54.8955 32.3854 55.1403 32.6224 55.4528 32.7891C55.7705 32.9557 56.1273 33.0365 56.5231 33.0312C56.9137 33.0365 57.2653 32.9557 57.5778 32.7891C57.8903 32.6224 58.1351 32.3854 58.3122 32.0781C58.4945 31.7708 58.5856 31.4167 58.5856 31.0156C58.5856 30.625 58.4945 30.276 58.3122 29.9688C58.1351 29.6615 57.8903 29.4219 57.5778 29.25C57.2653 29.0729 56.9137 28.9844 56.5231 28.9844C56.1273 28.9844 55.7705 29.0729 55.4528 29.25C55.1403 29.4219 54.8955 29.6615 54.7184 29.9688C54.5466 30.276 54.4606 30.625 54.4606 31.0156ZM76.9944 28.6094H67.3537V23.8281H68.8225V27.4219H76.9944V28.6094ZM65.6506 30.375H78.4631V31.5625H65.6506V30.375ZM67.2444 32.8906H68.7287V35.7812H77.0881V37H67.2444V32.8906ZM93.4369 25.0156V25.4375C93.4369 26.026 93.4134 26.5938 93.3666 27.1406C93.3197 27.6875 93.2285 28.2812 93.0931 28.9219L91.6244 28.7656C91.7702 28.0885 91.864 27.4818 91.9056 26.9453C91.9473 26.4036 91.9681 25.8125 91.9681 25.1719H83.7806V24H93.4369V25.0156ZM82.2962 29.8125H87.4056V27.0625H88.8587V29.8125H95.0306V31H82.2962V29.8125ZM83.1712 36.1094C84.0671 35.9896 84.8692 35.7604 85.5775 35.4219C86.291 35.0833 86.8483 34.6693 87.2494 34.1797C87.6556 33.6901 87.8587 33.1615 87.8587 32.5938V32.0312H89.3587V32.5938C89.3587 33.1615 89.5593 33.6901 89.9603 34.1797C90.3614 34.6693 90.9186 35.0833 91.6322 35.4219C92.3509 35.7604 93.166 35.9896 94.0775 36.1094L93.515 37.2656C92.3952 37.0938 91.403 36.7682 90.5384 36.2891C89.6739 35.8151 89.0306 35.224 88.6087 34.5156C88.1817 35.224 87.5358 35.8151 86.6712 36.2891C85.8119 36.7682 84.8223 37.0938 83.7025 37.2656L83.1712 36.1094ZM107.596 37.3281H106.174V23.3281H107.596V37.3281ZM95.705 29.375C95.705 28.375 95.8274 27.5052 96.0722 26.7656C96.3222 26.0208 96.6738 25.4505 97.1269 25.0547C97.5852 24.6536 98.1165 24.4531 98.7206 24.4531C99.2831 24.4531 99.7805 24.6224 100.213 24.9609C100.65 25.2995 100.999 25.7891 101.26 26.4297C101.525 27.0651 101.687 27.8177 101.744 28.6875H103.33V23.5938H104.752V36.6406H103.33V29.8906H101.752C101.71 30.7969 101.559 31.5833 101.299 32.25C101.038 32.9115 100.687 33.4219 100.244 33.7812C99.8014 34.1354 99.2935 34.3125 98.7206 34.3125C98.1165 34.3125 97.5852 34.1146 97.1269 33.7188C96.6738 33.3177 96.3222 32.7448 96.0722 32C95.8274 31.25 95.705 30.375 95.705 29.375ZM97.08 29.375C97.08 30.1094 97.1451 30.7422 97.2753 31.2734C97.4107 31.8047 97.6008 32.2109 97.8456 32.4922C98.0956 32.7682 98.3873 32.9062 98.7206 32.9062C99.0644 32.9062 99.3613 32.7682 99.6113 32.4922C99.8613 32.2109 100.054 31.8047 100.189 31.2734C100.325 30.7422 100.393 30.1094 100.393 29.375C100.393 28.6354 100.325 28.0026 100.189 27.4766C100.054 26.9453 99.8613 26.5417 99.6113 26.2656C99.3613 25.9844 99.0644 25.8438 98.7206 25.8438C98.3873 25.8438 98.0956 25.9844 97.8456 26.2656C97.6008 26.5417 97.4107 26.9453 97.2753 27.4766C97.1451 28.0078 97.08 28.6406 97.08 29.375ZM113.864 26.8906C113.864 27.7396 114.012 28.5729 114.309 29.3906C114.611 30.2031 115.033 30.9245 115.575 31.5547C116.116 32.1849 116.739 32.6562 117.442 32.9688L116.536 34.1562C115.754 33.7604 115.069 33.1901 114.481 32.4453C113.892 31.6953 113.442 30.8359 113.129 29.8672C112.817 30.8932 112.361 31.8073 111.762 32.6094C111.168 33.4062 110.473 34.0104 109.676 34.4219L108.739 33.2188C109.447 32.8802 110.075 32.3802 110.622 31.7188C111.174 31.0521 111.601 30.2969 111.903 29.4531C112.21 28.6042 112.364 27.75 112.364 26.8906V24.5H113.864V26.8906ZM115.895 27.9844H119.02V23.3281H120.489V37.3594H119.02V29.1875H115.895V27.9844ZM126.647 24.3281C127.377 24.3281 128.03 24.4688 128.608 24.75C129.187 25.026 129.64 25.4193 129.968 25.9297C130.296 26.4349 130.46 27.0104 130.46 27.6562C130.46 28.3021 130.296 28.8802 129.968 29.3906C129.64 29.8958 129.187 30.2917 128.608 30.5781C128.03 30.8594 127.377 31 126.647 31C125.918 31 125.262 30.8594 124.679 30.5781C124.101 30.2917 123.647 29.8958 123.319 29.3906C122.996 28.8802 122.835 28.3021 122.835 27.6562C122.835 27.0104 122.996 26.4349 123.319 25.9297C123.647 25.4245 124.101 25.0312 124.679 24.75C125.262 24.4688 125.918 24.3281 126.647 24.3281ZM122.163 33.1094C123.924 33.1094 125.549 33.0807 127.038 33.0234C128.528 32.9661 129.95 32.8385 131.304 32.6406L131.413 33.7188C130.017 33.9896 128.598 34.1615 127.155 34.2344C125.718 34.3073 124.116 34.3438 122.351 34.3438L122.163 33.1094ZM124.304 27.6562C124.299 28.0625 124.395 28.4219 124.593 28.7344C124.796 29.0417 125.075 29.2812 125.429 29.4531C125.788 29.6198 126.194 29.7031 126.647 29.7031C127.101 29.7031 127.504 29.6198 127.858 29.4531C128.218 29.2812 128.499 29.0417 128.702 28.7344C128.905 28.4219 129.007 28.0625 129.007 27.6562C129.007 27.2552 128.905 26.901 128.702 26.5938C128.499 26.2812 128.218 26.0391 127.858 25.8672C127.499 25.6953 127.095 25.6094 126.647 25.6094C126.194 25.6094 125.788 25.6953 125.429 25.8672C125.075 26.0391 124.796 26.2812 124.593 26.5938C124.395 26.901 124.299 27.2552 124.304 27.6562ZM132.179 23.3281H133.663V37.3594H132.179V23.3281ZM35.5938 52.0469H33.4219V59.3125H31.9375V45.3281H33.4219V50.8281H35.5938V52.0469ZM23.0469 46.6875H24.5156V54.5625C26.6562 54.5521 28.7292 54.3438 30.7344 53.9375L30.9062 55.1875C29.7708 55.4115 28.6536 55.5703 27.5547 55.6641C26.4557 55.7578 25.3385 55.8021 24.2031 55.7969H23.0469V46.6875ZM47.1119 50.6094H37.4712V45.8281H38.94V49.4219H47.1119V50.6094ZM35.7681 52.375H48.5806V53.5625H35.7681V52.375ZM37.3619 54.8906H38.8462V57.7812H47.2056V59H37.3619V54.8906ZM56.195 46.375C56.8252 46.375 57.3929 46.5469 57.8981 46.8906C58.4033 47.2344 58.8122 47.7214 59.1247 48.3516C59.4424 48.9818 59.6377 49.724 59.7106 50.5781H62.6012V45.3281H64.07V59.3594H62.6012V51.7812H59.7262C59.6742 52.6823 59.4919 53.4661 59.1794 54.1328C58.8669 54.7995 58.4528 55.3125 57.9372 55.6719C57.4216 56.026 56.8408 56.2031 56.195 56.2031C55.5023 56.2031 54.8851 56.0026 54.3434 55.6016C53.807 55.2005 53.3877 54.6276 53.0856 53.8828C52.7887 53.138 52.6429 52.2708 52.6481 51.2812C52.6429 50.3021 52.7887 49.4427 53.0856 48.7031C53.3877 47.9583 53.807 47.3854 54.3434 46.9844C54.8851 46.5781 55.5023 46.375 56.195 46.375ZM54.0544 51.2812C54.0544 52.0104 54.1429 52.6458 54.32 53.1875C54.5023 53.7292 54.7549 54.1458 55.0778 54.4375C55.4007 54.7292 55.7731 54.875 56.195 54.875C56.6169 54.875 56.9893 54.7292 57.3122 54.4375C57.6351 54.1458 57.8851 53.7292 58.0622 53.1875C58.2445 52.6458 58.3356 52.0104 58.3356 51.2812C58.3356 50.5625 58.2445 49.9349 58.0622 49.3984C57.8799 48.8568 57.6273 48.4401 57.3044 48.1484C56.9867 47.8516 56.6169 47.7031 56.195 47.7031C55.7731 47.7031 55.4007 47.8516 55.0778 48.1484C54.7601 48.4401 54.5101 48.8568 54.3278 49.3984C54.1455 49.9349 54.0544 50.5625 54.0544 51.2812ZM77.8381 59.0312H67.9631V54.6406H69.4475V57.8281H77.8381V59.0312ZM66.01 46.4531H69.5881V47.6562H67.4475V52.125C68.2496 52.099 69.01 52.0052 69.7287 51.8438L69.8537 53.0625C69.3069 53.1823 68.7991 53.2578 68.3303 53.2891C67.8668 53.3151 67.3017 53.3281 66.635 53.3281H66.01V46.4531ZM70.3381 46.4531H74.2444V47.6562H71.8069V52.1328C72.4006 52.1224 72.9189 52.0964 73.3616 52.0547C73.8043 52.0078 74.2496 51.9323 74.6975 51.8281L74.8537 53.0312C74.2912 53.1562 73.7418 53.237 73.2053 53.2734C72.6689 53.3099 71.9527 53.3281 71.0569 53.3281H70.3381V46.4531ZM73.635 49.1406H76.01V45.3438H77.4631V55.5H76.01V50.3438H73.635V49.1406ZM87.14 48.8906C87.1348 49.7083 87.2806 50.5182 87.5775 51.3203C87.8744 52.1224 88.291 52.8411 88.8275 53.4766C89.364 54.1068 89.9733 54.5885 90.6556 54.9219L89.7337 56.1094C88.9837 55.7135 88.3197 55.1484 87.7416 54.4141C87.1686 53.6745 86.7259 52.8307 86.4134 51.8828C86.0957 52.8932 85.6374 53.7943 85.0384 54.5859C84.4447 55.3724 83.7546 55.9688 82.9681 56.375L82.0462 55.1719C82.7494 54.8333 83.3744 54.3333 83.9212 53.6719C84.4681 53.0104 84.8926 52.2604 85.1947 51.4219C85.502 50.5833 85.6556 49.7396 85.6556 48.8906V46.5H87.14V48.8906ZM91.7025 45.3281H93.1869V50.9062H95.4369V52.1719H93.1869V59.3281H91.7025V45.3281ZM106.549 48.8281H108.596V50.0781H106.549V53.6719H105.064V45.3438H106.549V48.8281ZM96.1113 46.0781H102.486V50.0312H97.6113V51.7812C98.929 51.776 100.049 51.7448 100.971 51.6875C101.893 51.6302 102.835 51.5208 103.799 51.3594L103.955 52.5469C102.929 52.7344 101.916 52.8594 100.916 52.9219C99.9211 52.9844 98.6998 53.0156 97.2519 53.0156H96.1269V48.9062H101.033V47.2656H96.1113V46.0781ZM97.58 54.3281H106.549V59.1562H97.58V54.3281ZM105.111 57.9531V55.4844H99.0331V57.9531H105.111ZM120.426 55.5156H118.942V45.3438H120.426V55.5156ZM109.098 49.75C109.098 49.0885 109.262 48.4948 109.59 47.9688C109.918 47.4427 110.366 47.0312 110.934 46.7344C111.502 46.4323 112.135 46.2812 112.832 46.2812C113.53 46.2812 114.161 46.4323 114.723 46.7344C115.291 47.0312 115.736 47.4427 116.059 47.9688C116.387 48.4948 116.551 49.0885 116.551 49.75C116.551 50.4219 116.387 51.0234 116.059 51.5547C115.736 52.0807 115.291 52.4922 114.723 52.7891C114.161 53.0859 113.53 53.2344 112.832 53.2344C112.135 53.2344 111.502 53.0859 110.934 52.7891C110.366 52.4922 109.918 52.0807 109.59 51.5547C109.262 51.0234 109.098 50.4219 109.098 49.75ZM110.551 49.75C110.551 50.1823 110.648 50.5651 110.84 50.8984C111.038 51.2266 111.312 51.4818 111.661 51.6641C112.01 51.8464 112.4 51.9375 112.832 51.9375C113.26 51.9375 113.645 51.8464 113.989 51.6641C114.332 51.4818 114.603 51.2266 114.801 50.8984C114.999 50.5651 115.098 50.1823 115.098 49.75C115.098 49.3281 114.999 48.9531 114.801 48.625C114.603 48.2917 114.332 48.0339 113.989 47.8516C113.645 47.6693 113.26 47.5781 112.832 47.5781C112.4 47.5781 112.01 47.6693 111.661 47.8516C111.312 48.0339 111.038 48.2917 110.84 48.625C110.648 48.9531 110.551 49.3281 110.551 49.75ZM111.27 54.4844H112.77V57.8281H120.848V59.0312H111.27V54.4844ZM132.991 50.9062H135.163V52.1406H132.991V59.3125H131.507V45.3281H132.991V50.9062ZM122.101 55.5781C123.851 54.7031 125.202 53.6354 126.155 52.375C127.114 51.1146 127.668 49.6667 127.819 48.0312H122.804V46.7969H129.335C129.325 48.9323 128.806 50.8516 127.78 52.5547C126.754 54.2526 125.137 55.6458 122.929 56.7344L122.101 55.5781ZM148.166 57.5781H135.353V56.3438H138.416V52.6875C137.827 52.3646 137.371 51.9557 137.048 51.4609C136.726 50.9661 136.567 50.4115 136.572 49.7969C136.572 49.0729 136.791 48.4349 137.228 47.8828C137.666 47.3307 138.275 46.9036 139.056 46.6016C139.843 46.2943 140.733 46.1406 141.728 46.1406C142.723 46.1406 143.614 46.2943 144.4 46.6016C145.186 46.9036 145.798 47.3307 146.236 47.8828C146.679 48.4349 146.9 49.0729 146.9 49.7969C146.9 50.4062 146.744 50.9557 146.431 51.4453C146.119 51.9297 145.676 52.3333 145.103 52.6562V56.3438H148.166V57.5781ZM138.009 49.7969C138.009 50.2917 138.166 50.7266 138.478 51.1016C138.791 51.4766 139.228 51.7682 139.791 51.9766C140.353 52.1797 140.999 52.2812 141.728 52.2812C142.452 52.2812 143.095 52.1771 143.658 51.9688C144.226 51.7604 144.668 51.4714 144.986 51.1016C145.304 50.7266 145.463 50.2917 145.463 49.7969C145.463 49.3021 145.304 48.8698 144.986 48.5C144.668 48.125 144.226 47.8359 143.658 47.6328C143.095 47.4297 142.452 47.3281 141.728 47.3281C140.999 47.3281 140.353 47.4297 139.791 47.6328C139.228 47.8359 138.791 48.125 138.478 48.5C138.166 48.8698 138.009 49.3021 138.009 49.7969ZM143.603 56.3438V53.2344C143.02 53.3698 142.395 53.4375 141.728 53.4375C141.072 53.4375 140.457 53.3698 139.884 53.2344V56.3438H143.603ZM150.918 54.6406C150.923 53.9844 150.988 53.4531 151.113 53.0469C151.244 52.6354 151.423 52.3073 151.652 52.0625C151.882 51.8125 152.189 51.5677 152.574 51.3281C153.345 50.8594 153.731 50.2604 153.731 49.5312C153.731 49.2135 153.655 48.9349 153.504 48.6953C153.358 48.4505 153.155 48.263 152.895 48.1328C152.639 48.0026 152.356 47.9375 152.043 47.9375C151.751 47.9375 151.478 48 151.223 48.125C150.968 48.2448 150.757 48.4297 150.59 48.6797C150.423 48.9297 150.33 49.2396 150.309 49.6094H148.621C148.642 48.9635 148.804 48.4089 149.106 47.9453C149.413 47.4818 149.822 47.1302 150.332 46.8906C150.843 46.651 151.413 46.5312 152.043 46.5312C152.71 46.5312 153.298 46.6589 153.809 46.9141C154.324 47.1641 154.723 47.5156 155.004 47.9688C155.291 48.4219 155.434 48.9427 155.434 49.5312C155.434 50.1354 155.298 50.6589 155.027 51.1016C154.757 51.5391 154.361 51.9167 153.84 52.2344C153.517 52.4323 153.262 52.6354 153.074 52.8438C152.887 53.0469 152.746 53.2917 152.652 53.5781C152.564 53.8646 152.517 54.2188 152.512 54.6406V54.7344H150.918V54.6406ZM150.668 57.0156C150.668 56.8125 150.718 56.625 150.817 56.4531C150.916 56.2812 151.048 56.1458 151.215 56.0469C151.387 55.9427 151.574 55.8906 151.777 55.8906C151.975 55.8906 152.158 55.9401 152.324 56.0391C152.496 56.138 152.632 56.2734 152.731 56.4453C152.835 56.6172 152.887 56.8021 152.887 57C152.887 57.1979 152.835 57.3828 152.731 57.5547C152.632 57.7214 152.496 57.8568 152.324 57.9609C152.158 58.0599 151.975 58.1094 151.777 58.1094C151.58 58.1094 151.395 58.0599 151.223 57.9609C151.056 57.862 150.921 57.7292 150.817 57.5625C150.718 57.3958 150.668 57.2135 150.668 57.0156ZM35.5938 74.0469H33.4219V81.3125H31.9375V67.3281H33.4219V72.8281H35.5938V74.0469ZM23.0469 68.6875H24.5156V76.5625C26.6562 76.5521 28.7292 76.3438 30.7344 75.9375L30.9062 77.1875C29.7708 77.4115 28.6536 77.5703 27.5547 77.6641C26.4557 77.7578 25.3385 77.8021 24.2031 77.7969H23.0469V68.6875ZM40.3462 68.3281C41.0754 68.3281 41.7291 68.4688 42.3072 68.75C42.8853 69.026 43.3384 69.4193 43.6666 69.9297C43.9947 70.4349 44.1587 71.0104 44.1587 71.6562C44.1587 72.3021 43.9947 72.8802 43.6666 73.3906C43.3384 73.8958 42.8853 74.2917 42.3072 74.5781C41.7291 74.8594 41.0754 75 40.3462 75C39.6171 75 38.9608 74.8594 38.3775 74.5781C37.7994 74.2917 37.3462 73.8958 37.0181 73.3906C36.6952 72.8802 36.5337 72.3021 36.5337 71.6562C36.5337 71.0104 36.6952 70.4349 37.0181 69.9297C37.3462 69.4245 37.7994 69.0312 38.3775 68.75C38.9608 68.4688 39.6171 68.3281 40.3462 68.3281ZM35.8619 77.1094C37.6223 77.1094 39.2473 77.0807 40.7369 77.0234C42.2265 76.9661 43.6483 76.8385 45.0025 76.6406L45.1119 77.7188C43.716 77.9896 42.2968 78.1615 40.8541 78.2344C39.4166 78.3073 37.815 78.3438 36.0494 78.3438L35.8619 77.1094ZM38.0025 71.6562C37.9973 72.0625 38.0936 72.4219 38.2916 72.7344C38.4947 73.0417 38.7733 73.2812 39.1275 73.4531C39.4869 73.6198 39.8931 73.7031 40.3462 73.7031C40.7994 73.7031 41.203 73.6198 41.5572 73.4531C41.9166 73.2812 42.1978 73.0417 42.4009 72.7344C42.6041 72.4219 42.7056 72.0625 42.7056 71.6562C42.7056 71.2552 42.6041 70.901 42.4009 70.5938C42.1978 70.2812 41.9166 70.0391 41.5572 69.8672C41.1978 69.6953 40.7942 69.6094 40.3462 69.6094C39.8931 69.6094 39.4869 69.6953 39.1275 69.8672C38.7733 70.0391 38.4947 70.2812 38.2916 70.5938C38.0936 70.901 37.9973 71.2552 38.0025 71.6562ZM45.8775 67.3281H47.3619V81.3594H45.8775V67.3281ZM65.2106 79.5781H52.3981V78.3438H58.0387V75.1094H53.8669V68.4531H63.6794V75.1094H59.5075V78.3438H65.2106V79.5781ZM62.2262 73.9375V69.6406H55.3044V73.9375H62.2262ZM68.7131 77.2031H75.2912V75.7188H76.7756V81.1562H67.2444V75.7188H68.7131V77.2031ZM65.6662 73.6094H78.4319V74.8438H65.6662V73.6094ZM66.3537 71.5781C67.2496 71.4635 68.0751 71.2344 68.8303 70.8906C69.5855 70.5417 70.1845 70.1224 70.6272 69.6328C71.0699 69.138 71.2912 68.6198 71.2912 68.0781V67.4844H72.8069V68.0781C72.8069 68.6042 73.0308 69.1172 73.4787 69.6172C73.9267 70.112 74.5256 70.5365 75.2756 70.8906C76.0308 71.2396 76.8485 71.4688 77.7287 71.5781L77.1975 72.75C76.4423 72.6458 75.7287 72.4609 75.0569 72.1953C74.385 71.9297 73.7912 71.599 73.2756 71.2031C72.76 70.8021 72.3537 70.3568 72.0569 69.8672C71.76 70.362 71.3511 70.8073 70.8303 71.2031C70.3147 71.599 69.7209 71.9297 69.0491 72.1953C68.3772 72.4609 67.6662 72.6458 66.9162 72.75L66.3537 71.5781ZM75.2912 79.9688V78.3594H68.7131V79.9688H75.2912ZM85.3094 67.5625C86.3615 67.5625 87.2599 67.6536 88.0047 67.8359C88.7495 68.0182 89.3198 68.2917 89.7156 68.6562C90.1115 69.0156 90.3094 69.4531 90.3094 69.9688C90.3094 70.4896 90.1115 70.9323 89.7156 71.2969C89.3198 71.6562 88.7495 71.9297 88.0047 72.1172C87.2599 72.2995 86.3615 72.3906 85.3094 72.3906C84.2573 72.3906 83.3563 72.2995 82.6063 72.1172C81.8615 71.9297 81.2911 71.6562 80.8953 71.2969C80.5047 70.9323 80.3094 70.4896 80.3094 69.9688C80.3094 69.4531 80.5047 69.0156 80.8953 68.6562C81.2911 68.2917 81.8615 68.0182 82.6063 67.8359C83.3563 67.6536 84.2573 67.5625 85.3094 67.5625ZM78.9344 73.25H91.7V74.4375H78.9344V73.25ZM80.4656 75.5156H90.0906V78.7969H81.9344V80.0469H90.4813V81.1875H80.4813V77.7188H88.6219V76.625H80.4656V75.5156ZM81.8563 69.9688C81.851 70.401 82.1453 70.7292 82.7391 70.9531C83.3328 71.1719 84.1896 71.2812 85.3094 71.2812C86.4396 71.2812 87.3016 71.1719 87.8953 70.9531C88.4891 70.7292 88.7833 70.401 88.7781 69.9688C88.7833 69.5521 88.4839 69.2292 87.8797 69C87.2807 68.7708 86.424 68.6562 85.3094 68.6562C84.2 68.6562 83.3458 68.7708 82.7469 69C82.1479 69.2292 81.851 69.5521 81.8563 69.9688ZM108.361 79.5469H95.5488V78.3281H101.158V75H102.627V78.3281H108.361V79.5469ZM95.9863 74.0312C96.8769 73.8802 97.7128 73.5677 98.4941 73.0938C99.2805 72.6198 99.9107 72.0469 100.385 71.375C100.859 70.6979 101.096 70 101.096 69.2812V68.2188H102.658V69.2812C102.658 70 102.895 70.6979 103.369 71.375C103.848 72.0469 104.481 72.6198 105.268 73.0938C106.059 73.5677 106.903 73.8802 107.799 74.0312L107.158 75.25C106.398 75.099 105.671 74.849 104.978 74.5C104.291 74.151 103.679 73.7188 103.143 73.2031C102.606 72.6823 102.187 72.1094 101.885 71.4844C101.583 72.1094 101.163 72.6797 100.627 73.1953C100.096 73.7109 99.4863 74.1458 98.7988 74.5C98.1165 74.849 97.3977 75.099 96.6425 75.25L95.9863 74.0312ZM120.801 81.3281H119.379V74.0625H117.645V80.6562H116.254V67.7031H117.645V72.8594H119.379V67.3281H120.801V81.3281ZM108.77 77.3281C110.27 76.474 111.39 75.4661 112.129 74.3047C112.869 73.1432 113.299 71.8177 113.418 70.3281H109.364V69.1094H114.864C114.859 71.1042 114.457 72.8776 113.661 74.4297C112.864 75.9818 111.52 77.2917 109.629 78.3594L108.77 77.3281ZM129.007 70.8438H122.054V69.6406H124.804V67.7344H126.272V69.6406H129.007V70.8438ZM122.507 74.9062C122.507 74.2865 122.634 73.7318 122.89 73.2422C123.15 72.7526 123.512 72.3724 123.976 72.1016C124.439 71.8255 124.96 71.6875 125.538 71.6875C126.121 71.6875 126.642 71.8255 127.101 72.1016C127.564 72.3724 127.926 72.7526 128.187 73.2422C128.452 73.7318 128.585 74.2865 128.585 74.9062C128.585 75.5365 128.452 76.099 128.187 76.5938C127.926 77.0885 127.564 77.474 127.101 77.75C126.642 78.0208 126.121 78.1562 125.538 78.1562C124.96 78.1562 124.439 78.0208 123.976 77.75C123.512 77.474 123.15 77.0885 122.89 76.5938C122.634 76.099 122.507 75.5365 122.507 74.9062ZM123.819 74.9062C123.819 75.2969 123.892 75.6432 124.038 75.9453C124.184 76.2422 124.387 76.474 124.647 76.6406C124.908 76.8073 125.205 76.8906 125.538 76.8906C125.871 76.8906 126.168 76.8073 126.429 76.6406C126.694 76.474 126.9 76.2422 127.046 75.9453C127.197 75.6432 127.272 75.2969 127.272 74.9062C127.272 74.526 127.197 74.1849 127.046 73.8828C126.9 73.5807 126.694 73.3464 126.429 73.1797C126.168 73.0078 125.871 72.9219 125.538 72.9219C125.205 72.9219 124.908 73.0078 124.647 73.1797C124.387 73.3464 124.184 73.5807 124.038 73.8828C123.892 74.1849 123.819 74.526 123.819 74.9062ZM129.647 67.6406H131.054V73.1562H132.663V67.3281H134.069V81.3281H132.663V74.375H131.054V80.6719H129.647V67.6406ZM148.119 76.4219H142.431V81.3125H140.978V76.4219H135.353V75.2188H148.119V76.4219ZM136.072 72.9844C136.936 72.8646 137.733 72.6276 138.463 72.2734C139.197 71.9141 139.783 71.4766 140.22 70.9609C140.658 70.4453 140.884 69.9062 140.9 69.3438H136.541V68.1562H146.916V69.3438H142.588C142.593 69.9062 142.811 70.4453 143.244 70.9609C143.681 71.4766 144.267 71.9141 145.002 72.2734C145.736 72.6276 146.541 72.8646 147.416 72.9844L146.869 74.1562C146.103 74.0365 145.382 73.8359 144.705 73.5547C144.028 73.2682 143.434 72.9141 142.923 72.4922C142.413 72.0651 142.017 71.5911 141.736 71.0703C141.455 71.5911 141.059 72.0651 140.548 72.4922C140.038 72.9141 139.447 73.2682 138.775 73.5547C138.103 73.8359 137.39 74.0365 136.634 74.1562L136.072 72.9844ZM152.887 71.1562C152.887 71.9167 152.994 72.6693 153.207 73.4141C153.421 74.1536 153.738 74.8307 154.16 75.4453C154.582 76.0599 155.095 76.5521 155.699 76.9219L154.871 78.0625C154.236 77.6823 153.692 77.1641 153.238 76.5078C152.791 75.8464 152.442 75.0964 152.192 74.2578C151.931 75.1693 151.559 75.9818 151.074 76.6953C150.595 77.4089 150.022 77.9688 149.356 78.375L148.434 77.2656C149.074 76.8802 149.621 76.3672 150.074 75.7266C150.533 75.0859 150.876 74.3776 151.106 73.6016C151.34 72.8203 151.455 72.026 151.449 71.2188V68.6094H152.887V71.1562ZM154.184 72.25H156.356V67.5938H157.762V80.6406H156.356V73.4844H154.184V72.25ZM159.246 67.3281H160.668V81.3281H159.246V67.3281ZM174.702 79.5781H161.889V78.3438H164.952V74.6875C164.363 74.3646 163.908 73.9557 163.585 73.4609C163.262 72.9661 163.103 72.4115 163.108 71.7969C163.108 71.0729 163.327 70.4349 163.764 69.8828C164.202 69.3307 164.811 68.9036 165.592 68.6016C166.379 68.2943 167.27 68.1406 168.264 68.1406C169.259 68.1406 170.15 68.2943 170.936 68.6016C171.723 68.9036 172.335 69.3307 172.772 69.8828C173.215 70.4349 173.436 71.0729 173.436 71.7969C173.436 72.4062 173.28 72.9557 172.967 73.4453C172.655 73.9297 172.212 74.3333 171.639 74.6562V78.3438H174.702V79.5781ZM164.546 71.7969C164.546 72.2917 164.702 72.7266 165.014 73.1016C165.327 73.4766 165.764 73.7682 166.327 73.9766C166.889 74.1797 167.535 74.2812 168.264 74.2812C168.988 74.2812 169.632 74.1771 170.194 73.9688C170.762 73.7604 171.204 73.4714 171.522 73.1016C171.84 72.7266 171.999 72.2917 171.999 71.7969C171.999 71.3021 171.84 70.8698 171.522 70.5C171.204 70.125 170.762 69.8359 170.194 69.6328C169.632 69.4297 168.988 69.3281 168.264 69.3281C167.535 69.3281 166.889 69.4297 166.327 69.6328C165.764 69.8359 165.327 70.125 165.014 70.5C164.702 70.8698 164.546 71.3021 164.546 71.7969ZM170.139 78.3438V75.2344C169.556 75.3698 168.931 75.4375 168.264 75.4375C167.608 75.4375 166.994 75.3698 166.421 75.2344V78.3438H170.139ZM177.595 76.7344H176.048L175.908 68.6875H177.736L177.595 76.7344ZM175.72 79.0156C175.72 78.8125 175.769 78.625 175.868 78.4531C175.967 78.2812 176.1 78.1458 176.267 78.0469C176.439 77.9427 176.626 77.8906 176.829 77.8906C177.027 77.8906 177.21 77.9401 177.376 78.0391C177.548 78.138 177.684 78.2734 177.783 78.4453C177.887 78.6172 177.939 78.8021 177.939 79C177.939 79.1979 177.887 79.3828 177.783 79.5547C177.684 79.7214 177.548 79.8568 177.376 79.9609C177.21 80.0599 177.027 80.1094 176.829 80.1094C176.631 80.1094 176.447 80.0599 176.275 79.9609C176.108 79.862 175.973 79.7292 175.868 79.5625C175.769 79.3958 175.72 79.2135 175.72 79.0156Z" fill="white"/>
<path fill-rule="evenodd" clip-rule="evenodd" d="M244.632 110.443L235.066 110.373L235 119.396L239.884 119.432C239.975 120.736 239.142 123.365 235.043 124.812L237.423 128.657C239.689 127.715 244.287 124.573 244.545 119.539C244.546 119.514 244.548 119.49 244.549 119.466L244.566 119.467L244.632 110.443Z" fill="white"/>
<path fill-rule="evenodd" clip-rule="evenodd" d="M256.477 110.443L246.911 110.373L246.845 119.396L251.728 119.432C251.821 120.734 250.991 123.368 246.888 124.817L249.267 128.661C251.534 127.719 256.132 124.577 256.39 119.543C256.391 119.518 256.393 119.492 256.394 119.467L256.411 119.467L256.477 110.443Z" fill="white"/>
<path d="M261.323 105C261.327 105.088 261.329 105.181 261.328 105.279C261.445 108.54 263.614 109.273 264.828 109.273C262.181 109.273 261.36 111.369 261.305 112.801C261.317 112.976 261.323 113.159 261.323 113.352C261.304 113.186 261.297 113 261.305 112.801C261.083 109.657 258.949 109.28 257.669 109.273C260.709 109.273 261.317 106.765 261.328 105.279C261.325 105.188 261.323 105.095 261.323 105Z" fill="white"/>
<path d="M43.803 97.4162C42.2558 100.228 43.2401 103.119 44.2833 104.774C44.5659 105.222 45.1713 105.277 45.5828 104.943C46.0205 104.588 46.6672 104.678 46.9917 105.139L48.6011 107.423C49.0489 108.058 49.9789 108.093 50.4726 107.492C50.8084 107.083 51.3756 106.949 51.8591 107.163L54.7892 108.463C55.2105 108.65 55.6388 108.216 55.4461 107.797L54.2611 105.223C54.0059 104.668 54.1471 104.012 54.6078 103.612C55.3019 103.008 55.2188 101.907 54.4419 101.415L51.962 99.8434C51.4695 99.5313 51.3552 98.8616 51.7165 98.4039C52.0348 98.0006 51.9926 97.4117 51.5686 97.1216C49.3152 95.58 46.5874 95.9084 44.9553 96.4552C44.4642 96.6198 44.0528 96.9624 43.803 97.4162Z" fill="#3656FF"/>
<path d="M202.731 34.9072C202.352 34.5057 201.719 34.4876 201.317 34.8668C200.916 35.246 200.898 35.8789 201.277 36.2804L202.731 34.9072ZM208.473 31.5207L207.641 30.966L208.473 31.5207ZM232.157 36.0092C232.518 36.4266 233.15 36.4717 233.567 36.11C233.985 35.7483 234.03 35.1167 233.668 34.6994L232.157 36.0092ZM209.177 30.6901L209.834 31.4448L209.177 30.6901ZM201.277 36.2804C202.077 37.1279 203.155 38.0571 204.373 38.797C205.583 39.5318 206.997 40.1202 208.453 40.1939L208.554 38.1965C207.55 38.1456 206.462 37.726 205.412 37.0877C204.369 36.4543 203.428 35.6451 202.731 34.9072L201.277 36.2804ZM208.521 29.9355C208.206 30.2098 207.914 30.5563 207.641 30.966L209.305 32.0754C209.505 31.7752 209.684 31.5749 209.834 31.4448L208.521 29.9355ZM207.641 30.966C207.192 31.6394 206.951 32.3505 206.945 33.0724C206.94 33.7951 207.171 34.4559 207.551 35.0255C208.292 36.1374 209.607 36.9278 211.045 37.3854C213.916 38.299 217.912 38.0765 220.643 35.6184L219.305 34.1318C217.244 35.9865 214.051 36.2432 211.651 35.4796C210.454 35.0987 209.612 34.5113 209.215 33.9161C209.026 33.6321 208.943 33.357 208.945 33.0875C208.947 32.8173 209.035 32.4802 209.305 32.0754L207.641 30.966ZM220.643 35.6184C222.867 33.6169 225.055 32.9658 226.979 33.1453C228.921 33.3266 230.734 34.3676 232.157 36.0092L233.668 34.6994C231.976 32.7471 229.715 31.392 227.165 31.154C224.596 30.9142 221.873 31.8205 219.305 34.1318L220.643 35.6184ZM208.453 40.1939C210.149 40.2797 211.307 39.244 211.983 38.011C212.649 36.797 212.941 35.2603 212.954 33.8768C212.966 32.5281 212.715 31.0906 212.061 30.1649C211.716 29.6766 211.182 29.2323 210.444 29.1763C209.728 29.1219 209.074 29.4545 208.521 29.9355L209.834 31.4448C210.174 31.1491 210.317 31.1724 210.293 31.1705C210.246 31.167 210.299 31.1371 210.428 31.3191C210.721 31.7343 210.965 32.6621 210.954 33.8579C210.943 35.0189 210.692 36.206 210.23 37.0497C209.777 37.8744 209.223 38.2303 208.554 38.1965L208.453 40.1939Z" fill="#3656FF"/>
<path d="M152.34 118.802L153.621 124.726L148.885 130.873L144.677 128.747L146.812 121.287L152.34 118.802Z" fill="#F638B6"/>
<path d="M234.763 57.231C234.323 56.6064 234.925 55.7789 235.655 56.0061L242.852 58.2464C243.375 58.4092 243.583 59.038 243.261 59.481L240.408 63.4006C240.086 63.8436 239.423 63.8386 239.108 63.3909L234.763 57.231Z" fill="#F638B6"/>
<path d="M182.769 116L180.339 121.109" stroke="#4557FF" stroke-width="2" stroke-linecap="round"/>
<path d="M117 105.446L122.176 107.73" stroke="#4557FF" stroke-width="2" stroke-linecap="round"/>
<path d="M23.0004 125.446L28.1758 127.73" stroke="#F638B6" stroke-width="2" stroke-linecap="round"/>
<path d="M182.858 55.9992C182.582 57.7666 181.647 59.8837 181.215 60.7213" stroke="#F638B6" stroke-width="2" stroke-linecap="round"/>
<path d="M189.102 60.7214C188.035 62.1577 186.224 63.5977 185.451 64.1382" stroke="#F638B6" stroke-width="2" stroke-linecap="round"/>
<path d="M192.129 69.7176C190.353 69.9345 188.061 69.6137 187.137 69.4262" stroke="#F638B6" stroke-width="2" stroke-linecap="round"/>
<path d="M88.4998 122.502C92.3341 121.821 96.9189 120.178 96.8086 116.203C96.7163 112.878 91.7321 110.058 90.607 113.189C90.5189 113.434 90.4791 113.704 90.5005 114.001C90.7062 116.859 101.112 116.968 103.169 112.935" stroke="#F638B6" stroke-width="1.4" stroke-linecap="round"/>
<path d="M152 23.7707L157.107 21.3374" stroke="#4557FF" stroke-width="2" stroke-linecap="round"/>
<defs>
<filter id="filter0_d_494_614" x="0" y="0" width="278" height="149" filterUnits="userSpaceOnUse" color-interpolation-filters="sRGB">
<feFlood flood-opacity="0" result="BackgroundImageFix"/>
<feColorMatrix in="SourceAlpha" type="matrix" values="0 0 0 0 0 0 0 0 0 0 0 0 0 0 0 0 0 0 127 0" result="hardAlpha"/>
<feOffset dy="1"/>
<feGaussianBlur stdDeviation="1.5"/>
<feComposite in2="hardAlpha" operator="out"/>
<feColorMatrix type="matrix" values="0 0 0 0 0 0 0 0 0 0 0 0 0 0 0 0 0 0 0.18 0"/>
<feBlend mode="normal" in2="BackgroundImageFix" result="effect1_dropShadow_494_614"/>
<feBlend mode="normal" in="SourceGraphic" in2="effect1_dropShadow_494_614" result="shape"/>
</filter>
</defs>
</svg>
