<svg width="278" height="149" viewBox="0 0 278 149" fill="none" xmlns="http://www.w3.org/2000/svg">
<g filter="url(#filter0_d_494_708)">
<rect x="3" y="2" width="272" height="143" rx="5" fill="black"/>
</g>
<path d="M35.5938 30.0469H33.4219V37.3125H31.9375V23.3281H33.4219V28.8281H35.5938V30.0469ZM23.0469 24.6875H24.5156V32.5625C26.6562 32.5521 28.7292 32.3438 30.7344 31.9375L30.9062 33.1875C29.7708 33.4115 28.6536 33.5703 27.5547 33.6641C26.4557 33.7578 25.3385 33.8021 24.2031 33.7969H23.0469V24.6875ZM47.1119 28.6094H37.4712V23.8281H38.94V27.4219H47.1119V28.6094ZM35.7681 30.375H48.5806V31.5625H35.7681V30.375ZM37.3619 32.8906H38.8462V35.7812H47.2056V37H37.3619V32.8906ZM56.195 24.375C56.8252 24.375 57.3929 24.5469 57.8981 24.8906C58.4033 25.2344 58.8122 25.7214 59.1247 26.3516C59.4424 26.9818 59.6377 27.724 59.7106 28.5781H62.6012V23.3281H64.07V37.3594H62.6012V29.7812H59.7262C59.6742 30.6823 59.4919 31.4661 59.1794 32.1328C58.8669 32.7995 58.4528 33.3125 57.9372 33.6719C57.4216 34.026 56.8408 34.2031 56.195 34.2031C55.5023 34.2031 54.8851 34.0026 54.3434 33.6016C53.807 33.2005 53.3877 32.6276 53.0856 31.8828C52.7887 31.138 52.6429 30.2708 52.6481 29.2812C52.6429 28.3021 52.7887 27.4427 53.0856 26.7031C53.3877 25.9583 53.807 25.3854 54.3434 24.9844C54.8851 24.5781 55.5023 24.375 56.195 24.375ZM54.0544 29.2812C54.0544 30.0104 54.1429 30.6458 54.32 31.1875C54.5023 31.7292 54.7549 32.1458 55.0778 32.4375C55.4007 32.7292 55.7731 32.875 56.195 32.875C56.6169 32.875 56.9893 32.7292 57.3122 32.4375C57.6351 32.1458 57.8851 31.7292 58.0622 31.1875C58.2445 30.6458 58.3356 30.0104 58.3356 29.2812C58.3356 28.5625 58.2445 27.9349 58.0622 27.3984C57.8799 26.8568 57.6273 26.4401 57.3044 26.1484C56.9867 25.8516 56.6169 25.7031 56.195 25.7031C55.7731 25.7031 55.4007 25.8516 55.0778 26.1484C54.7601 26.4401 54.5101 26.8568 54.3278 27.3984C54.1455 27.9349 54.0544 28.5625 54.0544 29.2812ZM77.8381 37.0312H67.9631V32.6406H69.4475V35.8281H77.8381V37.0312ZM66.01 24.4531H69.5881V25.6562H67.4475V30.125C68.2496 30.099 69.01 30.0052 69.7287 29.8438L69.8537 31.0625C69.3069 31.1823 68.7991 31.2578 68.3303 31.2891C67.8668 31.3151 67.3017 31.3281 66.635 31.3281H66.01V24.4531ZM70.3381 24.4531H74.2444V25.6562H71.8069V30.1328C72.4006 30.1224 72.9189 30.0964 73.3616 30.0547C73.8043 30.0078 74.2496 29.9323 74.6975 29.8281L74.8537 31.0312C74.2912 31.1562 73.7418 31.237 73.2053 31.2734C72.6689 31.3099 71.9527 31.3281 71.0569 31.3281H70.3381V24.4531ZM73.635 27.1406H76.01V23.3438H77.4631V33.5H76.01V28.3438H73.635V27.1406ZM87.14 26.8906C87.1348 27.7083 87.2806 28.5182 87.5775 29.3203C87.8744 30.1224 88.291 30.8411 88.8275 31.4766C89.364 32.1068 89.9733 32.5885 90.6556 32.9219L89.7337 34.1094C88.9837 33.7135 88.3197 33.1484 87.7416 32.4141C87.1686 31.6745 86.7259 30.8307 86.4134 29.8828C86.0957 30.8932 85.6374 31.7943 85.0384 32.5859C84.4447 33.3724 83.7546 33.9688 82.9681 34.375L82.0462 33.1719C82.7494 32.8333 83.3744 32.3333 83.9212 31.6719C84.4681 31.0104 84.8926 30.2604 85.1947 29.4219C85.502 28.5833 85.6556 27.7396 85.6556 26.8906V24.5H87.14V26.8906ZM91.7025 23.3281H93.1869V28.9062H95.4369V30.1719H93.1869V37.3281H91.7025V23.3281ZM106.549 26.8281H108.596V28.0781H106.549V31.6719H105.064V23.3438H106.549V26.8281ZM96.1113 24.0781H102.486V28.0312H97.6113V29.7812C98.929 29.776 100.049 29.7448 100.971 29.6875C101.893 29.6302 102.835 29.5208 103.799 29.3594L103.955 30.5469C102.929 30.7344 101.916 30.8594 100.916 30.9219C99.9211 30.9844 98.6998 31.0156 97.2519 31.0156H96.1269V26.9062H101.033V25.2656H96.1113V24.0781ZM97.58 32.3281H106.549V37.1562H97.58V32.3281ZM105.111 35.9531V33.4844H99.0331V35.9531H105.111ZM120.426 33.5156H118.942V23.3438H120.426V33.5156ZM109.098 27.75C109.098 27.0885 109.262 26.4948 109.59 25.9688C109.918 25.4427 110.366 25.0312 110.934 24.7344C111.502 24.4323 112.135 24.2812 112.832 24.2812C113.53 24.2812 114.161 24.4323 114.723 24.7344C115.291 25.0312 115.736 25.4427 116.059 25.9688C116.387 26.4948 116.551 27.0885 116.551 27.75C116.551 28.4219 116.387 29.0234 116.059 29.5547C115.736 30.0807 115.291 30.4922 114.723 30.7891C114.161 31.0859 113.53 31.2344 112.832 31.2344C112.135 31.2344 111.502 31.0859 110.934 30.7891C110.366 30.4922 109.918 30.0807 109.59 29.5547C109.262 29.0234 109.098 28.4219 109.098 27.75ZM110.551 27.75C110.551 28.1823 110.648 28.5651 110.84 28.8984C111.038 29.2266 111.312 29.4818 111.661 29.6641C112.01 29.8464 112.4 29.9375 112.832 29.9375C113.26 29.9375 113.645 29.8464 113.989 29.6641C114.332 29.4818 114.603 29.2266 114.801 28.8984C114.999 28.5651 115.098 28.1823 115.098 27.75C115.098 27.3281 114.999 26.9531 114.801 26.625C114.603 26.2917 114.332 26.0339 113.989 25.8516C113.645 25.6693 113.26 25.5781 112.832 25.5781C112.4 25.5781 112.01 25.6693 111.661 25.8516C111.312 26.0339 111.038 26.2917 110.84 26.625C110.648 26.9531 110.551 27.3281 110.551 27.75ZM111.27 32.4844H112.77V35.8281H120.848V37.0312H111.27V32.4844ZM132.991 28.9062H135.163V30.1406H132.991V37.3125H131.507V23.3281H132.991V28.9062ZM122.101 33.5781C123.851 32.7031 125.202 31.6354 126.155 30.375C127.114 29.1146 127.668 27.6667 127.819 26.0312H122.804V24.7969H129.335C129.325 26.9323 128.806 28.8516 127.78 30.5547C126.754 32.2526 125.137 33.6458 122.929 34.7344L122.101 33.5781ZM148.166 35.5781H135.353V34.3438H138.416V30.6875C137.827 30.3646 137.371 29.9557 137.048 29.4609C136.726 28.9661 136.567 28.4115 136.572 27.7969C136.572 27.0729 136.791 26.4349 137.228 25.8828C137.666 25.3307 138.275 24.9036 139.056 24.6016C139.843 24.2943 140.733 24.1406 141.728 24.1406C142.723 24.1406 143.614 24.2943 144.4 24.6016C145.186 24.9036 145.798 25.3307 146.236 25.8828C146.679 26.4349 146.9 27.0729 146.9 27.7969C146.9 28.4062 146.744 28.9557 146.431 29.4453C146.119 29.9297 145.676 30.3333 145.103 30.6562V34.3438H148.166V35.5781ZM138.009 27.7969C138.009 28.2917 138.166 28.7266 138.478 29.1016C138.791 29.4766 139.228 29.7682 139.791 29.9766C140.353 30.1797 140.999 30.2812 141.728 30.2812C142.452 30.2812 143.095 30.1771 143.658 29.9688C144.226 29.7604 144.668 29.4714 144.986 29.1016C145.304 28.7266 145.463 28.2917 145.463 27.7969C145.463 27.3021 145.304 26.8698 144.986 26.5C144.668 26.125 144.226 25.8359 143.658 25.6328C143.095 25.4297 142.452 25.3281 141.728 25.3281C140.999 25.3281 140.353 25.4297 139.791 25.6328C139.228 25.8359 138.791 26.125 138.478 26.5C138.166 26.8698 138.009 27.3021 138.009 27.7969ZM143.603 34.3438V31.2344C143.02 31.3698 142.395 31.4375 141.728 31.4375C141.072 31.4375 140.457 31.3698 139.884 31.2344V34.3438H143.603ZM150.918 32.6406C150.923 31.9844 150.988 31.4531 151.113 31.0469C151.244 30.6354 151.423 30.3073 151.652 30.0625C151.882 29.8125 152.189 29.5677 152.574 29.3281C153.345 28.8594 153.731 28.2604 153.731 27.5312C153.731 27.2135 153.655 26.9349 153.504 26.6953C153.358 26.4505 153.155 26.263 152.895 26.1328C152.639 26.0026 152.356 25.9375 152.043 25.9375C151.751 25.9375 151.478 26 151.223 26.125C150.968 26.2448 150.757 26.4297 150.59 26.6797C150.423 26.9297 150.33 27.2396 150.309 27.6094H148.621C148.642 26.9635 148.804 26.4089 149.106 25.9453C149.413 25.4818 149.822 25.1302 150.332 24.8906C150.843 24.651 151.413 24.5312 152.043 24.5312C152.71 24.5312 153.298 24.6589 153.809 24.9141C154.324 25.1641 154.723 25.5156 155.004 25.9688C155.291 26.4219 155.434 26.9427 155.434 27.5312C155.434 28.1354 155.298 28.6589 155.027 29.1016C154.757 29.5391 154.361 29.9167 153.84 30.2344C153.517 30.4323 153.262 30.6354 153.074 30.8438C152.887 31.0469 152.746 31.2917 152.652 31.5781C152.564 31.8646 152.517 32.2188 152.512 32.6406V32.7344H150.918V32.6406ZM150.668 35.0156C150.668 34.8125 150.718 34.625 150.817 34.4531C150.916 34.2812 151.048 34.1458 151.215 34.0469C151.387 33.9427 151.574 33.8906 151.777 33.8906C151.975 33.8906 152.158 33.9401 152.324 34.0391C152.496 34.138 152.632 34.2734 152.731 34.4453C152.835 34.6172 152.887 34.8021 152.887 35C152.887 35.1979 152.835 35.3828 152.731 35.5547C152.632 35.7214 152.496 35.8568 152.324 35.9609C152.158 36.0599 151.975 36.1094 151.777 36.1094C151.58 36.1094 151.395 36.0599 151.223 35.9609C151.056 35.862 150.921 35.7292 150.817 35.5625C150.718 35.3958 150.668 35.2135 150.668 35.0156ZM33.5312 48.875H35.5469V50.0938H33.5312V53.5938H32.0312V45.3281H33.5312V48.875ZM23.1094 46.3594H29.3594V47.5625H24.5781V51.375C26.0365 51.3646 27.2031 51.3307 28.0781 51.2734C28.9531 51.2109 29.8125 51.0938 30.6562 50.9219L30.7969 52.125C29.901 52.3073 28.9818 52.4297 28.0391 52.4922C27.1016 52.5495 25.8281 52.5781 24.2188 52.5781H23.1094V46.3594ZM24.2969 56.5781C24.2969 56.0156 24.487 55.5312 24.8672 55.125C25.2474 54.7135 25.7891 54.401 26.4922 54.1875C27.2005 53.9688 28.0365 53.8594 29 53.8594C29.9531 53.8594 30.776 53.9688 31.4688 54.1875C32.1667 54.401 32.7031 54.7135 33.0781 55.125C33.4531 55.5312 33.6406 56.0156 33.6406 56.5781C33.6406 57.1458 33.4531 57.6328 33.0781 58.0391C32.7031 58.4505 32.1667 58.763 31.4688 58.9766C30.7708 59.1901 29.9479 59.2969 29 59.2969C28.0365 59.2969 27.2005 59.1901 26.4922 58.9766C25.7891 58.763 25.2474 58.4505 24.8672 58.0391C24.487 57.6328 24.2969 57.1458 24.2969 56.5781ZM25.7656 56.5781C25.7656 56.8958 25.8906 57.1693 26.1406 57.3984C26.3958 57.6276 26.763 57.8047 27.2422 57.9297C27.7266 58.0495 28.2995 58.1094 28.9609 58.1094C29.6276 58.1094 30.2057 58.0495 30.6953 57.9297C31.1849 57.8099 31.5599 57.6354 31.8203 57.4062C32.0859 57.1771 32.2188 56.901 32.2188 56.5781C32.2188 56.2604 32.0885 55.9896 31.8281 55.7656C31.5729 55.5365 31.2057 55.362 30.7266 55.2422C30.2526 55.1224 29.6901 55.0625 29.0391 55.0625C28.0078 55.0625 27.2031 55.1953 26.625 55.4609C26.0469 55.7214 25.7604 56.0938 25.7656 56.5781ZM47.3931 55.5938H45.9087V45.3438H47.3931V55.5938ZM35.8619 52.4375C36.5806 52.1719 37.203 51.7865 37.7291 51.2812C38.2551 50.776 38.6561 50.1953 38.9322 49.5391C39.2134 48.8828 39.3567 48.2031 39.3619 47.5V46.1094H40.8775V47.5C40.8775 48.1823 41.0155 48.8333 41.2916 49.4531C41.5676 50.0729 41.966 50.6198 42.4869 51.0938C43.0077 51.5677 43.6223 51.9271 44.3306 52.1719L43.565 53.3594C42.7629 53.0625 42.0676 52.6302 41.4791 52.0625C40.8957 51.4896 40.4452 50.8203 40.1275 50.0547C39.815 50.8776 39.3593 51.599 38.7603 52.2188C38.1666 52.8333 37.466 53.2969 36.6587 53.6094L35.8619 52.4375ZM38.2369 54.625H39.7369V57.8281H47.815V59.0312H38.2369V54.625ZM60.6456 59.3594H59.1612V45.3281H60.6456V59.3594ZM49.5362 51.2812C49.5362 50.3021 49.6899 49.4427 49.9972 48.7031C50.3045 47.9583 50.7316 47.3854 51.2784 46.9844C51.8305 46.5781 52.4581 46.375 53.1612 46.375C53.854 46.375 54.4737 46.5781 55.0206 46.9844C55.5675 47.3854 55.9946 47.9583 56.3019 48.7031C56.6144 49.4427 56.7706 50.3021 56.7706 51.2812C56.7706 52.2708 56.6144 53.138 56.3019 53.8828C55.9946 54.6276 55.5675 55.2005 55.0206 55.6016C54.4737 56.0026 53.854 56.2031 53.1612 56.2031C52.4581 56.2031 51.8305 56.0026 51.2784 55.6016C50.7316 55.2005 50.3045 54.6276 49.9972 53.8828C49.6899 53.138 49.5362 52.2708 49.5362 51.2812ZM50.9737 51.2812C50.9737 52.0104 51.0649 52.6458 51.2472 53.1875C51.4295 53.7292 51.6847 54.1458 52.0128 54.4375C52.3461 54.7292 52.729 54.875 53.1612 54.875C53.5883 54.875 53.9659 54.7292 54.2941 54.4375C54.6222 54.1458 54.8774 53.7292 55.0597 53.1875C55.242 52.6458 55.3331 52.0104 55.3331 51.2812C55.3331 50.5625 55.242 49.9349 55.0597 49.3984C54.8774 48.8568 54.6222 48.4401 54.2941 48.1484C53.9659 47.8516 53.5883 47.7031 53.1612 47.7031C52.729 47.7031 52.3461 47.8516 52.0128 48.1484C51.6847 48.4401 51.4295 48.8568 51.2472 49.3984C51.0649 49.9349 50.9737 50.5625 50.9737 51.2812ZM76.6662 48.25H78.6975V49.4844H76.6662V52.4062H75.1819V45.3281H76.6662V48.25ZM65.885 48.9375C65.8798 48.3333 66.0334 47.7943 66.3459 47.3203C66.6636 46.8464 67.1011 46.4766 67.6584 46.2109C68.2209 45.9453 68.8537 45.8125 69.5569 45.8125C70.26 45.8125 70.8902 45.9453 71.4475 46.2109C72.0048 46.4766 72.4397 46.8464 72.7522 47.3203C73.0699 47.7891 73.2287 48.3281 73.2287 48.9375C73.2287 49.5417 73.0699 50.0807 72.7522 50.5547C72.4397 51.0286 72.0048 51.3984 71.4475 51.6641C70.8902 51.9297 70.26 52.0625 69.5569 52.0625C68.859 52.0625 68.2287 51.9297 67.6662 51.6641C67.109 51.3984 66.6715 51.0286 66.3537 50.5547C66.036 50.0807 65.8798 49.5417 65.885 48.9375ZM67.3225 48.9375C67.3225 49.3125 67.4162 49.6484 67.6037 49.9453C67.7965 50.237 68.0621 50.4661 68.4006 50.6328C68.7444 50.7943 69.1298 50.875 69.5569 50.875C69.984 50.875 70.3668 50.7943 70.7053 50.6328C71.0439 50.4661 71.3095 50.237 71.5022 49.9453C71.6949 49.6484 71.7912 49.3125 71.7912 48.9375C71.7912 48.5625 71.6949 48.2318 71.5022 47.9453C71.3095 47.6536 71.0439 47.4297 70.7053 47.2734C70.3668 47.112 69.984 47.0312 69.5569 47.0312C69.1298 47.0312 68.7444 47.112 68.4006 47.2734C68.0621 47.4297 67.7965 47.6536 67.6037 47.9453C67.4162 48.2318 67.3225 48.5625 67.3225 48.9375ZM67.6194 53.0469H76.6662V56.5938H69.1037V57.9688H77.1506V59.1562H67.6506V55.4844H75.1975V54.2031H67.6194V53.0469ZM90.2625 48.0469C90.2573 48.8542 90.2443 49.5443 90.2234 50.1172C90.2078 50.6849 90.1609 51.349 90.0828 52.1094C90.0099 52.8698 89.8927 53.6927 89.7313 54.5781L88.2313 54.4219C88.3979 53.5833 88.5203 52.7943 88.5984 52.0547C88.6766 51.3099 88.7234 50.6536 88.7391 50.0859C88.7599 49.5182 88.7729 48.8385 88.7781 48.0469V47.875H80.2781V46.6719H90.2625V48.0469ZM78.9344 56.2031H83.7938V51.2656H85.2625V56.2031H91.7V57.4375H78.9344V56.2031ZM97.0619 54.5781C97.0619 55.2083 97.2207 55.8151 97.5384 56.3984C97.8561 56.9766 98.3197 57.4479 98.9291 57.8125C99.3405 57.5469 99.6895 57.2318 99.9759 56.8672C100.268 56.5026 100.484 56.1224 100.624 55.7266C100.77 55.3307 100.843 54.9479 100.843 54.5781V53.9062H102.296V54.5781C102.291 55.0677 102.395 55.5417 102.609 56C102.822 56.4531 103.137 56.8568 103.554 57.2109C103.976 57.5651 104.484 57.8385 105.077 58.0312L104.343 59.125C103.666 58.8906 103.091 58.5521 102.617 58.1094C102.143 57.6719 101.781 57.1589 101.531 56.5703C101.296 57.1641 100.963 57.6953 100.531 58.1641C100.104 58.6328 99.5827 58.9948 98.9681 59.25C98.3223 59.0052 97.778 58.6536 97.3353 58.1953C96.8978 57.737 96.5671 57.2083 96.3431 56.6094C96.0827 57.1771 95.7181 57.6797 95.2494 58.1172C94.7858 58.5547 94.2337 58.8906 93.5931 59.125L92.8431 58.0312C93.4212 57.8229 93.9186 57.5365 94.3353 57.1719C94.7572 56.8021 95.0749 56.3932 95.2884 55.9453C95.5072 55.4922 95.6192 55.0365 95.6244 54.5781V53.9062H97.0619V54.5781ZM92.4837 49.4219C92.4837 48.7812 92.6452 48.2109 92.9681 47.7109C93.291 47.2057 93.7364 46.8125 94.3041 46.5312C94.8718 46.25 95.5098 46.1094 96.2181 46.1094C96.9265 46.1094 97.5619 46.25 98.1244 46.5312C98.6921 46.8125 99.1348 47.2057 99.4525 47.7109C99.7754 48.2109 99.9369 48.7812 99.9369 49.4219C99.9369 50.0573 99.7754 50.625 99.4525 51.125C99.1348 51.6198 98.6921 52.0078 98.1244 52.2891C97.5619 52.5651 96.9265 52.7031 96.2181 52.7031C95.5098 52.7031 94.8718 52.5651 94.3041 52.2891C93.7364 52.0078 93.291 51.6198 92.9681 51.125C92.6452 50.625 92.4837 50.0573 92.4837 49.4219ZM93.9369 49.4219C93.9369 49.8229 94.0332 50.1797 94.2259 50.4922C94.4186 50.7995 94.6895 51.0391 95.0384 51.2109C95.3874 51.3828 95.7806 51.4688 96.2181 51.4688C96.6504 51.4688 97.0384 51.3828 97.3822 51.2109C97.7259 51.0391 97.9942 50.7995 98.1869 50.4922C98.3848 50.1797 98.4837 49.8229 98.4837 49.4219C98.4837 49.0208 98.3848 48.6641 98.1869 48.3516C97.9942 48.0391 97.7259 47.7995 97.3822 47.6328C97.0384 47.4609 96.6504 47.375 96.2181 47.375C95.7806 47.375 95.3874 47.4609 95.0384 47.6328C94.6895 47.7995 94.4186 48.0391 94.2259 48.3516C94.0332 48.6641 93.9369 49.0208 93.9369 49.4219ZM102.327 45.3438H103.812V53.3125H102.327V45.3438ZM116.799 50.6094H107.158V45.8281H108.627V49.4219H116.799V50.6094ZM105.455 52.375H118.268V53.5625H105.455V52.375ZM107.049 54.8906H108.533V57.7812H116.893V59H107.049V54.8906ZM35.5938 74.0469H33.4219V81.3125H31.9375V67.3281H33.4219V72.8281H35.5938V74.0469ZM23.0469 68.6875H24.5156V76.5625C26.6562 76.5521 28.7292 76.3438 30.7344 75.9375L30.9062 77.1875C29.7708 77.4115 28.6536 77.5703 27.5547 77.6641C26.4557 77.7578 25.3385 77.8021 24.2031 77.7969H23.0469V68.6875ZM40.3462 68.3281C41.0754 68.3281 41.7291 68.4688 42.3072 68.75C42.8853 69.026 43.3384 69.4193 43.6666 69.9297C43.9947 70.4349 44.1587 71.0104 44.1587 71.6562C44.1587 72.3021 43.9947 72.8802 43.6666 73.3906C43.3384 73.8958 42.8853 74.2917 42.3072 74.5781C41.7291 74.8594 41.0754 75 40.3462 75C39.6171 75 38.9608 74.8594 38.3775 74.5781C37.7994 74.2917 37.3462 73.8958 37.0181 73.3906C36.6952 72.8802 36.5337 72.3021 36.5337 71.6562C36.5337 71.0104 36.6952 70.4349 37.0181 69.9297C37.3462 69.4245 37.7994 69.0312 38.3775 68.75C38.9608 68.4688 39.6171 68.3281 40.3462 68.3281ZM35.8619 77.1094C37.6223 77.1094 39.2473 77.0807 40.7369 77.0234C42.2265 76.9661 43.6483 76.8385 45.0025 76.6406L45.1119 77.7188C43.716 77.9896 42.2968 78.1615 40.8541 78.2344C39.4166 78.3073 37.815 78.3438 36.0494 78.3438L35.8619 77.1094ZM38.0025 71.6562C37.9973 72.0625 38.0936 72.4219 38.2916 72.7344C38.4947 73.0417 38.7733 73.2812 39.1275 73.4531C39.4869 73.6198 39.8931 73.7031 40.3462 73.7031C40.7994 73.7031 41.203 73.6198 41.5572 73.4531C41.9166 73.2812 42.1978 73.0417 42.4009 72.7344C42.6041 72.4219 42.7056 72.0625 42.7056 71.6562C42.7056 71.2552 42.6041 70.901 42.4009 70.5938C42.1978 70.2812 41.9166 70.0391 41.5572 69.8672C41.1978 69.6953 40.7942 69.6094 40.3462 69.6094C39.8931 69.6094 39.4869 69.6953 39.1275 69.8672C38.7733 70.0391 38.4947 70.2812 38.2916 70.5938C38.0936 70.901 37.9973 71.2552 38.0025 71.6562ZM45.8775 67.3281H47.3619V81.3594H45.8775V67.3281ZM65.2106 79.5781H52.3981V78.3438H58.0387V75.1094H53.8669V68.4531H63.6794V75.1094H59.5075V78.3438H65.2106V79.5781ZM62.2262 73.9375V69.6406H55.3044V73.9375H62.2262ZM68.7131 77.2031H75.2912V75.7188H76.7756V81.1562H67.2444V75.7188H68.7131V77.2031ZM65.6662 73.6094H78.4319V74.8438H65.6662V73.6094ZM66.3537 71.5781C67.2496 71.4635 68.0751 71.2344 68.8303 70.8906C69.5855 70.5417 70.1845 70.1224 70.6272 69.6328C71.0699 69.138 71.2912 68.6198 71.2912 68.0781V67.4844H72.8069V68.0781C72.8069 68.6042 73.0308 69.1172 73.4787 69.6172C73.9267 70.112 74.5256 70.5365 75.2756 70.8906C76.0308 71.2396 76.8485 71.4688 77.7287 71.5781L77.1975 72.75C76.4423 72.6458 75.7287 72.4609 75.0569 72.1953C74.385 71.9297 73.7912 71.599 73.2756 71.2031C72.76 70.8021 72.3537 70.3568 72.0569 69.8672C71.76 70.362 71.3511 70.8073 70.8303 71.2031C70.3147 71.599 69.7209 71.9297 69.0491 72.1953C68.3772 72.4609 67.6662 72.6458 66.9162 72.75L66.3537 71.5781ZM75.2912 79.9688V78.3594H68.7131V79.9688H75.2912ZM85.3094 67.5625C86.3615 67.5625 87.2599 67.6536 88.0047 67.8359C88.7495 68.0182 89.3198 68.2917 89.7156 68.6562C90.1115 69.0156 90.3094 69.4531 90.3094 69.9688C90.3094 70.4896 90.1115 70.9323 89.7156 71.2969C89.3198 71.6562 88.7495 71.9297 88.0047 72.1172C87.2599 72.2995 86.3615 72.3906 85.3094 72.3906C84.2573 72.3906 83.3563 72.2995 82.6063 72.1172C81.8615 71.9297 81.2911 71.6562 80.8953 71.2969C80.5047 70.9323 80.3094 70.4896 80.3094 69.9688C80.3094 69.4531 80.5047 69.0156 80.8953 68.6562C81.2911 68.2917 81.8615 68.0182 82.6063 67.8359C83.3563 67.6536 84.2573 67.5625 85.3094 67.5625ZM78.9344 73.25H91.7V74.4375H78.9344V73.25ZM80.4656 75.5156H90.0906V78.7969H81.9344V80.0469H90.4813V81.1875H80.4813V77.7188H88.6219V76.625H80.4656V75.5156ZM81.8563 69.9688C81.851 70.401 82.1453 70.7292 82.7391 70.9531C83.3328 71.1719 84.1896 71.2812 85.3094 71.2812C86.4396 71.2812 87.3016 71.1719 87.8953 70.9531C88.4891 70.7292 88.7833 70.401 88.7781 69.9688C88.7833 69.5521 88.4839 69.2292 87.8797 69C87.2807 68.7708 86.424 68.6562 85.3094 68.6562C84.2 68.6562 83.3458 68.7708 82.7469 69C82.1479 69.2292 81.851 69.5521 81.8563 69.9688ZM108.361 79.5469H95.5488V78.3281H101.158V75H102.627V78.3281H108.361V79.5469ZM95.9863 74.0312C96.8769 73.8802 97.7128 73.5677 98.4941 73.0938C99.2805 72.6198 99.9107 72.0469 100.385 71.375C100.859 70.6979 101.096 70 101.096 69.2812V68.2188H102.658V69.2812C102.658 70 102.895 70.6979 103.369 71.375C103.848 72.0469 104.481 72.6198 105.268 73.0938C106.059 73.5677 106.903 73.8802 107.799 74.0312L107.158 75.25C106.398 75.099 105.671 74.849 104.978 74.5C104.291 74.151 103.679 73.7188 103.143 73.2031C102.606 72.6823 102.187 72.1094 101.885 71.4844C101.583 72.1094 101.163 72.6797 100.627 73.1953C100.096 73.7109 99.4863 74.1458 98.7988 74.5C98.1165 74.849 97.3977 75.099 96.6425 75.25L95.9863 74.0312ZM120.801 81.3281H119.379V74.0625H117.645V80.6562H116.254V67.7031H117.645V72.8594H119.379V67.3281H120.801V81.3281ZM108.77 77.3281C110.27 76.474 111.39 75.4661 112.129 74.3047C112.869 73.1432 113.299 71.8177 113.418 70.3281H109.364V69.1094H114.864C114.859 71.1042 114.457 72.8776 113.661 74.4297C112.864 75.9818 111.52 77.2917 109.629 78.3594L108.77 77.3281ZM129.007 70.8438H122.054V69.6406H124.804V67.7344H126.272V69.6406H129.007V70.8438ZM122.507 74.9062C122.507 74.2865 122.634 73.7318 122.89 73.2422C123.15 72.7526 123.512 72.3724 123.976 72.1016C124.439 71.8255 124.96 71.6875 125.538 71.6875C126.121 71.6875 126.642 71.8255 127.101 72.1016C127.564 72.3724 127.926 72.7526 128.187 73.2422C128.452 73.7318 128.585 74.2865 128.585 74.9062C128.585 75.5365 128.452 76.099 128.187 76.5938C127.926 77.0885 127.564 77.474 127.101 77.75C126.642 78.0208 126.121 78.1562 125.538 78.1562C124.96 78.1562 124.439 78.0208 123.976 77.75C123.512 77.474 123.15 77.0885 122.89 76.5938C122.634 76.099 122.507 75.5365 122.507 74.9062ZM123.819 74.9062C123.819 75.2969 123.892 75.6432 124.038 75.9453C124.184 76.2422 124.387 76.474 124.647 76.6406C124.908 76.8073 125.205 76.8906 125.538 76.8906C125.871 76.8906 126.168 76.8073 126.429 76.6406C126.694 76.474 126.9 76.2422 127.046 75.9453C127.197 75.6432 127.272 75.2969 127.272 74.9062C127.272 74.526 127.197 74.1849 127.046 73.8828C126.9 73.5807 126.694 73.3464 126.429 73.1797C126.168 73.0078 125.871 72.9219 125.538 72.9219C125.205 72.9219 124.908 73.0078 124.647 73.1797C124.387 73.3464 124.184 73.5807 124.038 73.8828C123.892 74.1849 123.819 74.526 123.819 74.9062ZM129.647 67.6406H131.054V73.1562H132.663V67.3281H134.069V81.3281H132.663V74.375H131.054V80.6719H129.647V67.6406ZM148.119 76.4219H142.431V81.3125H140.978V76.4219H135.353V75.2188H148.119V76.4219ZM136.072 72.9844C136.936 72.8646 137.733 72.6276 138.463 72.2734C139.197 71.9141 139.783 71.4766 140.22 70.9609C140.658 70.4453 140.884 69.9062 140.9 69.3438H136.541V68.1562H146.916V69.3438H142.588C142.593 69.9062 142.811 70.4453 143.244 70.9609C143.681 71.4766 144.267 71.9141 145.002 72.2734C145.736 72.6276 146.541 72.8646 147.416 72.9844L146.869 74.1562C146.103 74.0365 145.382 73.8359 144.705 73.5547C144.028 73.2682 143.434 72.9141 142.923 72.4922C142.413 72.0651 142.017 71.5911 141.736 71.0703C141.455 71.5911 141.059 72.0651 140.548 72.4922C140.038 72.9141 139.447 73.2682 138.775 73.5547C138.103 73.8359 137.39 74.0365 136.634 74.1562L136.072 72.9844ZM152.887 71.1562C152.887 71.9167 152.994 72.6693 153.207 73.4141C153.421 74.1536 153.738 74.8307 154.16 75.4453C154.582 76.0599 155.095 76.5521 155.699 76.9219L154.871 78.0625C154.236 77.6823 153.692 77.1641 153.238 76.5078C152.791 75.8464 152.442 75.0964 152.192 74.2578C151.931 75.1693 151.559 75.9818 151.074 76.6953C150.595 77.4089 150.022 77.9688 149.356 78.375L148.434 77.2656C149.074 76.8802 149.621 76.3672 150.074 75.7266C150.533 75.0859 150.876 74.3776 151.106 73.6016C151.34 72.8203 151.455 72.026 151.449 71.2188V68.6094H152.887V71.1562ZM154.184 72.25H156.356V67.5938H157.762V80.6406H156.356V73.4844H154.184V72.25ZM159.246 67.3281H160.668V81.3281H159.246V67.3281ZM174.702 79.5781H161.889V78.3438H164.952V74.6875C164.363 74.3646 163.908 73.9557 163.585 73.4609C163.262 72.9661 163.103 72.4115 163.108 71.7969C163.108 71.0729 163.327 70.4349 163.764 69.8828C164.202 69.3307 164.811 68.9036 165.592 68.6016C166.379 68.2943 167.27 68.1406 168.264 68.1406C169.259 68.1406 170.15 68.2943 170.936 68.6016C171.723 68.9036 172.335 69.3307 172.772 69.8828C173.215 70.4349 173.436 71.0729 173.436 71.7969C173.436 72.4062 173.28 72.9557 172.967 73.4453C172.655 73.9297 172.212 74.3333 171.639 74.6562V78.3438H174.702V79.5781ZM164.546 71.7969C164.546 72.2917 164.702 72.7266 165.014 73.1016C165.327 73.4766 165.764 73.7682 166.327 73.9766C166.889 74.1797 167.535 74.2812 168.264 74.2812C168.988 74.2812 169.632 74.1771 170.194 73.9688C170.762 73.7604 171.204 73.4714 171.522 73.1016C171.84 72.7266 171.999 72.2917 171.999 71.7969C171.999 71.3021 171.84 70.8698 171.522 70.5C171.204 70.125 170.762 69.8359 170.194 69.6328C169.632 69.4297 168.988 69.3281 168.264 69.3281C167.535 69.3281 166.889 69.4297 166.327 69.6328C165.764 69.8359 165.327 70.125 165.014 70.5C164.702 70.8698 164.546 71.3021 164.546 71.7969ZM170.139 78.3438V75.2344C169.556 75.3698 168.931 75.4375 168.264 75.4375C167.608 75.4375 166.994 75.3698 166.421 75.2344V78.3438H170.139ZM177.595 76.7344H176.048L175.908 68.6875H177.736L177.595 76.7344ZM175.72 79.0156C175.72 78.8125 175.769 78.625 175.868 78.4531C175.967 78.2812 176.1 78.1458 176.267 78.0469C176.439 77.9427 176.626 77.8906 176.829 77.8906C177.027 77.8906 177.21 77.9401 177.376 78.0391C177.548 78.138 177.684 78.2734 177.783 78.4453C177.887 78.6172 177.939 78.8021 177.939 79C177.939 79.1979 177.887 79.3828 177.783 79.5547C177.684 79.7214 177.548 79.8568 177.376 79.9609C177.21 80.0599 177.027 80.1094 176.829 80.1094C176.631 80.1094 176.447 80.0599 176.275 79.9609C176.108 79.862 175.973 79.7292 175.868 79.5625C175.769 79.3958 175.72 79.2135 175.72 79.0156Z" fill="white"/>
<path fill-rule="evenodd" clip-rule="evenodd" d="M244.632 110.443L235.066 110.373L235 119.396L239.884 119.432C239.975 120.736 239.142 123.365 235.043 124.812L237.423 128.657C239.689 127.715 244.287 124.573 244.545 119.539C244.546 119.514 244.548 119.49 244.549 119.466L244.566 119.467L244.632 110.443Z" fill="white"/>
<path fill-rule="evenodd" clip-rule="evenodd" d="M256.477 110.443L246.911 110.373L246.845 119.396L251.728 119.432C251.821 120.734 250.991 123.368 246.888 124.817L249.267 128.661C251.534 127.719 256.132 124.577 256.39 119.543C256.391 119.518 256.393 119.492 256.394 119.467L256.411 119.467L256.477 110.443Z" fill="white"/>
<path d="M261.323 105C261.327 105.088 261.329 105.181 261.328 105.279C261.445 108.54 263.614 109.273 264.828 109.273C262.181 109.273 261.36 111.369 261.305 112.801C261.317 112.976 261.323 113.159 261.323 113.352C261.304 113.186 261.297 113 261.305 112.801C261.083 109.657 258.949 109.28 257.669 109.273C260.709 109.273 261.317 106.765 261.328 105.279C261.325 105.188 261.323 105.095 261.323 105Z" fill="white"/>
<path d="M202.731 34.9072C202.352 34.5057 201.719 34.4876 201.317 34.8668C200.916 35.246 200.898 35.8789 201.277 36.2804L202.731 34.9072ZM208.473 31.5207L207.641 30.966L208.473 31.5207ZM232.157 36.0092C232.518 36.4266 233.15 36.4717 233.567 36.11C233.985 35.7483 234.03 35.1167 233.668 34.6994L232.157 36.0092ZM209.177 30.6901L209.834 31.4448L209.177 30.6901ZM201.277 36.2804C202.077 37.1279 203.155 38.0571 204.373 38.797C205.583 39.5318 206.997 40.1202 208.453 40.1939L208.554 38.1965C207.55 38.1456 206.462 37.726 205.412 37.0877C204.369 36.4543 203.428 35.6451 202.731 34.9072L201.277 36.2804ZM208.521 29.9355C208.206 30.2098 207.914 30.5563 207.641 30.966L209.305 32.0754C209.505 31.7752 209.684 31.5749 209.834 31.4448L208.521 29.9355ZM207.641 30.966C207.192 31.6394 206.951 32.3505 206.945 33.0724C206.94 33.7951 207.171 34.4559 207.551 35.0255C208.292 36.1374 209.607 36.9278 211.045 37.3854C213.916 38.299 217.912 38.0765 220.643 35.6184L219.305 34.1318C217.244 35.9865 214.051 36.2432 211.651 35.4796C210.454 35.0987 209.612 34.5113 209.215 33.9161C209.026 33.6321 208.943 33.357 208.945 33.0875C208.947 32.8173 209.035 32.4802 209.305 32.0754L207.641 30.966ZM220.643 35.6184C222.867 33.6169 225.055 32.9658 226.979 33.1453C228.921 33.3266 230.734 34.3676 232.157 36.0092L233.668 34.6994C231.976 32.7471 229.715 31.392 227.165 31.154C224.596 30.9142 221.873 31.8205 219.305 34.1318L220.643 35.6184ZM208.453 40.1939C210.149 40.2797 211.307 39.244 211.983 38.011C212.649 36.797 212.941 35.2603 212.954 33.8768C212.966 32.5281 212.715 31.0906 212.061 30.1649C211.716 29.6766 211.182 29.2323 210.444 29.1763C209.728 29.1219 209.074 29.4545 208.521 29.9355L209.834 31.4448C210.174 31.1491 210.317 31.1724 210.293 31.1705C210.246 31.167 210.299 31.1371 210.428 31.3191C210.721 31.7343 210.965 32.6621 210.954 33.8579C210.943 35.0189 210.692 36.206 210.23 37.0497C209.777 37.8744 209.223 38.2303 208.554 38.1965L208.453 40.1939Z" fill="#3656FF"/>
<path d="M182.769 116L180.339 121.109" stroke="#4557FF" stroke-width="2" stroke-linecap="round"/>
<path d="M117 105.446L122.176 107.73" stroke="#4557FF" stroke-width="2" stroke-linecap="round"/>
<path d="M23.0004 125.446L28.1758 127.73" stroke="#F638B6" stroke-width="2" stroke-linecap="round"/>
<path d="M182.858 55.9992C182.582 57.7666 181.647 59.8837 181.215 60.7213" stroke="#F638B6" stroke-width="2" stroke-linecap="round"/>
<path d="M189.102 60.7214C188.035 62.1577 186.224 63.5977 185.451 64.1382" stroke="#F638B6" stroke-width="2" stroke-linecap="round"/>
<path d="M192.129 69.7176C190.353 69.9345 188.061 69.6137 187.137 69.4262" stroke="#F638B6" stroke-width="2" stroke-linecap="round"/>
<path d="M88.4998 122.502C92.3341 121.821 96.9189 120.178 96.8086 116.203C96.7163 112.878 91.7321 110.058 90.607 113.189C90.5189 113.434 90.4791 113.704 90.5005 114.001C90.7062 116.859 101.112 116.968 103.169 112.935" stroke="#F638B6" stroke-width="1.4" stroke-linecap="round"/>
<path d="M253.028 24.9368L256.079 20.1729" stroke="#4557FF" stroke-width="2" stroke-linecap="round"/>
<path d="M139.706 125.73C141.537 127.505 144.897 126.739 146.738 125.916C148.356 123.191 147.986 117.953 145.179 117.804C141.973 117.634 142.426 120.403 142.952 121.902C141.88 121.276 141.01 121.172 140.332 121.35C138.566 121.811 138.396 124.46 139.706 125.73Z" fill="#3656FF"/>
<path d="M211.726 94.8077L213.007 100.732L208.271 106.878L204.063 104.753L206.198 97.2932L211.726 94.8077Z" fill="#F638B6"/>
<path d="M47.803 100.416C46.2558 103.228 47.2401 106.119 48.2833 107.774C48.5659 108.222 49.1713 108.277 49.5828 107.943C50.0205 107.588 50.6672 107.678 50.9917 108.139L52.6011 110.423C53.0489 111.058 53.9789 111.093 54.4726 110.492C54.8084 110.083 55.3756 109.949 55.8591 110.163L58.7892 111.463C59.2105 111.65 59.6388 111.216 59.4461 110.797L58.2611 108.223C58.0059 107.668 58.1471 107.012 58.6078 106.612C59.3019 106.008 59.2188 104.907 58.4419 104.415L55.962 102.843C55.4695 102.531 55.3552 101.862 55.7165 101.404C56.0348 101.001 55.9926 100.412 55.5686 100.122C53.3152 98.58 50.5874 98.9084 48.9553 99.4552C48.4642 99.6198 48.0528 99.9624 47.803 100.416Z" fill="#3656FF"/>
<defs>
<filter id="filter0_d_494_708" x="0" y="0" width="278" height="149" filterUnits="userSpaceOnUse" color-interpolation-filters="sRGB">
<feFlood flood-opacity="0" result="BackgroundImageFix"/>
<feColorMatrix in="SourceAlpha" type="matrix" values="0 0 0 0 0 0 0 0 0 0 0 0 0 0 0 0 0 0 127 0" result="hardAlpha"/>
<feOffset dy="1"/>
<feGaussianBlur stdDeviation="1.5"/>
<feComposite in2="hardAlpha" operator="out"/>
<feColorMatrix type="matrix" values="0 0 0 0 0 0 0 0 0 0 0 0 0 0 0 0 0 0 0.18 0"/>
<feBlend mode="normal" in2="BackgroundImageFix" result="effect1_dropShadow_494_708"/>
<feBlend mode="normal" in="SourceGraphic" in2="effect1_dropShadow_494_708" result="shape"/>
</filter>
</defs>
</svg>
