<svg width="278" height="149" viewBox="0 0 278 149" fill="none" xmlns="http://www.w3.org/2000/svg">
<g filter="url(#filter0_d_494_613)">
<rect x="3" y="2" width="272" height="143" rx="5" fill="black"/>
</g>
<path d="M33.4219 28.9062H35.5938V30.1406H33.4219V37.3125H31.9375V23.3281H33.4219V28.9062ZM22.5312 33.5781C24.2812 32.7031 25.6328 31.6354 26.5859 30.375C27.5443 29.1146 28.099 27.6667 28.25 26.0312H23.2344V24.7969H29.7656C29.7552 26.9323 29.237 28.8516 28.2109 30.5547C27.1849 32.2526 25.5677 33.6458 23.3594 34.7344L22.5312 33.5781ZM47.4556 31.6562H45.9712V28.1094H43.3619V26.8906H45.9712V23.3281H47.4556V31.6562ZM35.7837 30.3906C36.4921 30.1406 37.1119 29.7812 37.6431 29.3125C38.1744 28.8385 38.5806 28.2995 38.8619 27.6953C39.1483 27.0859 39.289 26.4583 39.2837 25.8125V25.5H36.2525V24.2969H43.7994V25.5H40.7994V25.7969C40.7942 26.3906 40.927 26.9661 41.1978 27.5234C41.4686 28.0807 41.8593 28.5781 42.3697 29.0156C42.8801 29.4479 43.4817 29.7812 44.1744 30.0156L43.4087 31.1875C42.6379 30.9219 41.966 30.526 41.3931 30C40.8254 29.4688 40.3853 28.849 40.0728 28.1406C39.7655 28.9323 39.3098 29.6276 38.7056 30.2266C38.1015 30.8255 37.3879 31.276 36.565 31.5781L35.7837 30.3906ZM38.0337 34.6875C38.0337 34.1354 38.2212 33.6641 38.5962 33.2734C38.9765 32.8776 39.5207 32.5755 40.2291 32.3672C40.9426 32.1536 41.789 32.0469 42.7681 32.0469C43.7421 32.0469 44.5832 32.1536 45.2916 32.3672C45.9999 32.5755 46.5442 32.8776 46.9244 33.2734C47.3098 33.6641 47.5025 34.1354 47.5025 34.6875C47.5025 35.2396 47.3098 35.7109 46.9244 36.1016C46.5442 36.4974 45.9999 36.7995 45.2916 37.0078C44.5832 37.2214 43.7421 37.3281 42.7681 37.3281C41.789 37.3281 40.9426 37.2214 40.2291 37.0078C39.5207 36.7995 38.9765 36.4974 38.5962 36.1016C38.2212 35.7109 38.0337 35.2396 38.0337 34.6875ZM39.5025 34.6875C39.4973 35.1615 39.7811 35.5286 40.3541 35.7891C40.9322 36.0443 41.7369 36.1667 42.7681 36.1562C43.789 36.1667 44.5858 36.0443 45.1587 35.7891C45.7369 35.5286 46.0285 35.1615 46.0337 34.6875C46.0285 34.2188 45.7421 33.8542 45.1744 33.5938C44.6119 33.3333 43.8254 33.2031 42.815 33.2031C41.7629 33.2031 40.9452 33.3307 40.3619 33.5859C39.7837 33.8411 39.4973 34.2083 39.5025 34.6875ZM61.0987 37.3281H59.6769V23.3281H61.0987V37.3281ZM49.2081 29.375C49.2081 28.375 49.3305 27.5052 49.5753 26.7656C49.8253 26.0208 50.1769 25.4505 50.63 25.0547C51.0883 24.6536 51.6196 24.4531 52.2237 24.4531C52.7862 24.4531 53.2836 24.6224 53.7159 24.9609C54.1534 25.2995 54.5024 25.7891 54.7628 26.4297C55.0284 27.0651 55.1899 27.8177 55.2472 28.6875H56.8331V23.5938H58.255V36.6406H56.8331V29.8906H55.255C55.2133 30.7969 55.0623 31.5833 54.8019 32.25C54.5415 32.9115 54.1899 33.4219 53.7472 33.7812C53.3045 34.1354 52.7967 34.3125 52.2237 34.3125C51.6196 34.3125 51.0883 34.1146 50.63 33.7188C50.1769 33.3177 49.8253 32.7448 49.5753 32C49.3305 31.25 49.2081 30.375 49.2081 29.375ZM50.5831 29.375C50.5831 30.1094 50.6482 30.7422 50.7784 31.2734C50.9139 31.8047 51.104 32.2109 51.3487 32.4922C51.5987 32.7682 51.8904 32.9062 52.2237 32.9062C52.5675 32.9062 52.8644 32.7682 53.1144 32.4922C53.3644 32.2109 53.5571 31.8047 53.6925 31.2734C53.8279 30.7422 53.8956 30.1094 53.8956 29.375C53.8956 28.6354 53.8279 28.0026 53.6925 27.4766C53.5571 26.9453 53.3644 26.5417 53.1144 26.2656C52.8644 25.9844 52.5675 25.8438 52.2237 25.8438C51.8904 25.8438 51.5987 25.9844 51.3487 26.2656C51.104 26.5417 50.9139 26.9453 50.7784 27.4766C50.6482 28.0078 50.5831 28.6406 50.5831 29.375ZM67.3669 26.8906C67.3669 27.7396 67.5153 28.5729 67.8122 29.3906C68.1143 30.2031 68.5361 30.9245 69.0778 31.5547C69.6195 32.1849 70.2419 32.6562 70.945 32.9688L70.0387 34.1562C69.2575 33.7604 68.5726 33.1901 67.9841 32.4453C67.3955 31.6953 66.945 30.8359 66.6325 29.8672C66.32 30.8932 65.8643 31.8073 65.2653 32.6094C64.6716 33.4062 63.9762 34.0104 63.1794 34.4219L62.2419 33.2188C62.9502 32.8802 63.5778 32.3802 64.1247 31.7188C64.6768 31.0521 65.1039 30.2969 65.4059 29.4531C65.7132 28.6042 65.8669 27.75 65.8669 26.8906V24.5H67.3669V26.8906ZM69.3981 27.9844H72.5231V23.3281H73.9919V37.3594H72.5231V29.1875H69.3981V27.9844ZM35.5938 52.0469H33.4219V59.3125H31.9375V45.3281H33.4219V50.8281H35.5938V52.0469ZM23.0469 46.6875H24.5156V54.5625C26.6562 54.5521 28.7292 54.3438 30.7344 53.9375L30.9062 55.1875C29.7708 55.4115 28.6536 55.5703 27.5547 55.6641C26.4557 55.7578 25.3385 55.8021 24.2031 55.7969H23.0469V46.6875ZM47.1119 50.6094H37.4712V45.8281H38.94V49.4219H47.1119V50.6094ZM35.7681 52.375H48.5806V53.5625H35.7681V52.375ZM37.3619 54.8906H38.8462V57.7812H47.2056V59H37.3619V54.8906ZM56.195 46.375C56.8252 46.375 57.3929 46.5469 57.8981 46.8906C58.4033 47.2344 58.8122 47.7214 59.1247 48.3516C59.4424 48.9818 59.6377 49.724 59.7106 50.5781H62.6012V45.3281H64.07V59.3594H62.6012V51.7812H59.7262C59.6742 52.6823 59.4919 53.4661 59.1794 54.1328C58.8669 54.7995 58.4528 55.3125 57.9372 55.6719C57.4216 56.026 56.8408 56.2031 56.195 56.2031C55.5023 56.2031 54.8851 56.0026 54.3434 55.6016C53.807 55.2005 53.3877 54.6276 53.0856 53.8828C52.7887 53.138 52.6429 52.2708 52.6481 51.2812C52.6429 50.3021 52.7887 49.4427 53.0856 48.7031C53.3877 47.9583 53.807 47.3854 54.3434 46.9844C54.8851 46.5781 55.5023 46.375 56.195 46.375ZM54.0544 51.2812C54.0544 52.0104 54.1429 52.6458 54.32 53.1875C54.5023 53.7292 54.7549 54.1458 55.0778 54.4375C55.4007 54.7292 55.7731 54.875 56.195 54.875C56.6169 54.875 56.9893 54.7292 57.3122 54.4375C57.6351 54.1458 57.8851 53.7292 58.0622 53.1875C58.2445 52.6458 58.3356 52.0104 58.3356 51.2812C58.3356 50.5625 58.2445 49.9349 58.0622 49.3984C57.8799 48.8568 57.6273 48.4401 57.3044 48.1484C56.9867 47.8516 56.6169 47.7031 56.195 47.7031C55.7731 47.7031 55.4007 47.8516 55.0778 48.1484C54.7601 48.4401 54.5101 48.8568 54.3278 49.3984C54.1455 49.9349 54.0544 50.5625 54.0544 51.2812ZM77.8381 59.0312H67.9631V54.6406H69.4475V57.8281H77.8381V59.0312ZM66.01 46.4531H69.5881V47.6562H67.4475V52.125C68.2496 52.099 69.01 52.0052 69.7287 51.8438L69.8537 53.0625C69.3069 53.1823 68.7991 53.2578 68.3303 53.2891C67.8668 53.3151 67.3017 53.3281 66.635 53.3281H66.01V46.4531ZM70.3381 46.4531H74.2444V47.6562H71.8069V52.1328C72.4006 52.1224 72.9189 52.0964 73.3616 52.0547C73.8043 52.0078 74.2496 51.9323 74.6975 51.8281L74.8537 53.0312C74.2912 53.1562 73.7418 53.237 73.2053 53.2734C72.6689 53.3099 71.9527 53.3281 71.0569 53.3281H70.3381V46.4531ZM73.635 49.1406H76.01V45.3438H77.4631V55.5H76.01V50.3438H73.635V49.1406ZM87.14 48.8906C87.1348 49.7083 87.2806 50.5182 87.5775 51.3203C87.8744 52.1224 88.291 52.8411 88.8275 53.4766C89.364 54.1068 89.9733 54.5885 90.6556 54.9219L89.7337 56.1094C88.9837 55.7135 88.3197 55.1484 87.7416 54.4141C87.1686 53.6745 86.7259 52.8307 86.4134 51.8828C86.0957 52.8932 85.6374 53.7943 85.0384 54.5859C84.4447 55.3724 83.7546 55.9688 82.9681 56.375L82.0462 55.1719C82.7494 54.8333 83.3744 54.3333 83.9212 53.6719C84.4681 53.0104 84.8926 52.2604 85.1947 51.4219C85.502 50.5833 85.6556 49.7396 85.6556 48.8906V46.5H87.14V48.8906ZM91.7025 45.3281H93.1869V50.9062H95.4369V52.1719H93.1869V59.3281H91.7025V45.3281ZM106.549 48.8281H108.596V50.0781H106.549V53.6719H105.064V45.3438H106.549V48.8281ZM96.1113 46.0781H102.486V50.0312H97.6113V51.7812C98.929 51.776 100.049 51.7448 100.971 51.6875C101.893 51.6302 102.835 51.5208 103.799 51.3594L103.955 52.5469C102.929 52.7344 101.916 52.8594 100.916 52.9219C99.9211 52.9844 98.6998 53.0156 97.2519 53.0156H96.1269V48.9062H101.033V47.2656H96.1113V46.0781ZM97.58 54.3281H106.549V59.1562H97.58V54.3281ZM105.111 57.9531V55.4844H99.0331V57.9531H105.111ZM120.426 55.5156H118.942V45.3438H120.426V55.5156ZM109.098 49.75C109.098 49.0885 109.262 48.4948 109.59 47.9688C109.918 47.4427 110.366 47.0312 110.934 46.7344C111.502 46.4323 112.135 46.2812 112.832 46.2812C113.53 46.2812 114.161 46.4323 114.723 46.7344C115.291 47.0312 115.736 47.4427 116.059 47.9688C116.387 48.4948 116.551 49.0885 116.551 49.75C116.551 50.4219 116.387 51.0234 116.059 51.5547C115.736 52.0807 115.291 52.4922 114.723 52.7891C114.161 53.0859 113.53 53.2344 112.832 53.2344C112.135 53.2344 111.502 53.0859 110.934 52.7891C110.366 52.4922 109.918 52.0807 109.59 51.5547C109.262 51.0234 109.098 50.4219 109.098 49.75ZM110.551 49.75C110.551 50.1823 110.648 50.5651 110.84 50.8984C111.038 51.2266 111.312 51.4818 111.661 51.6641C112.01 51.8464 112.4 51.9375 112.832 51.9375C113.26 51.9375 113.645 51.8464 113.989 51.6641C114.332 51.4818 114.603 51.2266 114.801 50.8984C114.999 50.5651 115.098 50.1823 115.098 49.75C115.098 49.3281 114.999 48.9531 114.801 48.625C114.603 48.2917 114.332 48.0339 113.989 47.8516C113.645 47.6693 113.26 47.5781 112.832 47.5781C112.4 47.5781 112.01 47.6693 111.661 47.8516C111.312 48.0339 111.038 48.2917 110.84 48.625C110.648 48.9531 110.551 49.3281 110.551 49.75ZM111.27 54.4844H112.77V57.8281H120.848V59.0312H111.27V54.4844ZM132.991 50.9062H135.163V52.1406H132.991V59.3125H131.507V45.3281H132.991V50.9062ZM122.101 55.5781C123.851 54.7031 125.202 53.6354 126.155 52.375C127.114 51.1146 127.668 49.6667 127.819 48.0312H122.804V46.7969H129.335C129.325 48.9323 128.806 50.8516 127.78 52.5547C126.754 54.2526 125.137 55.6458 122.929 56.7344L122.101 55.5781ZM148.166 57.5781H135.353V56.3438H138.416V52.6875C137.827 52.3646 137.371 51.9557 137.048 51.4609C136.726 50.9661 136.567 50.4115 136.572 49.7969C136.572 49.0729 136.791 48.4349 137.228 47.8828C137.666 47.3307 138.275 46.9036 139.056 46.6016C139.843 46.2943 140.733 46.1406 141.728 46.1406C142.723 46.1406 143.614 46.2943 144.4 46.6016C145.186 46.9036 145.798 47.3307 146.236 47.8828C146.679 48.4349 146.9 49.0729 146.9 49.7969C146.9 50.4062 146.744 50.9557 146.431 51.4453C146.119 51.9297 145.676 52.3333 145.103 52.6562V56.3438H148.166V57.5781ZM138.009 49.7969C138.009 50.2917 138.166 50.7266 138.478 51.1016C138.791 51.4766 139.228 51.7682 139.791 51.9766C140.353 52.1797 140.999 52.2812 141.728 52.2812C142.452 52.2812 143.095 52.1771 143.658 51.9688C144.226 51.7604 144.668 51.4714 144.986 51.1016C145.304 50.7266 145.463 50.2917 145.463 49.7969C145.463 49.3021 145.304 48.8698 144.986 48.5C144.668 48.125 144.226 47.8359 143.658 47.6328C143.095 47.4297 142.452 47.3281 141.728 47.3281C140.999 47.3281 140.353 47.4297 139.791 47.6328C139.228 47.8359 138.791 48.125 138.478 48.5C138.166 48.8698 138.009 49.3021 138.009 49.7969ZM143.603 56.3438V53.2344C143.02 53.3698 142.395 53.4375 141.728 53.4375C141.072 53.4375 140.457 53.3698 139.884 53.2344V56.3438H143.603ZM150.918 54.6406C150.923 53.9844 150.988 53.4531 151.113 53.0469C151.244 52.6354 151.423 52.3073 151.652 52.0625C151.882 51.8125 152.189 51.5677 152.574 51.3281C153.345 50.8594 153.731 50.2604 153.731 49.5312C153.731 49.2135 153.655 48.9349 153.504 48.6953C153.358 48.4505 153.155 48.263 152.895 48.1328C152.639 48.0026 152.356 47.9375 152.043 47.9375C151.751 47.9375 151.478 48 151.223 48.125C150.968 48.2448 150.757 48.4297 150.59 48.6797C150.423 48.9297 150.33 49.2396 150.309 49.6094H148.621C148.642 48.9635 148.804 48.4089 149.106 47.9453C149.413 47.4818 149.822 47.1302 150.332 46.8906C150.843 46.651 151.413 46.5312 152.043 46.5312C152.71 46.5312 153.298 46.6589 153.809 46.9141C154.324 47.1641 154.723 47.5156 155.004 47.9688C155.291 48.4219 155.434 48.9427 155.434 49.5312C155.434 50.1354 155.298 50.6589 155.027 51.1016C154.757 51.5391 154.361 51.9167 153.84 52.2344C153.517 52.4323 153.262 52.6354 153.074 52.8438C152.887 53.0469 152.746 53.2917 152.652 53.5781C152.564 53.8646 152.517 54.2188 152.512 54.6406V54.7344H150.918V54.6406ZM150.668 57.0156C150.668 56.8125 150.718 56.625 150.817 56.4531C150.916 56.2812 151.048 56.1458 151.215 56.0469C151.387 55.9427 151.574 55.8906 151.777 55.8906C151.975 55.8906 152.158 55.9401 152.324 56.0391C152.496 56.138 152.632 56.2734 152.731 56.4453C152.835 56.6172 152.887 56.8021 152.887 57C152.887 57.1979 152.835 57.3828 152.731 57.5547C152.632 57.7214 152.496 57.8568 152.324 57.9609C152.158 58.0599 151.975 58.1094 151.777 58.1094C151.58 58.1094 151.395 58.0599 151.223 57.9609C151.056 57.862 150.921 57.7292 150.817 57.5625C150.718 57.3958 150.668 57.2135 150.668 57.0156ZM33.4219 72.9062H35.5938V74.1406H33.4219V81.3125H31.9375V67.3281H33.4219V72.9062ZM22.5312 77.5781C24.2812 76.7031 25.6328 75.6354 26.5859 74.375C27.5443 73.1146 28.099 71.6667 28.25 70.0312H23.2344V68.7969H29.7656C29.7552 70.9323 29.237 72.8516 28.2109 74.5547C27.1849 76.2526 25.5677 77.6458 23.3594 78.7344L22.5312 77.5781ZM47.4087 69.0781H43.1509C43.203 69.5365 43.4426 69.9635 43.8697 70.3594C44.2968 70.7552 44.8593 71.0911 45.5572 71.3672C46.2603 71.638 47.039 71.8177 47.8931 71.9062L47.3462 73.0781C46.539 72.9844 45.789 72.8125 45.0962 72.5625C44.4035 72.3073 43.802 71.987 43.2916 71.6016C42.7864 71.2109 42.4087 70.7708 42.1587 70.2812C41.9087 70.7708 41.5311 71.2109 41.0259 71.6016C40.5207 71.987 39.9218 72.3073 39.2291 72.5625C38.5416 72.8125 37.7942 72.9844 36.9869 73.0781L36.4556 71.9062C37.2994 71.8177 38.0702 71.638 38.7681 71.3672C39.4712 71.0911 40.0337 70.7552 40.4556 70.3594C40.8827 69.9583 41.1197 69.5312 41.1666 69.0781H36.9556V67.875H47.4087V69.0781ZM35.7837 74.2969H41.4244V72.2656H42.8931V74.2969H48.5806V75.5H35.7837V74.2969ZM37.2056 76.75H46.9869V81.3281H45.4869V77.9375H37.2056V76.75ZM55.4269 68.1719C56.4008 68.1719 57.281 68.3359 58.0675 68.6641C58.854 68.987 59.4711 69.4453 59.9191 70.0391C60.3722 70.6276 60.5987 71.3073 60.5987 72.0781C60.5987 72.849 60.3722 73.5312 59.9191 74.125C59.4711 74.7188 58.854 75.1771 58.0675 75.5C57.281 75.8229 56.4008 75.9844 55.4269 75.9844C54.4529 75.9844 53.5727 75.8229 52.7862 75.5C52.005 75.1771 51.3904 74.7188 50.9425 74.125C50.4946 73.5312 50.2706 72.849 50.2706 72.0781C50.2706 71.3125 50.4946 70.6328 50.9425 70.0391C51.3904 69.4453 52.005 68.987 52.7862 68.6641C53.5727 68.3359 54.4529 68.1719 55.4269 68.1719ZM49.0519 78.2812H61.8644V79.5156H49.0519V78.2812ZM51.6925 72.0781C51.6925 72.6146 51.8514 73.0859 52.1691 73.4922C52.492 73.8984 52.9373 74.2135 53.505 74.4375C54.0727 74.6562 54.7133 74.7656 55.4269 74.7656C56.1404 74.7656 56.7784 74.6562 57.3409 74.4375C57.9086 74.2135 58.354 73.8984 58.6769 73.4922C58.9998 73.0859 59.1612 72.6146 59.1612 72.0781C59.1612 71.5469 58.9998 71.0755 58.6769 70.6641C58.354 70.2526 57.9086 69.9349 57.3409 69.7109C56.7732 69.487 56.1352 69.375 55.4269 69.375C54.7133 69.375 54.0727 69.487 53.505 69.7109C52.9373 69.9349 52.492 70.2526 52.1691 70.6641C51.8514 71.0755 51.6925 71.5469 51.6925 72.0781ZM75.1325 79.6562H62.32V78.4062H67.9606V75.9531H63.8825V71.5H72.1012V69.5312H63.8512V68.3125H73.57V72.6875H65.3512V74.7344H73.8981V75.9531H69.4294V78.4062H75.1325V79.6562ZM91.7469 79.5938H78.9344V78.3594H84.575V75.4844H80.4031V68.2812H81.8875V70.6875H88.7625V68.2812H90.2313V75.4844H86.0438V78.3594H91.7469V79.5938ZM88.7625 74.2812V71.8906H81.8875V74.2812H88.7625ZM103.531 72.6094H93.89V67.8281H95.3587V71.4219H103.531V72.6094ZM92.1869 74.375H104.999V75.5625H92.1869V74.375ZM93.7806 76.8906H95.265V79.7812H103.624V81H93.7806V76.8906ZM35.5938 96.0469H33.4219V103.312H31.9375V89.3281H33.4219V94.8281H35.5938V96.0469ZM23.0469 90.6875H24.5156V98.5625C26.6562 98.5521 28.7292 98.3438 30.7344 97.9375L30.9062 99.1875C29.7708 99.4115 28.6536 99.5703 27.5547 99.6641C26.4557 99.7578 25.3385 99.8021 24.2031 99.7969H23.0469V90.6875ZM40.3462 90.3281C41.0754 90.3281 41.7291 90.4688 42.3072 90.75C42.8853 91.026 43.3384 91.4193 43.6666 91.9297C43.9947 92.4349 44.1587 93.0104 44.1587 93.6562C44.1587 94.3021 43.9947 94.8802 43.6666 95.3906C43.3384 95.8958 42.8853 96.2917 42.3072 96.5781C41.7291 96.8594 41.0754 97 40.3462 97C39.6171 97 38.9608 96.8594 38.3775 96.5781C37.7994 96.2917 37.3462 95.8958 37.0181 95.3906C36.6952 94.8802 36.5337 94.3021 36.5337 93.6562C36.5337 93.0104 36.6952 92.4349 37.0181 91.9297C37.3462 91.4245 37.7994 91.0312 38.3775 90.75C38.9608 90.4688 39.6171 90.3281 40.3462 90.3281ZM35.8619 99.1094C37.6223 99.1094 39.2473 99.0807 40.7369 99.0234C42.2265 98.9661 43.6483 98.8385 45.0025 98.6406L45.1119 99.7188C43.716 99.9896 42.2968 100.161 40.8541 100.234C39.4166 100.307 37.815 100.344 36.0494 100.344L35.8619 99.1094ZM38.0025 93.6562C37.9973 94.0625 38.0936 94.4219 38.2916 94.7344C38.4947 95.0417 38.7733 95.2812 39.1275 95.4531C39.4869 95.6198 39.8931 95.7031 40.3462 95.7031C40.7994 95.7031 41.203 95.6198 41.5572 95.4531C41.9166 95.2812 42.1978 95.0417 42.4009 94.7344C42.6041 94.4219 42.7056 94.0625 42.7056 93.6562C42.7056 93.2552 42.6041 92.901 42.4009 92.5938C42.1978 92.2812 41.9166 92.0391 41.5572 91.8672C41.1978 91.6953 40.7942 91.6094 40.3462 91.6094C39.8931 91.6094 39.4869 91.6953 39.1275 91.8672C38.7733 92.0391 38.4947 92.2812 38.2916 92.5938C38.0936 92.901 37.9973 93.2552 38.0025 93.6562ZM45.8775 89.3281H47.3619V103.359H45.8775V89.3281ZM65.2106 101.578H52.3981V100.344H58.0387V97.1094H53.8669V90.4531H63.6794V97.1094H59.5075V100.344H65.2106V101.578ZM62.2262 95.9375V91.6406H55.3044V95.9375H62.2262ZM68.7131 99.2031H75.2912V97.7188H76.7756V103.156H67.2444V97.7188H68.7131V99.2031ZM65.6662 95.6094H78.4319V96.8438H65.6662V95.6094ZM66.3537 93.5781C67.2496 93.4635 68.0751 93.2344 68.8303 92.8906C69.5855 92.5417 70.1845 92.1224 70.6272 91.6328C71.0699 91.138 71.2912 90.6198 71.2912 90.0781V89.4844H72.8069V90.0781C72.8069 90.6042 73.0308 91.1172 73.4787 91.6172C73.9267 92.112 74.5256 92.5365 75.2756 92.8906C76.0308 93.2396 76.8485 93.4688 77.7287 93.5781L77.1975 94.75C76.4423 94.6458 75.7287 94.4609 75.0569 94.1953C74.385 93.9297 73.7912 93.599 73.2756 93.2031C72.76 92.8021 72.3537 92.3568 72.0569 91.8672C71.76 92.362 71.3511 92.8073 70.8303 93.2031C70.3147 93.599 69.7209 93.9297 69.0491 94.1953C68.3772 94.4609 67.6662 94.6458 66.9162 94.75L66.3537 93.5781ZM75.2912 101.969V100.359H68.7131V101.969H75.2912ZM85.3094 89.5625C86.3615 89.5625 87.2599 89.6536 88.0047 89.8359C88.7495 90.0182 89.3198 90.2917 89.7156 90.6562C90.1115 91.0156 90.3094 91.4531 90.3094 91.9688C90.3094 92.4896 90.1115 92.9323 89.7156 93.2969C89.3198 93.6562 88.7495 93.9297 88.0047 94.1172C87.2599 94.2995 86.3615 94.3906 85.3094 94.3906C84.2573 94.3906 83.3563 94.2995 82.6063 94.1172C81.8615 93.9297 81.2911 93.6562 80.8953 93.2969C80.5047 92.9323 80.3094 92.4896 80.3094 91.9688C80.3094 91.4531 80.5047 91.0156 80.8953 90.6562C81.2911 90.2917 81.8615 90.0182 82.6063 89.8359C83.3563 89.6536 84.2573 89.5625 85.3094 89.5625ZM78.9344 95.25H91.7V96.4375H78.9344V95.25ZM80.4656 97.5156H90.0906V100.797H81.9344V102.047H90.4813V103.188H80.4813V99.7188H88.6219V98.625H80.4656V97.5156ZM81.8563 91.9688C81.851 92.401 82.1453 92.7292 82.7391 92.9531C83.3328 93.1719 84.1896 93.2812 85.3094 93.2812C86.4396 93.2812 87.3016 93.1719 87.8953 92.9531C88.4891 92.7292 88.7833 92.401 88.7781 91.9688C88.7833 91.5521 88.4839 91.2292 87.8797 91C87.2807 90.7708 86.424 90.6562 85.3094 90.6562C84.2 90.6562 83.3458 90.7708 82.7469 91C82.1479 91.2292 81.851 91.5521 81.8563 91.9688ZM108.361 101.547H95.5488V100.328H101.158V97H102.627V100.328H108.361V101.547ZM95.9863 96.0312C96.8769 95.8802 97.7128 95.5677 98.4941 95.0938C99.2805 94.6198 99.9107 94.0469 100.385 93.375C100.859 92.6979 101.096 92 101.096 91.2812V90.2188H102.658V91.2812C102.658 92 102.895 92.6979 103.369 93.375C103.848 94.0469 104.481 94.6198 105.268 95.0938C106.059 95.5677 106.903 95.8802 107.799 96.0312L107.158 97.25C106.398 97.099 105.671 96.849 104.978 96.5C104.291 96.151 103.679 95.7188 103.143 95.2031C102.606 94.6823 102.187 94.1094 101.885 93.4844C101.583 94.1094 101.163 94.6797 100.627 95.1953C100.096 95.7109 99.4863 96.1458 98.7988 96.5C98.1165 96.849 97.3977 97.099 96.6425 97.25L95.9863 96.0312ZM120.801 103.328H119.379V96.0625H117.645V102.656H116.254V89.7031H117.645V94.8594H119.379V89.3281H120.801V103.328ZM108.77 99.3281C110.27 98.474 111.39 97.4661 112.129 96.3047C112.869 95.1432 113.299 93.8177 113.418 92.3281H109.364V91.1094H114.864C114.859 93.1042 114.457 94.8776 113.661 96.4297C112.864 97.9818 111.52 99.2917 109.629 100.359L108.77 99.3281ZM129.007 92.8438H122.054V91.6406H124.804V89.7344H126.272V91.6406H129.007V92.8438ZM122.507 96.9062C122.507 96.2865 122.634 95.7318 122.89 95.2422C123.15 94.7526 123.512 94.3724 123.976 94.1016C124.439 93.8255 124.96 93.6875 125.538 93.6875C126.121 93.6875 126.642 93.8255 127.101 94.1016C127.564 94.3724 127.926 94.7526 128.187 95.2422C128.452 95.7318 128.585 96.2865 128.585 96.9062C128.585 97.5365 128.452 98.099 128.187 98.5938C127.926 99.0885 127.564 99.474 127.101 99.75C126.642 100.021 126.121 100.156 125.538 100.156C124.96 100.156 124.439 100.021 123.976 99.75C123.512 99.474 123.15 99.0885 122.89 98.5938C122.634 98.099 122.507 97.5365 122.507 96.9062ZM123.819 96.9062C123.819 97.2969 123.892 97.6432 124.038 97.9453C124.184 98.2422 124.387 98.474 124.647 98.6406C124.908 98.8073 125.205 98.8906 125.538 98.8906C125.871 98.8906 126.168 98.8073 126.429 98.6406C126.694 98.474 126.9 98.2422 127.046 97.9453C127.197 97.6432 127.272 97.2969 127.272 96.9062C127.272 96.526 127.197 96.1849 127.046 95.8828C126.9 95.5807 126.694 95.3464 126.429 95.1797C126.168 95.0078 125.871 94.9219 125.538 94.9219C125.205 94.9219 124.908 95.0078 124.647 95.1797C124.387 95.3464 124.184 95.5807 124.038 95.8828C123.892 96.1849 123.819 96.526 123.819 96.9062ZM129.647 89.6406H131.054V95.1562H132.663V89.3281H134.069V103.328H132.663V96.375H131.054V102.672H129.647V89.6406ZM148.119 98.4219H142.431V103.312H140.978V98.4219H135.353V97.2188H148.119V98.4219ZM136.072 94.9844C136.936 94.8646 137.733 94.6276 138.463 94.2734C139.197 93.9141 139.783 93.4766 140.22 92.9609C140.658 92.4453 140.884 91.9062 140.9 91.3438H136.541V90.1562H146.916V91.3438H142.588C142.593 91.9062 142.811 92.4453 143.244 92.9609C143.681 93.4766 144.267 93.9141 145.002 94.2734C145.736 94.6276 146.541 94.8646 147.416 94.9844L146.869 96.1562C146.103 96.0365 145.382 95.8359 144.705 95.5547C144.028 95.2682 143.434 94.9141 142.923 94.4922C142.413 94.0651 142.017 93.5911 141.736 93.0703C141.455 93.5911 141.059 94.0651 140.548 94.4922C140.038 94.9141 139.447 95.2682 138.775 95.5547C138.103 95.8359 137.39 96.0365 136.634 96.1562L136.072 94.9844ZM152.887 93.1562C152.887 93.9167 152.994 94.6693 153.207 95.4141C153.421 96.1536 153.738 96.8307 154.16 97.4453C154.582 98.0599 155.095 98.5521 155.699 98.9219L154.871 100.062C154.236 99.6823 153.692 99.1641 153.238 98.5078C152.791 97.8464 152.442 97.0964 152.192 96.2578C151.931 97.1693 151.559 97.9818 151.074 98.6953C150.595 99.4089 150.022 99.9688 149.356 100.375L148.434 99.2656C149.074 98.8802 149.621 98.3672 150.074 97.7266C150.533 97.0859 150.876 96.3776 151.106 95.6016C151.34 94.8203 151.455 94.026 151.449 93.2188V90.6094H152.887V93.1562ZM154.184 94.25H156.356V89.5938H157.762V102.641H156.356V95.4844H154.184V94.25ZM159.246 89.3281H160.668V103.328H159.246V89.3281ZM174.702 101.578H161.889V100.344H164.952V96.6875C164.363 96.3646 163.908 95.9557 163.585 95.4609C163.262 94.9661 163.103 94.4115 163.108 93.7969C163.108 93.0729 163.327 92.4349 163.764 91.8828C164.202 91.3307 164.811 90.9036 165.592 90.6016C166.379 90.2943 167.27 90.1406 168.264 90.1406C169.259 90.1406 170.15 90.2943 170.936 90.6016C171.723 90.9036 172.335 91.3307 172.772 91.8828C173.215 92.4349 173.436 93.0729 173.436 93.7969C173.436 94.4062 173.28 94.9557 172.967 95.4453C172.655 95.9297 172.212 96.3333 171.639 96.6562V100.344H174.702V101.578ZM164.546 93.7969C164.546 94.2917 164.702 94.7266 165.014 95.1016C165.327 95.4766 165.764 95.7682 166.327 95.9766C166.889 96.1797 167.535 96.2812 168.264 96.2812C168.988 96.2812 169.632 96.1771 170.194 95.9688C170.762 95.7604 171.204 95.4714 171.522 95.1016C171.84 94.7266 171.999 94.2917 171.999 93.7969C171.999 93.3021 171.84 92.8698 171.522 92.5C171.204 92.125 170.762 91.8359 170.194 91.6328C169.632 91.4297 168.988 91.3281 168.264 91.3281C167.535 91.3281 166.889 91.4297 166.327 91.6328C165.764 91.8359 165.327 92.125 165.014 92.5C164.702 92.8698 164.546 93.3021 164.546 93.7969ZM170.139 100.344V97.2344C169.556 97.3698 168.931 97.4375 168.264 97.4375C167.608 97.4375 166.994 97.3698 166.421 97.2344V100.344H170.139ZM177.595 98.7344H176.048L175.908 90.6875H177.736L177.595 98.7344ZM175.72 101.016C175.72 100.812 175.769 100.625 175.868 100.453C175.967 100.281 176.1 100.146 176.267 100.047C176.439 99.9427 176.626 99.8906 176.829 99.8906C177.027 99.8906 177.21 99.9401 177.376 100.039C177.548 100.138 177.684 100.273 177.783 100.445C177.887 100.617 177.939 100.802 177.939 101C177.939 101.198 177.887 101.383 177.783 101.555C177.684 101.721 177.548 101.857 177.376 101.961C177.21 102.06 177.027 102.109 176.829 102.109C176.631 102.109 176.447 102.06 176.275 101.961C176.108 101.862 175.973 101.729 175.868 101.562C175.769 101.396 175.72 101.214 175.72 101.016Z" fill="white"/>
<path fill-rule="evenodd" clip-rule="evenodd" d="M244.632 110.443L235.066 110.373L235 119.396L239.884 119.432C239.975 120.736 239.142 123.365 235.043 124.812L237.423 128.657C239.689 127.715 244.287 124.573 244.545 119.539C244.546 119.514 244.548 119.49 244.549 119.466L244.566 119.467L244.632 110.443Z" fill="white"/>
<path fill-rule="evenodd" clip-rule="evenodd" d="M256.477 110.443L246.911 110.373L246.845 119.396L251.728 119.432C251.821 120.734 250.991 123.368 246.888 124.817L249.267 128.661C251.534 127.719 256.132 124.577 256.39 119.543C256.391 119.518 256.393 119.492 256.394 119.467L256.411 119.467L256.477 110.443Z" fill="white"/>
<path d="M261.323 105C261.327 105.088 261.329 105.181 261.328 105.279C261.445 108.54 263.614 109.273 264.828 109.273C262.181 109.273 261.36 111.369 261.305 112.801C261.317 112.976 261.323 113.159 261.323 113.352C261.304 113.186 261.297 113 261.305 112.801C261.083 109.657 258.949 109.28 257.669 109.273C260.709 109.273 261.317 106.765 261.328 105.279C261.325 105.188 261.323 105.095 261.323 105Z" fill="white"/>
<path d="M202.731 34.9072C202.352 34.5057 201.719 34.4876 201.317 34.8668C200.916 35.246 200.898 35.8789 201.277 36.2804L202.731 34.9072ZM208.473 31.5207L207.641 30.966L208.473 31.5207ZM232.157 36.0092C232.518 36.4266 233.15 36.4717 233.567 36.11C233.985 35.7483 234.03 35.1167 233.668 34.6994L232.157 36.0092ZM209.177 30.6901L209.834 31.4448L209.177 30.6901ZM201.277 36.2804C202.077 37.1279 203.155 38.0571 204.373 38.797C205.583 39.5318 206.997 40.1202 208.453 40.1939L208.554 38.1965C207.55 38.1456 206.462 37.726 205.412 37.0877C204.369 36.4543 203.428 35.6451 202.731 34.9072L201.277 36.2804ZM208.521 29.9355C208.206 30.2098 207.914 30.5563 207.641 30.966L209.305 32.0754C209.505 31.7752 209.684 31.5749 209.834 31.4448L208.521 29.9355ZM207.641 30.966C207.192 31.6394 206.951 32.3505 206.945 33.0724C206.94 33.7951 207.171 34.4559 207.551 35.0255C208.292 36.1374 209.607 36.9278 211.045 37.3854C213.916 38.299 217.912 38.0765 220.643 35.6184L219.305 34.1318C217.244 35.9865 214.051 36.2432 211.651 35.4796C210.454 35.0987 209.612 34.5113 209.215 33.9161C209.026 33.6321 208.943 33.357 208.945 33.0875C208.947 32.8173 209.035 32.4802 209.305 32.0754L207.641 30.966ZM220.643 35.6184C222.867 33.6169 225.055 32.9658 226.979 33.1453C228.921 33.3266 230.734 34.3676 232.157 36.0092L233.668 34.6994C231.976 32.7471 229.715 31.392 227.165 31.154C224.596 30.9142 221.873 31.8205 219.305 34.1318L220.643 35.6184ZM208.453 40.1939C210.149 40.2797 211.307 39.244 211.983 38.011C212.649 36.797 212.941 35.2603 212.954 33.8768C212.966 32.5281 212.715 31.0906 212.061 30.1649C211.716 29.6766 211.182 29.2323 210.444 29.1763C209.728 29.1219 209.074 29.4545 208.521 29.9355L209.834 31.4448C210.174 31.1491 210.317 31.1724 210.293 31.1705C210.246 31.167 210.299 31.1371 210.428 31.3191C210.721 31.7343 210.965 32.6621 210.954 33.8579C210.943 35.0189 210.692 36.206 210.23 37.0497C209.777 37.8744 209.223 38.2303 208.554 38.1965L208.453 40.1939Z" fill="#3656FF"/>
<path d="M152.34 118.802L153.621 124.726L148.885 130.873L144.677 128.747L146.812 121.287L152.34 118.802Z" fill="#F638B6"/>
<path d="M234.763 57.231C234.323 56.6064 234.925 55.7789 235.655 56.0061L242.852 58.2464C243.375 58.4092 243.583 59.038 243.261 59.481L240.408 63.4006C240.086 63.8436 239.423 63.8386 239.108 63.3909L234.763 57.231Z" fill="#F638B6"/>
<path d="M182.769 116L180.339 121.109" stroke="#4557FF" stroke-width="2" stroke-linecap="round"/>
<path d="M115 126.446L120.176 128.73" stroke="#4557FF" stroke-width="2" stroke-linecap="round"/>
<path d="M23.0004 125.446L28.1758 127.73" stroke="#F638B6" stroke-width="2" stroke-linecap="round"/>
<path d="M182.858 55.9992C182.582 57.7666 181.647 59.8837 181.215 60.7213" stroke="#F638B6" stroke-width="2" stroke-linecap="round"/>
<path d="M189.102 60.7214C188.035 62.1577 186.224 63.5977 185.451 64.1382" stroke="#F638B6" stroke-width="2" stroke-linecap="round"/>
<path d="M192.129 69.7176C190.353 69.9345 188.061 69.6137 187.137 69.4262" stroke="#F638B6" stroke-width="2" stroke-linecap="round"/>
<path d="M63.159 131.334C66.9933 130.653 71.5781 129.01 71.4677 125.035C71.3755 121.71 66.3912 118.89 65.2662 122.021C65.1781 122.266 65.1383 122.536 65.1597 122.833C65.3654 125.691 75.7709 125.8 77.8283 121.767" stroke="#3656FF" stroke-width="1.4" stroke-linecap="round"/>
<path d="M121.965 25.4492L123.484 20.0002" stroke="#4557FF" stroke-width="2" stroke-linecap="round"/>
<defs>
<filter id="filter0_d_494_613" x="0" y="0" width="278" height="149" filterUnits="userSpaceOnUse" color-interpolation-filters="sRGB">
<feFlood flood-opacity="0" result="BackgroundImageFix"/>
<feColorMatrix in="SourceAlpha" type="matrix" values="0 0 0 0 0 0 0 0 0 0 0 0 0 0 0 0 0 0 127 0" result="hardAlpha"/>
<feOffset dy="1"/>
<feGaussianBlur stdDeviation="1.5"/>
<feComposite in2="hardAlpha" operator="out"/>
<feColorMatrix type="matrix" values="0 0 0 0 0 0 0 0 0 0 0 0 0 0 0 0 0 0 0.18 0"/>
<feBlend mode="normal" in2="BackgroundImageFix" result="effect1_dropShadow_494_613"/>
<feBlend mode="normal" in="SourceGraphic" in2="effect1_dropShadow_494_613" result="shape"/>
</filter>
</defs>
</svg>
